<svg xmlns="http://www.w3.org/2000/svg" xmlns:xlink="http://www.w3.org/1999/xlink" width="400" zoomAndPan="magnify" viewBox="0 0 300 149.999998" height="200" preserveAspectRatio="xMidYMid meet" version="1.0"><defs><clipPath id="334a9677dc"><path d="M 4.460938 45 L 64.460938 45 L 64.460938 105 L 4.460938 105 Z M 4.460938 45 " clip-rule="nonzero"/></clipPath><clipPath id="aa5be30f27"><path d="M 34.460938 45 C 17.890625 45 4.460938 58.429688 4.460938 75 C 4.460938 91.570312 17.890625 105 34.460938 105 C 51.027344 105 64.460938 91.570312 64.460938 75 C 64.460938 58.429688 51.027344 45 34.460938 45 Z M 34.460938 45 " clip-rule="nonzero"/></clipPath><clipPath id="1f9f2caf2e"><path d="M 0.460938 0 L 60.460938 0 L 60.460938 60 L 0.460938 60 Z M 0.460938 0 " clip-rule="nonzero"/></clipPath><clipPath id="bd84e5300a"><path d="M 30.460938 0 C 13.890625 0 0.460938 13.429688 0.460938 30 C 0.460938 46.570312 13.890625 60 30.460938 60 C 47.027344 60 60.460938 46.570312 60.460938 30 C 60.460938 13.429688 47.027344 0 30.460938 0 Z M 30.460938 0 " clip-rule="nonzero"/></clipPath><clipPath id="a6ae86f360"><rect x="0" width="61" y="0" height="60"/></clipPath><clipPath id="3235bae882"><path d="M 23 67 L 52.691406 67 L 52.691406 93.230469 L 23 93.230469 Z M 23 67 " clip-rule="nonzero"/></clipPath></defs><path stroke-linecap="butt" transform="matrix(0.75, 0, 0, 0.75, 43.212096, 10.350001)" fill="none" stroke-linejoin="miter" d="M -0.00154464 64.79896 L 59.993251 64.79896 C 73.24846 64.79896 83.993252 54.054168 83.993252 40.798959 L 83.993252 25.002083 C 83.993252 11.746874 94.738044 1.002082 107.993253 1.002082 L 315.081807 1.002082 " stroke="#e7b67c" stroke-width="2" stroke-opacity="1" stroke-miterlimit="4"/><path stroke-linecap="round" transform="matrix(0.75, 0, 0, 0.75, 43.212096, 10.350001)" fill-opacity="1" fill="#e7b67c" fill-rule="nonzero" stroke-linejoin="round" d="M 315.581807 -1.997919 L 319.581807 1.002082 L 315.581807 4.002082 Z M 315.581807 -1.997919 " stroke="#e7b67c" stroke-width="2" stroke-opacity="1" stroke-miterlimit="4"/><path stroke-linecap="butt" transform="matrix(0.75, 0, 0, 0.75, 47.487096, 33.3)" fill="none" stroke-linejoin="miter" d="M 0.00158069 50.29792 L 69.183876 50.29792 C 82.439086 50.29792 93.183878 39.553127 93.183878 26.297918 L 93.183878 25.001043 C 93.183878 11.745834 103.92867 1.001042 117.183879 1.001042 L 241.491178 1.001042 " stroke="#e7b67c" stroke-width="2" stroke-opacity="1" stroke-miterlimit="4"/><path stroke-linecap="round" transform="matrix(0.75, 0, 0, 0.75, 47.487096, 33.3)" fill-opacity="1" fill="#e7b67c" fill-rule="nonzero" stroke-linejoin="round" d="M 241.991178 -1.998959 L 245.991178 1.001042 L 241.991178 4.001042 Z M 241.991178 -1.998959 " stroke="#e7b67c" stroke-width="2" stroke-opacity="1" stroke-miterlimit="4"/><path stroke-linecap="butt" transform="matrix(0.75, 0, 0, 0.75, 47.487096, 87.149997)" fill="none" stroke-linejoin="miter" d="M 0.00158069 0.997921 L 17.095332 0.997921 C 26.538041 0.997921 34.194291 8.654171 34.194291 18.09688 L 34.194291 28.175006 C 34.194291 41.430215 44.939083 52.175007 58.194292 52.175007 L 283.168264 52.175007 " stroke="#e7b67c" stroke-width="2" stroke-opacity="1" stroke-miterlimit="4"/><path stroke-linecap="round" transform="matrix(0.75, 0, 0, 0.75, 47.487096, 87.149997)" fill-opacity="1" fill="#e7b67c" fill-rule="nonzero" stroke-linejoin="round" d="M 283.668264 49.175007 L 287.668264 52.175007 L 283.668264 55.175007 Z M 283.668264 49.175007 " stroke="#e7b67c" stroke-width="2" stroke-opacity="1" stroke-miterlimit="4"/><path stroke-linecap="butt" transform="matrix(0.75, 0, 0, 0.75, 73.591933, 91.499997)" fill="none" stroke-linejoin="miter" d="M 0.00242319 21.119797 L 99.924304 21.119797 C 102.590971 21.119797 105.148263 20.057297 107.038888 18.171881 C 108.924305 16.286464 109.981596 13.729172 109.981596 11.057297 C 109.981596 8.39063 111.044096 5.833338 112.929513 3.947921 C 114.81493 2.057296 117.372222 1.000005 120.044097 1.000005 L 229.356603 1.000005 " stroke="#e7b67c" stroke-width="2" stroke-opacity="1" stroke-miterlimit="4"/><path stroke-linecap="round" transform="matrix(0.75, 0, 0, 0.75, 73.591933, 91.499997)" fill-opacity="1" fill="#e7b67c" fill-rule="nonzero" stroke-linejoin="round" d="M 229.856603 -1.999996 L 233.856603 1.000005 L 229.856603 4.000005 Z M 229.856603 -1.999996 " stroke="#e7b67c" stroke-width="2" stroke-opacity="1" stroke-miterlimit="4"/><path stroke-linecap="butt" transform="matrix(0.75, 0, 0, 0.75, 47.487096, 53.100004)" fill="none" stroke-linejoin="miter" d="M 0.00158069 37.798956 L 139.194297 37.798956 C 144.074506 37.798956 148.751589 35.861455 152.204715 32.40833 C 155.652631 28.960413 157.590132 24.278121 157.590132 19.397913 C 157.590132 14.517704 159.53284 9.840621 162.980757 6.387495 C 166.433882 2.939579 171.110966 1.002078 175.991174 1.002078 L 214.491177 1.002078 " stroke="#e7b67c" stroke-width="2" stroke-opacity="1" stroke-miterlimit="4"/><path stroke-linecap="round" transform="matrix(0.75, 0, 0, 0.75, 47.487096, 53.100004)" fill-opacity="1" fill="#e7b67c" fill-rule="nonzero" stroke-linejoin="round" d="M 214.991177 -1.997922 L 218.991177 1.002078 L 214.991177 4.002079 Z M 214.991177 -1.997922 " stroke="#e7b67c" stroke-width="2" stroke-opacity="1" stroke-miterlimit="4"/><path stroke-linecap="butt" transform="matrix(0.75, 0, 0, 0.75, 116.624996, 51.600004)" fill="none" stroke-linejoin="miter" d="M 0.916672 1.002078 L 0.958339 1.002078 C 0.968756 1.002078 0.979172 1.002078 0.989589 1.012495 C 0.994797 1.017703 1.000006 1.033328 1.000006 1.043745 L 1.000006 16.199996 C 1.000006 20.231246 2.598964 24.09583 5.453131 26.949997 C 8.30209 29.798955 12.166673 31.397913 16.197923 31.397913 L 134.989597 31.397913 C 138.76043 31.397913 142.369806 29.903122 145.031264 27.241663 C 147.697931 24.580205 149.192723 20.965621 149.192723 17.199996 C 149.192723 13.434371 150.687515 9.819787 153.348973 7.158329 C 156.01564 4.49687 159.625015 3.002078 163.39064 3.002078 L 203.692726 3.002078 " stroke="#e7b67c" stroke-width="2" stroke-opacity="1" stroke-miterlimit="4"/><path stroke-linecap="round" transform="matrix(0.75, 0, 0, 0.75, 116.624996, 51.600004)" fill-opacity="1" fill="#e7b67c" fill-rule="nonzero" stroke-linejoin="round" d="M 204.192726 0.00207828 L 208.192726 3.002078 L 204.192726 6.002079 Z M 204.192726 0.00207828 " stroke="#e7b67c" stroke-width="2" stroke-opacity="1" stroke-miterlimit="4"/><g clip-path="url(#334a9677dc)"><g clip-path="url(#aa5be30f27)"><g transform="matrix(1, 0, 0, 1, 4, 45)"><g clip-path="url(#a6ae86f360)"><g clip-path="url(#1f9f2caf2e)"><g clip-path="url(#bd84e5300a)"><path fill="#e7b67c" d="M 0.460938 0 L 60.460938 0 L 60.460938 60 L 0.460938 60 Z M 0.460938 0 " fill-opacity="1" fill-rule="nonzero"/></g></g></g></g></g></g><path fill="#ffffff" d="M 33.742188 57.4375 C 32.394531 57.445312 31.066406 57.71875 29.824219 58.238281 C 28.585938 58.765625 27.460938 59.527344 26.515625 60.488281 C 25.570312 61.449219 24.820312 62.585938 24.3125 63.839844 C 23.804688 65.089844 23.546875 66.429688 23.554688 67.785156 L 23.554688 71.199219 L 31.832031 71.199219 L 31.832031 66.25 C 31.832031 66.019531 31.875 65.785156 31.964844 65.574219 C 32.054688 65.355469 32.183594 65.164062 32.347656 64.996094 C 32.511719 64.832031 32.707031 64.703125 32.917969 64.613281 C 33.132812 64.523438 33.363281 64.480469 33.59375 64.480469 L 33.890625 64.480469 C 34.125 64.480469 34.351562 64.523438 34.566406 64.613281 C 34.777344 64.703125 34.972656 64.832031 35.136719 64.996094 C 35.300781 65.164062 35.429688 65.355469 35.519531 65.574219 C 35.605469 65.789062 35.652344 66.019531 35.652344 66.25 L 35.652344 79.523438 C 36.738281 79.523438 37.816406 79.308594 38.820312 78.890625 C 39.824219 78.472656 40.738281 77.859375 41.507812 77.085938 C 42.273438 76.3125 42.882812 75.398438 43.300781 74.386719 C 43.71875 73.378906 43.929688 72.292969 43.929688 71.203125 L 43.929688 67.785156 C 43.9375 65.046875 42.863281 62.414062 40.949219 60.46875 C 40.007812 59.507812 38.886719 58.746094 37.648438 58.226562 C 36.40625 57.703125 35.082031 57.433594 33.742188 57.4375 Z M 33.742188 57.4375 " fill-opacity="1" fill-rule="nonzero"/><g clip-path="url(#3235bae882)"><path fill="#ffffff" d="M 33.890625 86.242188 L 33.589844 86.242188 C 33.359375 86.242188 33.132812 86.195312 32.917969 86.105469 C 32.703125 86.015625 32.511719 85.886719 32.347656 85.722656 C 32.183594 85.554688 32.054688 85.363281 31.964844 85.148438 C 31.875 84.929688 31.828125 84.703125 31.828125 84.46875 L 31.828125 71.195312 C 30.742188 71.195312 29.664062 71.410156 28.660156 71.828125 C 27.65625 72.25 26.746094 72.859375 25.976562 73.632812 C 25.207031 74.40625 24.597656 75.324219 24.183594 76.332031 C 23.765625 77.339844 23.550781 78.425781 23.550781 79.515625 L 23.550781 82.886719 C 23.539062 84.238281 23.789062 85.582031 24.296875 86.835938 C 24.804688 88.09375 25.550781 89.234375 26.5 90.195312 C 27.445312 91.15625 28.574219 91.921875 29.816406 92.441406 C 31.058594 92.960938 32.390625 93.230469 33.738281 93.230469 C 35.085938 93.230469 36.417969 92.964844 37.660156 92.441406 C 38.902344 91.921875 40.03125 91.15625 40.976562 90.195312 C 41.925781 89.234375 42.671875 88.09375 43.179688 86.835938 C 43.6875 85.582031 43.941406 84.238281 43.925781 82.886719 L 43.925781 79.515625 L 35.648438 79.515625 L 35.648438 84.46875 C 35.648438 84.699219 35.601562 84.929688 35.511719 85.144531 C 35.425781 85.359375 35.292969 85.554688 35.128906 85.71875 C 34.96875 85.886719 34.773438 86.015625 34.558594 86.105469 C 34.347656 86.195312 34.121094 86.242188 33.890625 86.242188 Z M 58.074219 67.941406 L 55.175781 67.941406 L 55.175781 82.738281 L 63.691406 82.738281 L 63.691406 79.949219 L 58.078125 79.949219 C 58.074219 79.949219 58.074219 67.941406 58.074219 67.941406 Z M 72.980469 73.425781 C 72.570312 72.914062 72.042969 72.507812 71.449219 72.238281 C 70.855469 71.972656 70.203125 71.847656 69.550781 71.882812 C 68.871094 71.875 68.195312 72.019531 67.574219 72.296875 C 66.953125 72.574219 66.398438 72.984375 65.945312 73.5 C 64.976562 74.589844 64.441406 76 64.441406 77.460938 C 64.441406 78.921875 64.976562 80.335938 65.945312 81.425781 C 66.398438 81.9375 66.953125 82.347656 67.574219 82.628906 C 68.195312 82.90625 68.871094 83.046875 69.550781 83.042969 C 71.023438 83.042969 72.167969 82.527344 72.980469 81.5 L 72.980469 82.746094 L 75.691406 82.746094 L 75.691406 72.175781 L 72.980469 72.175781 Z M 72.148438 79.605469 C 71.875 79.882812 71.550781 80.097656 71.1875 80.238281 C 70.828125 80.382812 70.441406 80.453125 70.058594 80.441406 C 69.671875 80.453125 69.289062 80.382812 68.929688 80.238281 C 68.570312 80.097656 68.246094 79.878906 67.976562 79.605469 C 67.445312 79.015625 67.15625 78.253906 67.15625 77.457031 C 67.15625 76.667969 67.445312 75.902344 67.976562 75.3125 C 68.246094 75.039062 68.570312 74.820312 68.929688 74.675781 C 69.285156 74.53125 69.671875 74.464844 70.058594 74.476562 C 70.441406 74.464844 70.828125 74.535156 71.1875 74.675781 C 71.546875 74.820312 71.875 75.035156 72.148438 75.308594 C 72.683594 75.894531 72.980469 76.660156 72.980469 77.457031 C 72.980469 78.253906 72.683594 79.019531 72.148438 79.605469 Z M 82.679688 79.273438 L 79.9375 72.167969 L 76.972656 72.167969 L 81.28125 82.402344 C 81.101562 83.011719 80.746094 83.554688 80.257812 83.964844 C 79.75 84.3125 79.140625 84.476562 78.523438 84.429688 L 78.523438 86.96875 C 79.722656 87.078125 80.917969 86.753906 81.894531 86.046875 C 82.796875 85.363281 83.523438 84.265625 84.070312 82.757812 L 87.902344 72.167969 L 85 72.167969 Z M 93.773438 71.878906 C 93.03125 71.851562 92.296875 71.980469 91.609375 72.253906 C 90.921875 72.53125 90.296875 72.945312 89.777344 73.476562 C 88.773438 74.558594 88.21875 75.988281 88.222656 77.46875 C 88.226562 78.949219 88.789062 80.375 89.800781 81.453125 C 90.851562 82.511719 92.246094 83.039062 93.984375 83.039062 C 96 83.039062 97.53125 82.285156 98.566406 80.777344 L 96.382812 79.511719 C 96.105469 79.867188 95.746094 80.148438 95.335938 80.332031 C 94.925781 80.515625 94.476562 80.597656 94.027344 80.570312 C 92.414062 80.570312 91.425781 79.90625 91.0625 78.582031 L 98.988281 78.582031 C 99.054688 78.210938 99.089844 77.835938 99.09375 77.460938 C 99.132812 75.988281 98.59375 74.5625 97.589844 73.488281 C 97.101562 72.960938 96.511719 72.546875 95.855469 72.269531 C 95.195312 71.992188 94.484375 71.859375 93.773438 71.878906 Z M 91.019531 76.464844 C 91.140625 75.84375 91.472656 75.285156 91.964844 74.890625 C 92.488281 74.503906 93.125 74.304688 93.773438 74.328125 C 94.367188 74.324219 94.945312 74.507812 95.425781 74.859375 C 95.933594 75.253906 96.277344 75.824219 96.382812 76.464844 C 96.378906 76.464844 91.019531 76.464844 91.019531 76.464844 Z M 103.695312 73.988281 L 103.695312 72.171875 L 100.984375 72.171875 L 100.984375 82.738281 L 103.695312 82.738281 L 103.695312 77.6875 C 103.695312 76.671875 104.023438 75.949219 104.675781 75.511719 C 105.324219 75.074219 106.117188 74.894531 106.890625 75.003906 L 106.890625 71.960938 C 106.210938 71.953125 105.539062 72.128906 104.945312 72.46875 C 104.363281 72.808594 103.917969 73.347656 103.695312 73.988281 Z M 120.113281 70.230469 L 120.113281 67.941406 L 110.46875 67.941406 L 110.46875 70.734375 L 116.4375 70.734375 L 110.3125 80.410156 L 110.3125 82.738281 L 120.230469 82.738281 L 120.230469 79.949219 L 113.988281 79.949219 C 113.988281 79.949219 120.113281 70.230469 120.113281 70.230469 Z M 126.632812 71.878906 C 125.894531 71.851562 125.15625 71.980469 124.46875 72.253906 C 123.78125 72.53125 123.15625 72.945312 122.640625 73.476562 C 121.636719 74.558594 121.078125 75.988281 121.082031 77.46875 C 121.085938 78.949219 121.652344 80.375 122.660156 81.453125 C 123.710938 82.511719 125.105469 83.039062 126.84375 83.039062 C 128.863281 83.039062 130.386719 82.285156 131.425781 80.777344 L 129.242188 79.511719 C 128.960938 79.863281 128.601562 80.148438 128.195312 80.332031 C 127.785156 80.515625 127.335938 80.597656 126.886719 80.570312 C 125.273438 80.570312 124.285156 79.90625 123.921875 78.582031 L 131.847656 78.582031 C 131.914062 78.210938 131.949219 77.835938 131.949219 77.460938 C 131.992188 75.988281 131.453125 74.5625 130.449219 73.488281 C 129.964844 72.960938 129.371094 72.546875 128.714844 72.269531 C 128.054688 71.992188 127.347656 71.859375 126.632812 71.878906 Z M 123.878906 76.464844 C 124 75.84375 124.335938 75.285156 124.828125 74.890625 C 125.347656 74.503906 125.988281 74.304688 126.636719 74.328125 C 127.226562 74.324219 127.808594 74.507812 128.285156 74.859375 C 128.796875 75.253906 129.136719 75.824219 129.242188 76.464844 Z M 136.554688 73.988281 L 136.554688 72.171875 L 133.84375 72.171875 L 133.84375 82.738281 L 136.554688 82.738281 L 136.554688 77.6875 C 136.554688 76.671875 136.882812 75.949219 137.53125 75.511719 C 138.183594 75.074219 138.976562 74.894531 139.75 75.003906 L 139.75 71.960938 C 139.070312 71.953125 138.398438 72.128906 137.804688 72.46875 C 137.222656 72.808594 136.777344 73.347656 136.554688 73.988281 Z M 145.9375 71.875 C 144.664062 71.890625 143.433594 72.347656 142.460938 73.167969 C 141.484375 73.988281 140.820312 75.125 140.582031 76.382812 C 140.34375 77.640625 140.546875 78.941406 141.15625 80.0625 C 141.765625 81.1875 142.738281 82.066406 143.917969 82.546875 C 145.097656 83.03125 146.40625 83.085938 147.621094 82.710938 C 148.835938 82.332031 149.882812 81.542969 150.585938 80.476562 C 151.292969 79.410156 151.605469 78.132812 151.476562 76.859375 C 151.347656 75.585938 150.785156 74.398438 149.886719 73.496094 C 149.371094 72.964844 148.757812 72.550781 148.074219 72.273438 C 147.398438 71.996094 146.671875 71.859375 145.9375 71.875 Z M 147.976562 79.550781 C 147.707031 79.820312 147.390625 80.035156 147.039062 80.171875 C 146.6875 80.316406 146.3125 80.382812 145.933594 80.375 C 145.558594 80.382812 145.183594 80.316406 144.832031 80.175781 C 144.484375 80.035156 144.167969 79.820312 143.902344 79.550781 C 143.382812 78.980469 143.09375 78.230469 143.09375 77.457031 C 143.09375 76.683594 143.382812 75.9375 143.902344 75.367188 C 144.167969 75.09375 144.484375 74.882812 144.832031 74.742188 C 145.183594 74.597656 145.558594 74.53125 145.933594 74.542969 C 146.3125 74.53125 146.6875 74.597656 147.039062 74.742188 C 147.390625 74.882812 147.707031 75.09375 147.976562 75.363281 C 148.5 75.933594 148.796875 76.679688 148.796875 77.457031 C 148.796875 78.234375 148.503906 78.980469 147.976562 79.550781 Z M 157.195312 79.488281 L 153.894531 79.488281 L 153.894531 82.742188 L 157.195312 82.742188 Z M 157.195312 79.488281 " fill-opacity="1" fill-rule="nonzero"/></g></svg>