<svg xmlns="http://www.w3.org/2000/svg" xmlns:xlink="http://www.w3.org/1999/xlink" width="400" zoomAndPan="magnify" viewBox="0 0 300 149.999998" height="200" preserveAspectRatio="xMidYMid meet" version="1.0"><defs><clipPath id="5e211ba64e"><path d="M 4.460938 45 L 64.460938 45 L 64.460938 105 L 4.460938 105 Z M 4.460938 45 " clip-rule="nonzero"/></clipPath></defs><g clip-path="url(#5e211ba64e)"><path fill="#e7b67c" d="M 64.460938 75 C 64.460938 75.984375 64.410156 76.960938 64.316406 77.941406 C 64.21875 78.917969 64.074219 79.890625 63.882812 80.851562 C 63.691406 81.816406 63.453125 82.769531 63.167969 83.707031 C 62.882812 84.648438 62.550781 85.574219 62.175781 86.480469 C 61.800781 87.386719 61.378906 88.273438 60.917969 89.140625 C 60.453125 90.007812 59.949219 90.851562 59.402344 91.667969 C 58.859375 92.484375 58.273438 93.273438 57.648438 94.03125 C 57.027344 94.792969 56.367188 95.519531 55.671875 96.214844 C 54.976562 96.90625 54.25 97.566406 53.492188 98.191406 C 52.730469 98.8125 51.945312 99.398438 51.125 99.945312 C 50.308594 100.488281 49.46875 100.996094 48.601562 101.457031 C 47.734375 101.921875 46.847656 102.339844 45.941406 102.714844 C 45.03125 103.09375 44.109375 103.421875 43.167969 103.707031 C 42.226562 103.992188 41.277344 104.230469 40.3125 104.421875 C 39.347656 104.617188 38.378906 104.757812 37.398438 104.855469 C 36.421875 104.953125 35.441406 105 34.460938 105 C 33.476562 105 32.496094 104.953125 31.519531 104.855469 C 30.542969 104.757812 29.570312 104.613281 28.605469 104.421875 C 27.644531 104.230469 26.691406 103.992188 25.75 103.707031 C 24.8125 103.421875 23.886719 103.09375 22.980469 102.714844 C 22.070312 102.339844 21.183594 101.921875 20.316406 101.457031 C 19.453125 100.996094 18.609375 100.488281 17.792969 99.945312 C 16.976562 99.398438 16.1875 98.8125 15.429688 98.191406 C 14.667969 97.566406 13.941406 96.90625 13.246094 96.214844 C 12.550781 95.519531 11.894531 94.792969 11.269531 94.03125 C 10.644531 93.273438 10.0625 92.484375 9.515625 91.667969 C 8.96875 90.851562 8.464844 90.007812 8.003906 89.140625 C 7.539062 88.273438 7.121094 87.386719 6.742188 86.480469 C 6.367188 85.574219 6.035156 84.648438 5.75 83.707031 C 5.464844 82.769531 5.226562 81.816406 5.035156 80.851562 C 4.84375 79.890625 4.699219 78.917969 4.605469 77.941406 C 4.507812 76.960938 4.460938 75.984375 4.460938 75 C 4.460938 74.015625 4.507812 73.039062 4.605469 72.058594 C 4.699219 71.082031 4.84375 70.109375 5.035156 69.148438 C 5.226562 68.183594 5.464844 67.230469 5.75 66.292969 C 6.035156 65.351562 6.367188 64.425781 6.742188 63.519531 C 7.121094 62.613281 7.539062 61.726562 8.003906 60.859375 C 8.464844 59.992188 8.96875 59.148438 9.515625 58.332031 C 10.0625 57.515625 10.644531 56.726562 11.269531 55.96875 C 11.894531 55.207031 12.550781 54.480469 13.246094 53.785156 C 13.941406 53.09375 14.667969 52.433594 15.429688 51.808594 C 16.1875 51.1875 16.976562 50.601562 17.792969 50.054688 C 18.609375 49.511719 19.453125 49.003906 20.316406 48.542969 C 21.183594 48.078125 22.070312 47.660156 22.980469 47.285156 C 23.886719 46.90625 24.8125 46.578125 25.75 46.292969 C 26.691406 46.007812 27.644531 45.769531 28.605469 45.578125 C 29.570312 45.382812 30.542969 45.242188 31.519531 45.144531 C 32.496094 45.046875 33.476562 45 34.460938 45 C 35.441406 45 36.421875 45.046875 37.398438 45.144531 C 38.378906 45.242188 39.347656 45.382812 40.3125 45.578125 C 41.277344 45.769531 42.226562 46.007812 43.167969 46.292969 C 44.109375 46.578125 45.03125 46.90625 45.941406 47.285156 C 46.847656 47.660156 47.734375 48.078125 48.601562 48.542969 C 49.46875 49.003906 50.308594 49.511719 51.125 50.054688 C 51.945312 50.601562 52.730469 51.1875 53.492188 51.808594 C 54.25 52.433594 54.976562 53.09375 55.671875 53.785156 C 56.367188 54.480469 57.027344 55.207031 57.648438 55.96875 C 58.273438 56.726562 58.859375 57.515625 59.402344 58.332031 C 59.949219 59.148438 60.453125 59.992188 60.917969 60.859375 C 61.378906 61.726562 61.800781 62.613281 62.175781 63.519531 C 62.550781 64.425781 62.882812 65.351562 63.167969 66.292969 C 63.453125 67.230469 63.691406 68.183594 63.882812 69.148438 C 64.074219 70.109375 64.21875 71.082031 64.316406 72.058594 C 64.410156 73.039062 64.460938 74.015625 64.460938 75 Z M 64.460938 75 " fill-opacity="1" fill-rule="nonzero"/></g><path fill="#ffffff" d="M 34.777344 66.128906 C 34.777344 64.722656 35.925781 63.585938 37.332031 63.585938 L 41.914062 63.585938 L 41.914062 57.386719 L 37.332031 57.386719 C 32.480469 57.386719 28.542969 61.300781 28.542969 66.128906 C 28.542969 67.382812 28.8125 68.589844 29.292969 69.667969 C 25.519531 71.25 23.023438 74.625 22.4375 78.890625 C 21.757812 83.566406 23.644531 88.617188 27.746094 91.066406 C 31.414062 93.363281 37.132812 93.210938 40.226562 90.023438 L 40.226562 92.132812 L 46.601562 92.132812 L 46.601562 68.671875 L 37.332031 68.671875 C 35.925781 68.671875 34.777344 67.535156 34.777344 66.128906 M 40.378906 74.871094 L 40.378906 80.753906 C 40.367188 84.011719 37.71875 86.648438 34.460938 86.636719 C 31.203125 86.648438 28.554688 84.011719 28.542969 80.753906 C 28.554688 77.496094 31.203125 74.859375 34.460938 74.871094 Z M 40.378906 74.871094 " fill-opacity="1" fill-rule="nonzero"/><path stroke-linecap="butt" transform="matrix(0.75, 0, 0, 0.75, 43.212096, 10.350001)" fill="none" stroke-linejoin="miter" d="M -0.00154464 64.79896 L 59.993251 64.79896 C 73.24846 64.79896 83.993252 54.054168 83.993252 40.798959 L 83.993252 25.002083 C 83.993252 11.746874 94.738044 1.002082 107.993253 1.002082 L 315.081807 1.002082 " stroke="#e7b67c" stroke-width="2" stroke-opacity="1" stroke-miterlimit="4"/><path stroke-linecap="round" transform="matrix(0.75, 0, 0, 0.75, 43.212096, 10.350001)" fill-opacity="1" fill="#e7b67c" fill-rule="nonzero" stroke-linejoin="round" d="M 315.581807 -1.997919 L 319.581807 1.002082 L 315.581807 4.002082 Z M 315.581807 -1.997919 " stroke="#e7b67c" stroke-width="2" stroke-opacity="1" stroke-miterlimit="4"/><path stroke-linecap="butt" transform="matrix(0.75, 0, 0, 0.75, 47.487096, 33.3)" fill="none" stroke-linejoin="miter" d="M 0.00158069 50.29792 L 69.183876 50.29792 C 82.439086 50.29792 93.183878 39.553127 93.183878 26.297918 L 93.183878 25.001043 C 93.183878 11.745834 103.92867 1.001042 117.183879 1.001042 L 241.491178 1.001042 " stroke="#e7b67c" stroke-width="2" stroke-opacity="1" stroke-miterlimit="4"/><path stroke-linecap="round" transform="matrix(0.75, 0, 0, 0.75, 47.487096, 33.3)" fill-opacity="1" fill="#e7b67c" fill-rule="nonzero" stroke-linejoin="round" d="M 241.991178 -1.998959 L 245.991178 1.001042 L 241.991178 4.001042 Z M 241.991178 -1.998959 " stroke="#e7b67c" stroke-width="2" stroke-opacity="1" stroke-miterlimit="4"/><path stroke-linecap="butt" transform="matrix(0.75, 0, 0, 0.75, 47.487096, 87.149997)" fill="none" stroke-linejoin="miter" d="M 0.00158069 0.997921 L 17.095332 0.997921 C 26.538041 0.997921 34.194291 8.654171 34.194291 18.09688 L 34.194291 28.175006 C 34.194291 41.430215 44.939083 52.175007 58.194292 52.175007 L 283.168264 52.175007 " stroke="#e7b67c" stroke-width="2" stroke-opacity="1" stroke-miterlimit="4"/><path stroke-linecap="round" transform="matrix(0.75, 0, 0, 0.75, 47.487096, 87.149997)" fill-opacity="1" fill="#e7b67c" fill-rule="nonzero" stroke-linejoin="round" d="M 283.668264 49.175007 L 287.668264 52.175007 L 283.668264 55.175007 Z M 283.668264 49.175007 " stroke="#e7b67c" stroke-width="2" stroke-opacity="1" stroke-miterlimit="4"/><path stroke-linecap="butt" transform="matrix(0.75, 0, 0, 0.75, 73.591933, 91.499997)" fill="none" stroke-linejoin="miter" d="M 0.00242319 21.119797 L 99.924304 21.119797 C 102.590971 21.119797 105.148263 20.057297 107.038888 18.171881 C 108.924305 16.286464 109.981596 13.729172 109.981596 11.057297 C 109.981596 8.39063 111.044096 5.833338 112.929513 3.947921 C 114.81493 2.057296 117.372222 1.000005 120.044097 1.000005 L 229.356603 1.000005 " stroke="#e7b67c" stroke-width="2" stroke-opacity="1" stroke-miterlimit="4"/><path stroke-linecap="round" transform="matrix(0.75, 0, 0, 0.75, 73.591933, 91.499997)" fill-opacity="1" fill="#e7b67c" fill-rule="nonzero" stroke-linejoin="round" d="M 229.856603 -1.999996 L 233.856603 1.000005 L 229.856603 4.000005 Z M 229.856603 -1.999996 " stroke="#e7b67c" stroke-width="2" stroke-opacity="1" stroke-miterlimit="4"/><path stroke-linecap="butt" transform="matrix(0.75, 0, 0, 0.75, 47.487096, 53.100004)" fill="none" stroke-linejoin="miter" d="M 0.00158069 37.798956 L 139.194297 37.798956 C 144.074506 37.798956 148.751589 35.861455 152.204715 32.40833 C 155.652631 28.960413 157.590132 24.278121 157.590132 19.397913 C 157.590132 14.517704 159.53284 9.840621 162.980757 6.387495 C 166.433882 2.939579 171.110966 1.002078 175.991174 1.002078 L 214.491177 1.002078 " stroke="#e7b67c" stroke-width="2" stroke-opacity="1" stroke-miterlimit="4"/><path stroke-linecap="round" transform="matrix(0.75, 0, 0, 0.75, 47.487096, 53.100004)" fill-opacity="1" fill="#e7b67c" fill-rule="nonzero" stroke-linejoin="round" d="M 214.991177 -1.997922 L 218.991177 1.002078 L 214.991177 4.002079 Z M 214.991177 -1.997922 " stroke="#e7b67c" stroke-width="2" stroke-opacity="1" stroke-miterlimit="4"/><path stroke-linecap="butt" transform="matrix(0.75, 0, 0, 0.75, 116.624996, 51.600004)" fill="none" stroke-linejoin="miter" d="M 0.916672 1.002078 L 0.958339 1.002078 C 0.968756 1.002078 0.979172 1.002078 0.989589 1.012495 C 0.994797 1.017703 1.000006 1.033328 1.000006 1.043745 L 1.000006 16.199996 C 1.000006 20.231246 2.598964 24.09583 5.453131 26.949997 C 8.30209 29.798955 12.166673 31.397913 16.197923 31.397913 L 134.989597 31.397913 C 138.76043 31.397913 142.369806 29.903122 145.031264 27.241663 C 147.697931 24.580205 149.192723 20.965621 149.192723 17.199996 C 149.192723 13.434371 150.687515 9.819787 153.348973 7.158329 C 156.01564 4.49687 159.625015 3.002078 163.39064 3.002078 L 203.692726 3.002078 " stroke="#e7b67c" stroke-width="2" stroke-opacity="1" stroke-miterlimit="4"/><path stroke-linecap="round" transform="matrix(0.75, 0, 0, 0.75, 116.624996, 51.600004)" fill-opacity="1" fill="#e7b67c" fill-rule="nonzero" stroke-linejoin="round" d="M 204.192726 0.00207828 L 208.192726 3.002078 L 204.192726 6.002079 Z M 204.192726 0.00207828 " stroke="#e7b67c" stroke-width="2" stroke-opacity="1" stroke-miterlimit="4"/></svg>