<svg xmlns="http://www.w3.org/2000/svg" xmlns:xlink="http://www.w3.org/1999/xlink" width="400" zoomAndPan="magnify" viewBox="0 0 300 149.999998" height="200" preserveAspectRatio="xMidYMid meet" version="1.0"><defs><clipPath id="e73891283a"><path d="M 20.523438 24.21875 L 279.265625 24.21875 L 279.265625 125.46875 L 20.523438 125.46875 Z M 20.523438 24.21875 " clip-rule="nonzero"/></clipPath><clipPath id="453d811083"><path d="M 149.996094 24.21875 C 78.488281 24.21875 20.523438 46.953125 20.523438 74.996094 C 20.523438 103.039062 78.488281 125.773438 149.996094 125.773438 C 221.503906 125.773438 279.472656 103.039062 279.472656 74.996094 C 279.472656 46.953125 221.503906 24.21875 149.996094 24.21875 Z M 149.996094 24.21875 " clip-rule="nonzero"/></clipPath><clipPath id="3792c3be21"><path d="M 130.476562 48.617188 L 169.476562 48.617188 L 169.476562 101.117188 L 130.476562 101.117188 Z M 130.476562 48.617188 " clip-rule="nonzero"/></clipPath><clipPath id="29172bb057"><path d="M 118.664062 31.582031 L 135.914062 31.582031 L 135.914062 48.832031 L 118.664062 48.832031 Z M 118.664062 31.582031 " clip-rule="nonzero"/></clipPath><clipPath id="62480a491e"><path d="M 195 44.378906 L 212 44.378906 L 212 61.628906 L 195 61.628906 Z M 195 44.378906 " clip-rule="nonzero"/></clipPath><clipPath id="73bb75b2ee"><path d="M 88.390625 43.015625 L 105.640625 43.015625 L 105.640625 60 L 88.390625 60 Z M 88.390625 43.015625 " clip-rule="nonzero"/></clipPath><clipPath id="8aeee7135a"><path d="M 165.546875 44.378906 L 182.796875 44.378906 L 182.796875 61.628906 L 165.546875 61.628906 Z M 165.546875 44.378906 " clip-rule="nonzero"/></clipPath><clipPath id="8e0e5c1b65"><path d="M 65.121094 66.480469 L 82 66.480469 L 82 83.730469 L 65.121094 83.730469 Z M 65.121094 66.480469 " clip-rule="nonzero"/></clipPath><clipPath id="b0e78283e7"><path d="M 80 84.347656 L 97 84.347656 L 97 101 L 80 101 Z M 80 84.347656 " clip-rule="nonzero"/></clipPath><clipPath id="e36f87c80f"><path d="M 110.148438 60.050781 L 127 60.050781 L 127 77 L 110.148438 77 Z M 110.148438 60.050781 " clip-rule="nonzero"/></clipPath><clipPath id="24e44d3528"><path d="M 182.585938 75 L 199.835938 75 L 199.835938 92 L 182.585938 92 Z M 182.585938 75 " clip-rule="nonzero"/></clipPath><clipPath id="57f823201b"><path d="M 229.417969 53 L 246.667969 53 L 246.667969 70 L 229.417969 70 Z M 229.417969 53 " clip-rule="nonzero"/></clipPath><clipPath id="dd7d6c4fb0"><path d="M 203.449219 94.3125 L 220.699219 94.3125 L 220.699219 111 L 203.449219 111 Z M 203.449219 94.3125 " clip-rule="nonzero"/></clipPath><clipPath id="b3d3523f88"><path d="M 38.035156 53 L 55 53 L 55 70 L 38.035156 70 Z M 38.035156 53 " clip-rule="nonzero"/></clipPath><clipPath id="b56324f593"><path d="M 243.125 70 L 260 70 L 260 87 L 243.125 87 Z M 243.125 70 " clip-rule="nonzero"/></clipPath></defs><g clip-path="url(#e73891283a)"><g clip-path="url(#453d811083)"><path fill="#e7b67c" d="M 139.371094 25.886719 C 136.382812 25.984375 133.410156 26.121094 130.453125 26.296875 L 130.273438 23.300781 C 133.257812 23.125 136.257812 22.984375 139.273438 22.890625 Z M 128.984375 26.386719 C 125.984375 26.582031 123.007812 26.816406 120.050781 27.089844 L 119.773438 24.101562 C 122.757812 23.824219 125.761719 23.589844 128.792969 23.394531 Z M 118.53125 27.234375 C 115.511719 27.535156 112.519531 27.875 109.566406 28.257812 L 109.179688 25.28125 C 112.167969 24.894531 115.1875 24.550781 118.238281 24.25 Z M 108.097656 28.449219 C 105.171875 28.84375 102.285156 29.28125 99.441406 29.757812 L 98.945312 26.796875 C 101.824219 26.316406 104.738281 25.875 107.695312 25.476562 Z M 97.945312 30.011719 C 94.96875 30.527344 92.046875 31.085938 89.179688 31.691406 L 88.5625 28.753906 C 91.464844 28.144531 94.421875 27.578125 97.429688 27.054688 Z M 87.714844 32.003906 C 84.746094 32.648438 81.84375 33.335938 79.011719 34.074219 L 78.257812 31.167969 C 81.128906 30.425781 84.070312 29.726562 87.078125 29.070312 Z M 77.585938 34.449219 C 74.636719 35.238281 71.773438 36.070312 69 36.953125 L 68.089844 34.09375 C 70.910156 33.199219 73.816406 32.351562 76.8125 31.550781 Z M 67.589844 37.40625 C 64.683594 38.359375 61.886719 39.355469 59.203125 40.40625 L 58.113281 37.609375 C 60.847656 36.542969 63.699219 35.523438 66.660156 34.554688 Z M 57.792969 40.964844 C 54.933594 42.113281 52.226562 43.316406 49.664062 44.566406 L 48.347656 41.871094 C 50.972656 40.589844 53.75 39.359375 56.671875 38.179688 Z M 48.308594 45.238281 C 45.535156 46.640625 42.960938 48.09375 40.589844 49.601562 L 38.984375 47.066406 C 41.4375 45.511719 44.09375 44.007812 46.953125 42.5625 Z M 39.355469 50.398438 C 36.761719 52.117188 34.445312 53.882812 32.410156 55.703125 L 30.410156 53.464844 C 32.558594 51.550781 34.988281 49.695312 37.703125 47.898438 Z M 31.351562 56.675781 C 29.070312 58.835938 27.203125 61.039062 25.746094 63.292969 L 23.226562 61.664062 C 24.8125 59.210938 26.832031 56.820312 29.289062 54.496094 Z M 25.015625 64.488281 C 23.515625 67.085938 22.582031 69.710938 22.207031 72.363281 L 19.238281 71.945312 C 19.664062 68.90625 20.722656 65.921875 22.414062 62.992188 Z M 22.0625 73.746094 C 22.035156 74.160156 22.023438 74.578125 22.023438 74.996094 C 22.023438 77.324219 22.453125 79.636719 23.316406 81.933594 L 20.507812 82.988281 C 19.515625 80.351562 19.023438 77.6875 19.023438 74.996094 C 19.023438 74.511719 19.039062 74.027344 19.070312 73.546875 Z M 23.855469 83.238281 C 24.9375 85.65625 26.492188 88.03125 28.515625 90.367188 L 26.25 92.332031 C 24.03125 89.773438 22.320312 87.152344 21.117188 84.46875 Z M 29.472656 91.429688 C 31.328125 93.417969 33.511719 95.355469 36.023438 97.246094 L 34.222656 99.644531 C 31.570312 97.648438 29.257812 95.59375 27.28125 93.476562 Z M 37.238281 98.132812 C 39.488281 99.746094 41.96875 101.308594 44.671875 102.820312 L 43.210938 105.441406 C 40.40625 103.875 37.835938 102.25 35.488281 100.574219 Z M 45.945312 103.519531 C 48.4375 104.863281 51.101562 106.160156 53.929688 107.402344 L 52.722656 110.148438 C 49.820312 108.871094 47.085938 107.542969 44.519531 106.160156 Z M 55.289062 107.992188 C 57.929688 109.117188 60.699219 110.195312 63.59375 111.222656 L 62.585938 114.050781 C 59.636719 113 56.8125 111.902344 54.113281 110.75 Z M 65.003906 111.714844 C 67.742188 112.660156 70.578125 113.558594 73.507812 114.410156 L 72.675781 117.289062 C 69.695312 116.425781 66.8125 115.511719 64.027344 114.550781 Z M 74.953125 114.820312 C 77.757812 115.613281 80.640625 116.355469 83.597656 117.054688 L 82.90625 119.976562 C 79.910156 119.265625 76.984375 118.511719 74.136719 117.707031 Z M 85.058594 117.394531 C 87.914062 118.050781 90.832031 118.664062 93.808594 119.230469 L 93.246094 122.175781 C 90.234375 121.601562 87.28125 120.984375 84.386719 120.320312 Z M 95.277344 119.503906 C 98.148438 120.035156 101.070312 120.519531 104.03125 120.964844 L 103.589844 123.929688 C 100.589844 123.480469 97.640625 122.988281 94.734375 122.453125 Z M 105.476562 121.175781 C 108.386719 121.597656 111.332031 121.976562 114.316406 122.3125 L 113.976562 125.292969 C 110.964844 124.953125 107.988281 124.570312 105.046875 124.144531 Z M 115.816406 122.476562 C 118.816406 122.800781 121.847656 123.078125 124.90625 123.316406 L 124.675781 126.308594 C 121.585938 126.070312 118.527344 125.785156 115.492188 125.460938 Z M 126.359375 123.425781 C 129.28125 123.636719 132.226562 123.8125 135.1875 123.945312 L 135.050781 126.941406 C 132.0625 126.804688 129.09375 126.632812 126.140625 126.417969 Z M 136.675781 124.007812 C 139.679688 124.128906 142.695312 124.207031 145.722656 124.246094 L 145.683594 127.246094 C 142.628906 127.207031 139.585938 127.125 136.554688 127.003906 Z M 147.238281 124.261719 L 150.003906 124.273438 C 152.136719 124.273438 154.269531 124.253906 156.398438 124.210938 L 156.457031 127.210938 C 154.308594 127.253906 152.152344 127.273438 149.992188 127.273438 L 147.226562 127.261719 Z M 157.914062 124.179688 C 160.917969 124.109375 163.910156 123.996094 166.886719 123.84375 L 167.039062 126.839844 C 164.035156 126.992188 161.015625 127.105469 157.984375 127.179688 Z M 168.363281 123.765625 C 171.324219 123.597656 174.265625 123.390625 177.1875 123.148438 L 177.441406 126.136719 C 174.492188 126.382812 171.523438 126.59375 168.53125 126.757812 Z M 178.722656 123.011719 C 181.765625 122.742188 184.78125 122.425781 187.769531 122.066406 L 188.125 125.046875 C 185.109375 125.410156 182.0625 125.726562 178.988281 126 Z M 189.25 121.886719 C 192.195312 121.515625 195.101562 121.105469 197.972656 120.65625 L 198.4375 123.617188 C 195.539062 124.074219 192.597656 124.488281 189.621094 124.863281 Z M 199.394531 120.425781 C 202.390625 119.9375 205.332031 119.40625 208.226562 118.832031 L 208.8125 121.773438 C 205.882812 122.355469 202.90625 122.894531 199.878906 123.386719 Z M 209.667969 118.539062 C 212.648438 117.925781 215.566406 117.269531 218.421875 116.566406 L 219.136719 119.480469 C 216.246094 120.191406 213.292969 120.859375 210.273438 121.480469 Z M 219.847656 116.210938 C 222.808594 115.460938 225.683594 114.664062 228.480469 113.820312 L 229.347656 116.691406 C 226.507812 117.546875 223.589844 118.355469 220.585938 119.117188 Z M 229.882812 113.386719 C 232.8125 112.480469 235.632812 111.523438 238.347656 110.515625 L 239.390625 113.328125 C 236.625 114.351562 233.753906 115.328125 230.773438 116.253906 Z M 239.710938 110.003906 C 242.589844 108.90625 245.328125 107.757812 247.929688 106.5625 L 249.183594 109.289062 C 246.519531 110.511719 243.71875 111.683594 240.78125 112.804688 Z M 249.230469 105.957031 C 252.035156 104.625 254.652344 103.242188 257.089844 101.804688 L 258.613281 104.390625 C 256.101562 105.871094 253.402344 107.296875 250.515625 108.664062 Z M 258.390625 101.023438 C 261.054688 99.386719 263.464844 97.703125 265.613281 95.960938 L 267.5 98.296875 C 265.25 100.117188 262.734375 101.878906 259.960938 103.582031 Z M 266.730469 95.035156 C 269.09375 93.015625 271.097656 90.949219 272.730469 88.835938 L 275.105469 90.671875 C 273.34375 92.949219 271.199219 95.164062 268.675781 97.320312 Z M 273.605469 87.652344 C 275.351562 85.164062 276.578125 82.644531 277.277344 80.089844 L 280.171875 80.878906 C 279.378906 83.773438 278.007812 86.605469 276.058594 89.378906 Z M 277.597656 78.730469 C 277.847656 77.488281 277.972656 76.246094 277.972656 74.996094 C 277.972656 73.46875 277.785156 71.949219 277.414062 70.4375 L 280.328125 69.722656 C 280.757812 71.472656 280.972656 73.230469 280.972656 74.996094 C 280.972656 76.441406 280.828125 77.882812 280.539062 79.316406 Z M 277.042969 69.109375 C 276.238281 66.578125 274.917969 64.085938 273.085938 61.625 L 275.492188 59.832031 C 277.527344 62.5625 278.996094 65.351562 279.902344 68.203125 Z M 272.195312 60.480469 C 270.503906 58.402344 268.460938 56.375 266.0625 54.398438 L 267.972656 52.082031 C 270.523438 54.1875 272.707031 56.355469 274.519531 58.585938 Z M 264.917969 53.476562 C 262.734375 51.765625 260.296875 50.105469 257.609375 48.496094 L 259.152344 45.921875 C 261.945312 47.59375 264.484375 49.324219 266.769531 51.113281 Z M 256.3125 47.734375 C 253.871094 46.328125 251.25 44.972656 248.449219 43.667969 L 249.714844 40.949219 C 252.59375 42.289062 255.292969 43.683594 257.808594 45.132812 Z M 247.132812 43.066406 C 244.519531 41.886719 241.773438 40.757812 238.890625 39.679688 L 239.945312 36.871094 C 242.886719 37.972656 245.695312 39.125 248.367188 40.332031 Z M 237.515625 39.171875 C 234.792969 38.179688 231.96875 37.238281 229.039062 36.34375 L 229.914062 33.476562 C 232.894531 34.382812 235.769531 35.34375 238.539062 36.351562 Z M 227.625 35.917969 C 224.828125 35.085938 221.949219 34.304688 218.988281 33.566406 L 219.714844 30.65625 C 222.71875 31.402344 225.636719 32.199219 228.476562 33.042969 Z M 217.550781 33.214844 C 214.699219 32.523438 211.78125 31.875 208.800781 31.277344 L 209.394531 28.335938 C 212.410156 28.941406 215.367188 29.597656 218.257812 30.296875 Z M 207.351562 30.988281 C 204.460938 30.425781 201.523438 29.902344 198.539062 29.425781 L 199.011719 26.464844 C 202.03125 26.945312 205.003906 27.472656 207.925781 28.042969 Z M 197.109375 29.203125 C 194.230469 28.757812 191.3125 28.355469 188.359375 27.996094 L 188.722656 25.019531 C 191.707031 25.382812 194.65625 25.789062 197.566406 26.238281 Z M 186.871094 27.816406 C 183.875 27.46875 180.851562 27.160156 177.796875 26.898438 L 178.054688 23.910156 C 181.140625 24.175781 184.195312 24.484375 187.21875 24.839844 Z M 176.261719 26.769531 C 173.351562 26.53125 170.421875 26.335938 167.472656 26.179688 L 167.632812 23.183594 C 170.609375 23.34375 173.566406 23.539062 176.503906 23.777344 Z M 165.992188 26.105469 C 163.011719 25.960938 160.011719 25.855469 157 25.792969 L 157.066406 22.792969 C 160.101562 22.855469 163.128906 22.960938 166.136719 23.109375 Z M 155.5 25.765625 L 149.984375 25.71875 C 146.941406 25.71875 143.90625 25.761719 140.875 25.84375 L 140.792969 22.84375 C 143.851562 22.761719 146.921875 22.71875 150.007812 22.71875 L 155.523438 22.765625 Z M 155.5 25.765625 " fill-opacity="1" fill-rule="nonzero"/></g></g><g clip-path="url(#3792c3be21)"><path fill="#e7b67c" d="M 164.671875 70.285156 L 164.671875 63.296875 C 164.671875 55.191406 158.078125 48.597656 149.972656 48.597656 C 141.871094 48.597656 135.277344 55.191406 135.277344 63.296875 L 135.277344 70.285156 C 132.53125 71.09375 130.519531 73.636719 130.519531 76.640625 L 130.519531 94.722656 C 130.519531 98.378906 133.492188 101.355469 137.148438 101.355469 L 162.800781 101.355469 C 166.457031 101.355469 169.429688 98.378906 169.429688 94.722656 L 169.429688 76.640625 C 169.429688 73.636719 167.417969 71.09375 164.671875 70.285156 Z M 149.972656 51.914062 C 156.25 51.914062 161.355469 57.019531 161.355469 63.296875 L 161.355469 70.011719 L 138.59375 70.011719 L 138.59375 63.296875 C 138.59375 57.019531 143.699219 51.914062 149.972656 51.914062 Z M 166.113281 94.722656 C 166.113281 96.550781 164.628906 98.039062 162.800781 98.039062 L 137.148438 98.039062 C 135.320312 98.039062 133.832031 96.550781 133.832031 94.722656 L 133.832031 76.640625 C 133.832031 75.132812 134.84375 73.863281 136.222656 73.460938 L 163.726562 73.460938 C 165.105469 73.863281 166.113281 75.132812 166.113281 76.640625 Z M 166.113281 94.722656 " fill-opacity="1" fill-rule="nonzero"/></g><path fill="#e7b67c" d="M 153.429688 83.984375 C 153.429688 82.078125 151.882812 80.53125 149.972656 80.53125 C 148.066406 80.53125 146.519531 82.078125 146.519531 83.984375 C 146.519531 85.292969 147.246094 86.429688 148.316406 87.015625 L 148.316406 90.242188 C 148.316406 91.160156 149.058594 91.902344 149.972656 91.902344 C 150.890625 91.902344 151.632812 91.160156 151.632812 90.242188 L 151.632812 87.015625 C 152.703125 86.429688 153.429688 85.292969 153.429688 83.984375 Z M 153.429688 83.984375 " fill-opacity="1" fill-rule="nonzero"/><g clip-path="url(#29172bb057)"><path fill="#e7b67c" d="M 129.425781 39.363281 C 128.921875 38.859375 128.363281 38.300781 127.855469 37.792969 C 126.785156 36.722656 124.832031 36.84375 123.507812 38.167969 C 122.453125 39.226562 121.152344 40.527344 120.09375 41.585938 C 118.769531 42.910156 118.644531 44.859375 119.71875 45.929688 C 120.222656 46.4375 120.785156 46.996094 121.289062 47.503906 C 122.363281 48.574219 124.3125 48.449219 125.636719 47.125 C 126.386719 46.375 127.257812 45.503906 128.082031 44.683594 C 128.292969 44.46875 128.292969 44.125 128.082031 43.914062 C 127.867188 43.699219 127.523438 43.699219 127.3125 43.914062 C 126.488281 44.734375 125.617188 45.605469 124.867188 46.355469 C 124.007812 47.21875 122.753906 47.429688 122.058594 46.734375 C 122.058594 46.734375 120.488281 45.164062 120.488281 45.164062 C 119.792969 44.464844 120.003906 43.214844 120.863281 42.355469 C 121.921875 41.296875 123.21875 39.996094 124.277344 38.9375 C 125.136719 38.078125 126.390625 37.867188 127.085938 38.5625 C 127.085938 38.5625 128.660156 40.132812 128.660156 40.132812 C 128.871094 40.34375 129.214844 40.34375 129.425781 40.132812 C 129.640625 39.921875 129.640625 39.578125 129.425781 39.363281 Z M 124.875 40.773438 C 125.382812 41.277344 125.941406 41.839844 126.449219 42.34375 C 127.519531 43.417969 129.46875 43.292969 130.792969 41.96875 C 131.851562 40.910156 133.152344 39.609375 134.210938 38.554688 C 135.535156 37.226562 135.65625 35.277344 134.585938 34.207031 C 134.078125 33.699219 133.519531 33.140625 133.015625 32.636719 C 131.941406 31.5625 129.992188 31.6875 128.667969 33.011719 C 127.917969 33.761719 127.042969 34.632812 126.222656 35.457031 C 126.011719 35.667969 126.011719 36.011719 126.222656 36.226562 C 126.433594 36.4375 126.78125 36.4375 126.992188 36.226562 C 127.8125 35.402344 128.6875 34.53125 129.4375 33.78125 C 130.296875 32.921875 131.550781 32.707031 132.246094 33.402344 C 132.246094 33.402344 133.816406 34.976562 133.816406 34.976562 C 134.511719 35.671875 134.300781 36.925781 133.441406 37.785156 C 132.382812 38.839844 131.082031 40.140625 130.027344 41.199219 C 129.164062 42.058594 127.914062 42.269531 127.214844 41.574219 C 127.214844 41.574219 125.644531 40.003906 125.644531 40.003906 C 125.433594 39.792969 125.089844 39.792969 124.875 40.003906 C 124.664062 40.214844 124.664062 40.5625 124.875 40.773438 Z M 124.875 40.773438 " fill-opacity="1" fill-rule="evenodd"/></g><g clip-path="url(#62480a491e)"><path fill="#e7b67c" d="M 205.695312 52.160156 C 205.1875 51.652344 204.628906 51.09375 204.125 50.589844 C 203.050781 49.515625 201.101562 49.640625 199.777344 50.964844 C 198.71875 52.023438 197.417969 53.320312 196.363281 54.378906 C 195.035156 55.703125 194.914062 57.65625 195.984375 58.726562 C 196.492188 59.234375 197.050781 59.792969 197.554688 60.296875 C 198.628906 61.371094 200.578125 61.246094 201.902344 59.921875 C 202.652344 59.171875 203.527344 58.296875 204.347656 57.476562 C 204.558594 57.265625 204.558594 56.921875 204.347656 56.707031 C 204.136719 56.496094 203.789062 56.496094 203.578125 56.707031 C 202.757812 57.527344 201.882812 58.402344 201.132812 59.152344 C 200.273438 60.011719 199.023438 60.226562 198.324219 59.527344 C 198.324219 59.527344 196.753906 57.957031 196.753906 57.957031 C 196.058594 57.261719 196.269531 56.007812 197.128906 55.148438 C 198.1875 54.089844 199.488281 52.792969 200.546875 51.734375 C 201.40625 50.875 202.65625 50.660156 203.355469 51.359375 C 203.355469 51.359375 204.925781 52.929688 204.925781 52.929688 C 205.136719 53.140625 205.480469 53.140625 205.695312 52.929688 C 205.90625 52.714844 205.90625 52.371094 205.695312 52.160156 Z M 201.144531 53.570312 C 201.648438 54.074219 202.207031 54.632812 202.714844 55.140625 C 203.785156 56.210938 205.738281 56.085938 207.0625 54.761719 C 208.121094 53.707031 209.417969 52.40625 210.476562 51.347656 C 211.800781 50.023438 211.925781 48.074219 210.851562 47 C 210.347656 46.496094 209.789062 45.9375 209.28125 45.429688 C 208.210938 44.359375 206.257812 44.480469 204.933594 45.808594 C 204.183594 46.558594 203.3125 47.429688 202.488281 48.25 C 202.277344 48.464844 202.277344 48.808594 202.488281 49.019531 C 202.703125 49.234375 203.046875 49.234375 203.257812 49.019531 C 204.082031 48.199219 204.953125 47.328125 205.703125 46.574219 C 206.5625 45.714844 207.816406 45.503906 208.511719 46.199219 C 208.511719 46.199219 210.082031 47.769531 210.082031 47.769531 C 210.78125 48.46875 210.566406 49.71875 209.707031 50.578125 C 208.648438 51.636719 207.351562 52.9375 206.292969 53.992188 C 205.433594 54.855469 204.179688 55.066406 203.484375 54.371094 C 203.484375 54.371094 201.914062 52.800781 201.914062 52.800781 C 201.699219 52.585938 201.355469 52.585938 201.144531 52.800781 C 200.929688 53.011719 200.929688 53.355469 201.144531 53.570312 Z M 201.144531 53.570312 " fill-opacity="1" fill-rule="evenodd"/></g><g clip-path="url(#73bb75b2ee)"><path fill="#e7b67c" d="M 99.152344 50.796875 C 98.644531 50.289062 98.085938 49.730469 97.578125 49.226562 C 96.507812 48.152344 94.558594 48.277344 93.234375 49.601562 C 92.175781 50.660156 90.875 51.957031 89.816406 53.015625 C 88.492188 54.339844 88.371094 56.289062 89.441406 57.363281 C 89.949219 57.867188 90.507812 58.429688 91.011719 58.933594 C 92.085938 60.007812 94.035156 59.882812 95.359375 58.558594 C 96.109375 57.808594 96.980469 56.933594 97.804688 56.113281 C 98.015625 55.902344 98.015625 55.554688 97.804688 55.34375 C 97.589844 55.132812 97.246094 55.132812 97.035156 55.34375 C 96.214844 56.164062 95.339844 57.039062 94.589844 57.789062 C 93.730469 58.648438 92.476562 58.859375 91.78125 58.164062 C 91.78125 58.164062 90.210938 56.59375 90.210938 56.59375 C 89.515625 55.898438 89.726562 54.644531 90.585938 53.785156 C 91.644531 52.726562 92.945312 51.429688 94 50.371094 C 94.863281 49.511719 96.113281 49.296875 96.808594 49.992188 C 96.808594 49.992188 98.382812 51.566406 98.382812 51.566406 C 98.59375 51.777344 98.9375 51.777344 99.152344 51.566406 C 99.363281 51.351562 99.363281 51.007812 99.152344 50.796875 Z M 94.601562 52.203125 C 95.105469 52.710938 95.664062 53.269531 96.171875 53.777344 C 97.242188 54.847656 99.195312 54.722656 100.519531 53.398438 C 101.574219 52.339844 102.875 51.042969 103.933594 49.984375 C 105.257812 48.660156 105.382812 46.710938 104.308594 45.636719 C 103.804688 45.132812 103.242188 44.574219 102.738281 44.066406 C 101.664062 42.996094 99.714844 43.117188 98.390625 44.441406 C 97.640625 45.195312 96.769531 46.066406 95.945312 46.886719 C 95.734375 47.097656 95.734375 47.445312 95.945312 47.65625 C 96.160156 47.867188 96.503906 47.867188 96.714844 47.65625 C 97.539062 46.835938 98.410156 45.960938 99.160156 45.210938 C 100.019531 44.351562 101.273438 44.140625 101.96875 44.835938 C 101.96875 44.835938 103.539062 46.40625 103.539062 46.40625 C 104.234375 47.101562 104.023438 48.355469 103.164062 49.214844 C 102.105469 50.273438 100.808594 51.570312 99.75 52.628906 C 98.886719 53.488281 97.636719 53.703125 96.941406 53.007812 C 96.941406 53.007812 95.367188 51.433594 95.367188 51.433594 C 95.15625 51.222656 94.8125 51.222656 94.601562 51.433594 C 94.386719 51.648438 94.386719 51.992188 94.601562 52.203125 Z M 94.601562 52.203125 " fill-opacity="1" fill-rule="evenodd"/></g><g clip-path="url(#8aeee7135a)"><path fill="#e7b67c" d="M 176.308594 52.160156 C 175.804688 51.652344 175.246094 51.09375 174.738281 50.589844 C 173.667969 49.515625 171.714844 49.640625 170.390625 50.964844 C 169.335938 52.023438 168.035156 53.320312 166.976562 54.378906 C 165.652344 55.703125 165.527344 57.65625 166.601562 58.726562 C 167.105469 59.234375 167.667969 59.792969 168.171875 60.296875 C 169.246094 61.371094 171.195312 61.246094 172.519531 59.921875 C 173.269531 59.171875 174.140625 58.296875 174.964844 57.476562 C 175.175781 57.265625 175.175781 56.921875 174.964844 56.707031 C 174.75 56.496094 174.40625 56.496094 174.195312 56.707031 C 173.371094 57.527344 172.5 58.402344 171.75 59.152344 C 170.890625 60.011719 169.636719 60.226562 168.941406 59.527344 C 168.941406 59.527344 167.371094 57.957031 167.371094 57.957031 C 166.675781 57.261719 166.886719 56.007812 167.746094 55.148438 C 168.804688 54.089844 170.101562 52.792969 171.160156 51.734375 C 172.023438 50.875 173.273438 50.660156 173.96875 51.359375 C 173.96875 51.359375 175.542969 52.929688 175.542969 52.929688 C 175.753906 53.140625 176.097656 53.140625 176.308594 52.929688 C 176.523438 52.714844 176.523438 52.371094 176.308594 52.160156 Z M 171.757812 53.570312 C 172.265625 54.074219 172.824219 54.632812 173.332031 55.140625 C 174.402344 56.210938 176.351562 56.085938 177.675781 54.761719 C 178.734375 53.707031 180.035156 52.40625 181.09375 51.347656 C 182.417969 50.023438 182.539062 48.074219 181.46875 47 C 180.960938 46.496094 180.402344 45.9375 179.898438 45.429688 C 178.824219 44.359375 176.875 44.480469 175.550781 45.808594 C 174.800781 46.558594 173.925781 47.429688 173.105469 48.25 C 172.894531 48.464844 172.894531 48.808594 173.105469 49.019531 C 173.320312 49.234375 173.664062 49.234375 173.875 49.019531 C 174.695312 48.199219 175.570312 47.328125 176.320312 46.574219 C 177.179688 45.714844 178.433594 45.503906 179.128906 46.199219 C 179.128906 46.199219 180.699219 47.769531 180.699219 47.769531 C 181.394531 48.46875 181.183594 49.71875 180.324219 50.578125 C 179.265625 51.636719 177.964844 52.9375 176.910156 53.992188 C 176.046875 54.855469 174.796875 55.066406 174.097656 54.371094 C 174.097656 54.371094 172.527344 52.800781 172.527344 52.800781 C 172.316406 52.585938 171.972656 52.585938 171.757812 52.800781 C 171.546875 53.011719 171.546875 53.355469 171.757812 53.570312 Z M 171.757812 53.570312 " fill-opacity="1" fill-rule="evenodd"/></g><g clip-path="url(#8e0e5c1b65)"><path fill="#e7b67c" d="M 75.882812 74.265625 C 75.378906 73.757812 74.820312 73.199219 74.3125 72.691406 C 73.242188 71.621094 71.289062 71.746094 69.964844 73.070312 C 68.90625 74.128906 67.609375 75.425781 66.550781 76.484375 C 65.226562 77.808594 65.101562 79.757812 66.175781 80.832031 C 66.679688 81.335938 67.238281 81.898438 67.746094 82.402344 C 68.816406 83.476562 70.769531 83.351562 72.09375 82.027344 C 72.84375 81.273438 73.714844 80.402344 74.535156 79.582031 C 74.75 79.371094 74.75 79.023438 74.535156 78.8125 C 74.324219 78.601562 73.980469 78.601562 73.769531 78.8125 C 72.945312 79.632812 72.074219 80.507812 71.324219 81.257812 C 70.464844 82.117188 69.210938 82.328125 68.515625 81.632812 C 68.515625 81.632812 66.945312 80.0625 66.945312 80.0625 C 66.246094 79.367188 66.460938 78.113281 67.320312 77.253906 C 68.378906 76.195312 69.675781 74.898438 70.734375 73.839844 C 71.59375 72.980469 72.847656 72.765625 73.542969 73.460938 C 73.542969 73.460938 75.113281 75.035156 75.113281 75.035156 C 75.328125 75.246094 75.671875 75.246094 75.882812 75.035156 C 76.097656 74.820312 76.097656 74.476562 75.882812 74.265625 Z M 71.332031 75.671875 C 71.839844 76.179688 72.398438 76.738281 72.902344 77.246094 C 73.976562 78.316406 75.925781 78.191406 77.25 76.867188 C 78.308594 75.808594 79.609375 74.511719 80.664062 73.453125 C 81.992188 72.128906 82.113281 70.179688 81.042969 69.105469 C 80.535156 68.601562 79.976562 68.039062 79.472656 67.535156 C 78.398438 66.460938 76.449219 66.585938 75.125 67.910156 C 74.375 68.660156 73.5 69.535156 72.679688 70.355469 C 72.46875 70.566406 72.46875 70.914062 72.679688 71.125 C 72.890625 71.335938 73.238281 71.335938 73.449219 71.125 C 74.269531 70.304688 75.140625 69.429688 75.894531 68.679688 C 76.753906 67.820312 78.003906 67.609375 78.703125 68.304688 C 78.703125 68.304688 80.273438 69.875 80.273438 69.875 C 80.96875 70.570312 80.757812 71.824219 79.898438 72.683594 C 78.839844 73.742188 77.539062 75.039062 76.480469 76.097656 C 75.621094 76.957031 74.371094 77.171875 73.671875 76.476562 C 73.671875 76.476562 72.101562 74.902344 72.101562 74.902344 C 71.890625 74.691406 71.546875 74.691406 71.332031 74.902344 C 71.121094 75.117188 71.121094 75.460938 71.332031 75.671875 Z M 71.332031 75.671875 " fill-opacity="1" fill-rule="evenodd"/></g><g clip-path="url(#b0e78283e7)"><path fill="#e7b67c" d="M 90.632812 92.128906 C 90.128906 91.621094 89.566406 91.0625 89.0625 90.558594 C 87.988281 89.484375 86.039062 89.609375 84.714844 90.933594 C 83.65625 91.992188 82.359375 93.289062 81.300781 94.347656 C 79.976562 95.671875 79.851562 97.625 80.921875 98.695312 C 81.429688 99.203125 81.988281 99.761719 82.496094 100.265625 C 83.566406 101.339844 85.515625 101.214844 86.84375 99.890625 C 87.59375 99.140625 88.464844 98.265625 89.285156 97.445312 C 89.5 97.234375 89.5 96.890625 89.285156 96.675781 C 89.074219 96.464844 88.730469 96.464844 88.515625 96.675781 C 87.695312 97.496094 86.824219 98.371094 86.074219 99.121094 C 85.210938 99.980469 83.960938 100.195312 83.265625 99.496094 C 83.265625 99.496094 81.691406 97.925781 81.691406 97.925781 C 80.996094 97.230469 81.210938 95.976562 82.070312 95.117188 C 83.128906 94.058594 84.425781 92.761719 85.484375 91.703125 C 86.34375 90.84375 87.597656 90.628906 88.292969 91.328125 C 88.292969 91.328125 89.863281 92.898438 89.863281 92.898438 C 90.074219 93.109375 90.421875 93.109375 90.632812 92.898438 C 90.84375 92.683594 90.84375 92.339844 90.632812 92.128906 Z M 86.082031 93.539062 C 86.585938 94.042969 87.148438 94.601562 87.652344 95.109375 C 88.726562 96.179688 90.675781 96.054688 92 94.730469 C 93.058594 93.675781 94.355469 92.375 95.414062 91.316406 C 96.738281 89.992188 96.863281 88.042969 95.792969 86.96875 C 95.285156 86.464844 94.726562 85.90625 94.21875 85.398438 C 93.148438 84.328125 91.199219 84.449219 89.871094 85.777344 C 89.121094 86.527344 88.25 87.398438 87.429688 88.21875 C 87.214844 88.433594 87.214844 88.777344 87.429688 88.988281 C 87.640625 89.203125 87.984375 89.203125 88.199219 88.988281 C 89.019531 88.167969 89.890625 87.296875 90.640625 86.542969 C 91.503906 85.683594 92.753906 85.472656 93.449219 86.167969 C 93.449219 86.167969 95.023438 87.738281 95.023438 87.738281 C 95.71875 88.4375 95.503906 89.6875 94.644531 90.546875 C 93.585938 91.605469 92.289062 92.90625 91.230469 93.960938 C 90.371094 94.824219 89.117188 95.035156 88.421875 94.339844 C 88.421875 94.339844 86.851562 92.769531 86.851562 92.769531 C 86.640625 92.554688 86.292969 92.554688 86.082031 92.769531 C 85.871094 92.980469 85.871094 93.324219 86.082031 93.539062 Z M 86.082031 93.539062 " fill-opacity="1" fill-rule="evenodd"/></g><g clip-path="url(#e36f87c80f)"><path fill="#e7b67c" d="M 120.910156 67.832031 C 120.402344 67.324219 119.84375 66.765625 119.339844 66.261719 C 118.265625 65.1875 116.316406 65.3125 114.992188 66.636719 C 113.933594 67.695312 112.636719 68.992188 111.578125 70.050781 C 110.253906 71.375 110.128906 73.328125 111.199219 74.398438 C 111.707031 74.90625 112.265625 75.464844 112.769531 75.96875 C 113.84375 77.042969 115.792969 76.917969 117.117188 75.59375 C 117.871094 74.84375 118.742188 73.96875 119.5625 73.148438 C 119.773438 72.9375 119.773438 72.59375 119.5625 72.378906 C 119.351562 72.167969 119.003906 72.167969 118.792969 72.378906 C 117.972656 73.199219 117.101562 74.074219 116.347656 74.824219 C 115.488281 75.683594 114.238281 75.898438 113.539062 75.199219 C 113.539062 75.199219 111.96875 73.628906 111.96875 73.628906 C 111.273438 72.933594 111.484375 71.679688 112.347656 70.820312 C 113.402344 69.761719 114.703125 68.464844 115.761719 67.40625 C 116.621094 66.546875 117.875 66.332031 118.570312 67.03125 C 118.570312 67.03125 120.140625 68.601562 120.140625 68.601562 C 120.351562 68.8125 120.699219 68.8125 120.910156 68.601562 C 121.121094 68.386719 121.121094 68.042969 120.910156 67.832031 Z M 116.359375 69.242188 C 116.863281 69.746094 117.421875 70.304688 117.929688 70.8125 C 119 71.882812 120.953125 71.757812 122.277344 70.433594 C 123.335938 69.375 124.632812 68.078125 125.691406 67.019531 C 127.015625 65.695312 127.140625 63.746094 126.066406 62.671875 C 125.5625 62.167969 125.003906 61.609375 124.496094 61.101562 C 123.425781 60.03125 121.472656 60.152344 120.148438 61.480469 C 119.398438 62.230469 118.527344 63.101562 117.707031 63.921875 C 117.492188 64.136719 117.492188 64.480469 117.707031 64.691406 C 117.917969 64.90625 118.261719 64.90625 118.476562 64.691406 C 119.296875 63.871094 120.167969 63 120.917969 62.246094 C 121.777344 61.386719 123.03125 61.175781 123.726562 61.871094 C 123.726562 61.871094 125.296875 63.441406 125.296875 63.441406 C 125.996094 64.140625 125.78125 65.390625 124.921875 66.25 C 123.863281 67.308594 122.566406 68.609375 121.507812 69.664062 C 120.648438 70.527344 119.394531 70.738281 118.699219 70.042969 C 118.699219 70.042969 117.128906 68.472656 117.128906 68.472656 C 116.914062 68.257812 116.570312 68.257812 116.359375 68.472656 C 116.144531 68.683594 116.144531 69.027344 116.359375 69.242188 Z M 116.359375 69.242188 " fill-opacity="1" fill-rule="evenodd"/></g><g clip-path="url(#24e44d3528)"><path fill="#e7b67c" d="M 193.347656 82.78125 C 192.839844 82.277344 192.28125 81.71875 191.773438 81.210938 C 190.703125 80.136719 188.753906 80.261719 187.429688 81.585938 C 186.371094 82.644531 185.070312 83.945312 184.011719 85.003906 C 182.6875 86.328125 182.566406 88.277344 183.636719 89.347656 C 184.144531 89.855469 184.703125 90.414062 185.207031 90.921875 C 186.28125 91.992188 188.230469 91.867188 189.554688 90.542969 C 190.304688 89.792969 191.175781 88.921875 192 88.101562 C 192.210938 87.886719 192.210938 87.542969 192 87.332031 C 191.785156 87.117188 191.441406 87.117188 191.230469 87.332031 C 190.410156 88.152344 189.535156 89.023438 188.785156 89.773438 C 187.925781 90.632812 186.671875 90.847656 185.976562 90.152344 C 185.976562 90.152344 184.40625 88.578125 184.40625 88.578125 C 183.710938 87.882812 183.921875 86.632812 184.78125 85.769531 C 185.839844 84.714844 187.140625 83.414062 188.195312 82.355469 C 189.058594 81.496094 190.308594 81.285156 191.003906 81.980469 C 191.003906 81.980469 192.578125 83.550781 192.578125 83.550781 C 192.789062 83.761719 193.132812 83.761719 193.347656 83.550781 C 193.558594 83.339844 193.558594 82.996094 193.347656 82.78125 Z M 188.796875 84.191406 C 189.300781 84.695312 189.859375 85.257812 190.367188 85.761719 C 191.4375 86.835938 193.390625 86.710938 194.714844 85.386719 C 195.769531 84.328125 197.070312 83.027344 198.128906 81.972656 C 199.453125 80.644531 199.578125 78.695312 198.503906 77.625 C 198 77.117188 197.4375 76.558594 196.933594 76.050781 C 195.859375 74.980469 193.910156 75.105469 192.585938 76.429688 C 191.835938 77.179688 190.964844 78.050781 190.140625 78.875 C 189.929688 79.085938 189.929688 79.429688 190.140625 79.640625 C 190.355469 79.855469 190.699219 79.855469 190.910156 79.640625 C 191.734375 78.820312 192.605469 77.949219 193.355469 77.199219 C 194.214844 76.339844 195.46875 76.125 196.164062 76.820312 C 196.164062 76.820312 197.734375 78.394531 197.734375 78.394531 C 198.429688 79.089844 198.21875 80.339844 197.359375 81.203125 C 196.300781 82.257812 195.003906 83.558594 193.945312 84.617188 C 193.082031 85.476562 191.832031 85.6875 191.136719 84.992188 C 191.136719 84.992188 189.5625 83.421875 189.5625 83.421875 C 189.351562 83.210938 189.007812 83.210938 188.796875 83.421875 C 188.582031 83.632812 188.582031 83.980469 188.796875 84.191406 Z M 188.796875 84.191406 " fill-opacity="1" fill-rule="evenodd"/></g><g clip-path="url(#57f823201b)"><path fill="#e7b67c" d="M 240.179688 60.675781 C 239.671875 60.171875 239.113281 59.613281 238.609375 59.105469 C 237.535156 58.035156 235.585938 58.160156 234.261719 59.484375 C 233.203125 60.539062 231.902344 61.839844 230.847656 62.898438 C 229.523438 64.222656 229.398438 66.171875 230.46875 67.246094 C 230.976562 67.75 231.535156 68.308594 232.039062 68.816406 C 233.113281 69.886719 235.0625 69.765625 236.386719 68.4375 C 237.136719 67.6875 238.011719 66.816406 238.832031 65.996094 C 239.042969 65.78125 239.042969 65.4375 238.832031 65.226562 C 238.621094 65.011719 238.273438 65.011719 238.0625 65.226562 C 237.242188 66.046875 236.371094 66.917969 235.617188 67.671875 C 234.757812 68.53125 233.507812 68.742188 232.808594 68.046875 C 232.808594 68.046875 231.238281 66.476562 231.238281 66.476562 C 230.542969 65.777344 230.753906 64.527344 231.617188 63.667969 C 232.671875 62.609375 233.972656 61.308594 235.03125 60.253906 C 235.890625 59.390625 237.140625 59.179688 237.839844 59.875 C 237.839844 59.875 239.410156 61.445312 239.410156 61.445312 C 239.621094 61.660156 239.96875 61.660156 240.179688 61.445312 C 240.390625 61.234375 240.390625 60.890625 240.179688 60.675781 Z M 235.628906 62.085938 C 236.132812 62.59375 236.691406 63.152344 237.199219 63.65625 C 238.269531 64.730469 240.222656 64.605469 241.546875 63.28125 C 242.605469 62.222656 243.902344 60.925781 244.960938 59.867188 C 246.285156 58.542969 246.410156 56.589844 245.335938 55.519531 C 244.832031 55.011719 244.273438 54.453125 243.765625 53.949219 C 242.695312 52.875 240.742188 53 239.417969 54.324219 C 238.667969 55.074219 237.796875 55.949219 236.976562 56.769531 C 236.761719 56.980469 236.761719 57.324219 236.976562 57.539062 C 237.1875 57.75 237.53125 57.75 237.746094 57.539062 C 238.566406 56.71875 239.4375 55.84375 240.1875 55.09375 C 241.046875 54.234375 242.300781 54.019531 242.996094 54.71875 C 242.996094 54.71875 244.566406 56.289062 244.566406 56.289062 C 245.265625 56.984375 245.050781 58.238281 244.191406 59.097656 C 243.132812 60.15625 241.835938 61.453125 240.777344 62.511719 C 239.917969 63.371094 238.664062 63.585938 237.96875 62.886719 C 237.96875 62.886719 236.398438 61.316406 236.398438 61.316406 C 236.183594 61.105469 235.839844 61.105469 235.628906 61.316406 C 235.414062 61.53125 235.414062 61.875 235.628906 62.085938 Z M 235.628906 62.085938 " fill-opacity="1" fill-rule="evenodd"/></g><g clip-path="url(#dd7d6c4fb0)"><path fill="#e7b67c" d="M 214.210938 102.09375 C 213.707031 101.589844 213.148438 101.03125 212.640625 100.523438 C 211.570312 99.453125 209.617188 99.578125 208.292969 100.902344 C 207.234375 101.957031 205.9375 103.257812 204.878906 104.316406 C 203.554688 105.640625 203.429688 107.589844 204.503906 108.664062 C 205.007812 109.167969 205.566406 109.726562 206.074219 110.234375 C 207.144531 111.304688 209.097656 111.183594 210.421875 109.855469 C 211.171875 109.105469 212.042969 108.234375 212.863281 107.414062 C 213.078125 107.199219 213.078125 106.855469 212.863281 106.644531 C 212.652344 106.429688 212.308594 106.429688 212.097656 106.644531 C 211.273438 107.464844 210.402344 108.335938 209.652344 109.089844 C 208.792969 109.949219 207.539062 110.160156 206.84375 109.464844 C 206.84375 109.464844 205.273438 107.894531 205.273438 107.894531 C 204.574219 107.195312 204.789062 105.945312 205.648438 105.085938 C 206.707031 104.027344 208.003906 102.726562 209.0625 101.671875 C 209.921875 100.808594 211.175781 100.597656 211.871094 101.292969 C 211.871094 101.292969 213.441406 102.863281 213.441406 102.863281 C 213.65625 103.078125 214 103.078125 214.210938 102.863281 C 214.425781 102.652344 214.425781 102.308594 214.210938 102.09375 Z M 209.660156 103.503906 C 210.167969 104.011719 210.726562 104.570312 211.230469 105.074219 C 212.304688 106.148438 214.253906 106.023438 215.578125 104.699219 C 216.636719 103.640625 217.9375 102.34375 218.992188 101.285156 C 220.320312 99.960938 220.441406 98.007812 219.371094 96.9375 C 218.863281 96.429688 218.304688 95.871094 217.800781 95.367188 C 216.726562 94.292969 214.777344 94.417969 213.453125 95.742188 C 212.703125 96.492188 211.828125 97.367188 211.007812 98.1875 C 210.796875 98.398438 210.796875 98.742188 211.007812 98.957031 C 211.21875 99.167969 211.566406 99.167969 211.777344 98.957031 C 212.597656 98.136719 213.46875 97.261719 214.222656 96.511719 C 215.082031 95.652344 216.332031 95.4375 217.03125 96.136719 C 217.03125 96.136719 218.601562 97.707031 218.601562 97.707031 C 219.296875 98.402344 219.085938 99.65625 218.226562 100.515625 C 217.167969 101.574219 215.867188 102.871094 214.808594 103.929688 C 213.949219 104.789062 212.699219 105.003906 212 104.304688 C 212 104.304688 210.429688 102.734375 210.429688 102.734375 C 210.21875 102.523438 209.875 102.523438 209.660156 102.734375 C 209.449219 102.949219 209.449219 103.292969 209.660156 103.503906 Z M 209.660156 103.503906 " fill-opacity="1" fill-rule="evenodd"/></g><g clip-path="url(#b3d3523f88)"><path fill="#e7b67c" d="M 48.796875 60.675781 C 48.289062 60.171875 47.730469 59.613281 47.226562 59.105469 C 46.152344 58.035156 44.203125 58.160156 42.878906 59.484375 C 41.820312 60.539062 40.519531 61.839844 39.460938 62.898438 C 38.136719 64.222656 38.015625 66.171875 39.085938 67.246094 C 39.59375 67.75 40.152344 68.308594 40.65625 68.816406 C 41.730469 69.886719 43.679688 69.765625 45.003906 68.4375 C 45.753906 67.6875 46.628906 66.816406 47.449219 65.996094 C 47.660156 65.78125 47.660156 65.4375 47.449219 65.226562 C 47.238281 65.011719 46.890625 65.011719 46.679688 65.226562 C 45.859375 66.046875 44.984375 66.917969 44.234375 67.671875 C 43.375 68.53125 42.121094 68.742188 41.425781 68.046875 C 41.425781 68.046875 39.855469 66.476562 39.855469 66.476562 C 39.160156 65.777344 39.371094 64.527344 40.230469 63.667969 C 41.289062 62.609375 42.589844 61.308594 43.648438 60.253906 C 44.507812 59.390625 45.757812 59.179688 46.457031 59.875 C 46.457031 59.875 48.027344 61.445312 48.027344 61.445312 C 48.238281 61.660156 48.582031 61.660156 48.796875 61.445312 C 49.007812 61.234375 49.007812 60.890625 48.796875 60.675781 Z M 44.246094 62.085938 C 44.75 62.59375 45.308594 63.152344 45.816406 63.65625 C 46.886719 64.730469 48.839844 64.605469 50.164062 63.28125 C 51.222656 62.222656 52.519531 60.925781 53.578125 59.867188 C 54.902344 58.542969 55.027344 56.589844 53.953125 55.519531 C 53.449219 55.011719 52.890625 54.453125 52.382812 53.949219 C 51.3125 52.875 49.359375 53 48.035156 54.324219 C 47.285156 55.074219 46.414062 55.949219 45.589844 56.769531 C 45.378906 56.980469 45.378906 57.324219 45.589844 57.539062 C 45.804688 57.75 46.148438 57.75 46.359375 57.539062 C 47.183594 56.71875 48.054688 55.84375 48.804688 55.09375 C 49.664062 54.234375 50.917969 54.019531 51.613281 54.71875 C 51.613281 54.71875 53.183594 56.289062 53.183594 56.289062 C 53.882812 56.984375 53.667969 58.238281 52.808594 59.097656 C 51.75 60.15625 50.453125 61.453125 49.394531 62.511719 C 48.535156 63.371094 47.28125 63.585938 46.585938 62.886719 C 46.585938 62.886719 45.015625 61.316406 45.015625 61.316406 C 44.800781 61.105469 44.457031 61.105469 44.246094 61.316406 C 44.03125 61.53125 44.03125 61.875 44.246094 62.085938 Z M 44.246094 62.085938 " fill-opacity="1" fill-rule="evenodd"/></g><g clip-path="url(#b56324f593)"><path fill="#e7b67c" d="M 253.886719 77.714844 C 253.378906 77.207031 252.820312 76.648438 252.316406 76.140625 C 251.242188 75.070312 249.292969 75.195312 247.96875 76.519531 C 246.910156 77.578125 245.613281 78.875 244.554688 79.933594 C 243.230469 81.257812 243.105469 83.207031 244.175781 84.28125 C 244.683594 84.785156 245.242188 85.34375 245.75 85.851562 C 246.820312 86.921875 248.769531 86.800781 250.09375 85.476562 C 250.847656 84.722656 251.71875 83.851562 252.539062 83.03125 C 252.75 82.820312 252.75 82.472656 252.539062 82.261719 C 252.328125 82.050781 251.980469 82.050781 251.769531 82.261719 C 250.949219 83.082031 250.078125 83.953125 249.324219 84.707031 C 248.464844 85.566406 247.214844 85.777344 246.515625 85.082031 C 246.515625 85.082031 244.945312 83.511719 244.945312 83.511719 C 244.25 82.816406 244.460938 81.5625 245.324219 80.703125 C 246.378906 79.644531 247.679688 78.347656 248.738281 77.289062 C 249.597656 76.425781 250.851562 76.214844 251.546875 76.910156 C 251.546875 76.910156 253.117188 78.480469 253.117188 78.480469 C 253.328125 78.695312 253.675781 78.695312 253.886719 78.480469 C 254.097656 78.269531 254.097656 77.925781 253.886719 77.714844 Z M 249.335938 79.121094 C 249.839844 79.628906 250.398438 80.1875 250.90625 80.691406 C 251.980469 81.765625 253.929688 81.640625 255.253906 80.316406 C 256.3125 79.257812 257.609375 77.960938 258.667969 76.902344 C 259.992188 75.578125 260.117188 73.628906 259.042969 72.554688 C 258.539062 72.050781 257.980469 71.488281 257.472656 70.984375 C 256.402344 69.910156 254.449219 70.035156 253.125 71.359375 C 252.375 72.109375 251.503906 72.984375 250.683594 73.804688 C 250.46875 74.015625 250.46875 74.363281 250.683594 74.574219 C 250.894531 74.785156 251.238281 74.785156 251.453125 74.574219 C 252.273438 73.753906 253.144531 72.878906 253.894531 72.128906 C 254.753906 71.269531 256.007812 71.058594 256.703125 71.753906 C 256.703125 71.753906 258.277344 73.324219 258.277344 73.324219 C 258.972656 74.019531 258.757812 75.273438 257.898438 76.132812 C 256.839844 77.191406 255.542969 78.488281 254.484375 79.546875 C 253.625 80.40625 252.371094 80.621094 251.675781 79.925781 C 251.675781 79.925781 250.105469 78.351562 250.105469 78.351562 C 249.890625 78.140625 249.546875 78.140625 249.335938 78.351562 C 249.125 78.566406 249.125 78.910156 249.335938 79.121094 Z M 249.335938 79.121094 " fill-opacity="1" fill-rule="evenodd"/></g><path fill="#e7b67c" d="M 217.585938 77.714844 C 217.082031 77.207031 216.523438 76.648438 216.015625 76.140625 C 214.945312 75.070312 212.992188 75.195312 211.667969 76.519531 C 210.609375 77.578125 209.3125 78.875 208.253906 79.933594 C 206.929688 81.257812 206.804688 83.207031 207.878906 84.28125 C 208.382812 84.785156 208.941406 85.34375 209.449219 85.851562 C 210.519531 86.921875 212.472656 86.800781 213.796875 85.476562 C 214.546875 84.722656 215.417969 83.851562 216.238281 83.03125 C 216.453125 82.820312 216.453125 82.472656 216.238281 82.261719 C 216.027344 82.050781 215.683594 82.050781 215.472656 82.261719 C 214.648438 83.082031 213.777344 83.953125 213.027344 84.707031 C 212.167969 85.566406 210.914062 85.777344 210.21875 85.082031 C 210.21875 85.082031 208.648438 83.511719 208.648438 83.511719 C 207.949219 82.816406 208.164062 81.5625 209.023438 80.703125 C 210.082031 79.644531 211.378906 78.347656 212.4375 77.289062 C 213.296875 76.425781 214.550781 76.214844 215.246094 76.910156 C 215.246094 76.910156 216.816406 78.480469 216.816406 78.480469 C 217.03125 78.695312 217.375 78.695312 217.585938 78.480469 C 217.800781 78.269531 217.800781 77.925781 217.585938 77.714844 Z M 213.035156 79.121094 C 213.542969 79.628906 214.101562 80.1875 214.605469 80.691406 C 215.679688 81.765625 217.628906 81.640625 218.953125 80.316406 C 220.011719 79.257812 221.3125 77.960938 222.367188 76.902344 C 223.691406 75.578125 223.816406 73.628906 222.746094 72.554688 C 222.238281 72.050781 221.679688 71.488281 221.175781 70.984375 C 220.101562 69.910156 218.152344 70.035156 216.828125 71.359375 C 216.078125 72.109375 215.203125 72.984375 214.382812 73.804688 C 214.171875 74.015625 214.171875 74.363281 214.382812 74.574219 C 214.59375 74.785156 214.941406 74.785156 215.152344 74.574219 C 215.972656 73.753906 216.84375 72.878906 217.597656 72.128906 C 218.457031 71.269531 219.707031 71.058594 220.40625 71.753906 C 220.40625 71.753906 221.976562 73.324219 221.976562 73.324219 C 222.671875 74.019531 222.460938 75.273438 221.597656 76.132812 C 220.542969 77.191406 219.242188 78.488281 218.183594 79.546875 C 217.324219 80.40625 216.074219 80.621094 215.375 79.925781 C 215.375 79.925781 213.804688 78.351562 213.804688 78.351562 C 213.59375 78.140625 213.246094 78.140625 213.035156 78.351562 C 212.824219 78.566406 212.824219 78.910156 213.035156 79.121094 Z M 213.035156 79.121094 " fill-opacity="1" fill-rule="evenodd"/></svg>