<svg xmlns="http://www.w3.org/2000/svg" xmlns:xlink="http://www.w3.org/1999/xlink" width="400" zoomAndPan="magnify" viewBox="0 0 300 149.999998" height="200" preserveAspectRatio="xMidYMid meet" version="1.0"><defs><clipPath id="9568c403e6"><path d="M 72.722656 44.691406 L 227.214844 44.691406 L 227.214844 105.363281 L 72.722656 105.363281 Z M 72.722656 44.691406 " clip-rule="nonzero"/></clipPath><clipPath id="db764e846b"><path d="M 149.996094 44.691406 C 107.320312 44.691406 72.722656 58.257812 72.722656 74.996094 C 72.722656 91.730469 107.320312 105.300781 149.996094 105.300781 C 192.671875 105.300781 227.265625 91.730469 227.265625 74.996094 C 227.265625 58.257812 192.671875 44.691406 149.996094 44.691406 Z M 149.996094 44.691406 " clip-rule="nonzero"/></clipPath><clipPath id="0d46aab2a9"><path d="M 138.347656 59.253906 L 161.597656 59.253906 L 161.597656 90.753906 L 138.347656 90.753906 Z M 138.347656 59.253906 " clip-rule="nonzero"/></clipPath><clipPath id="922f0468f6"><path d="M 131.296875 49.085938 L 141.796875 49.085938 L 141.796875 59.585938 L 131.296875 59.585938 Z M 131.296875 49.085938 " clip-rule="nonzero"/></clipPath><clipPath id="6f6ca51d06"><path d="M 177 56.722656 L 187 56.722656 L 187 67 L 177 67 Z M 177 56.722656 " clip-rule="nonzero"/></clipPath><clipPath id="509fb42d50"><path d="M 113.226562 56 L 123.726562 56 L 123.726562 66 L 113.226562 66 Z M 113.226562 56 " clip-rule="nonzero"/></clipPath><clipPath id="e78a7ce694"><path d="M 159.28125 56.722656 L 169.78125 56.722656 L 169.78125 67 L 159.28125 67 Z M 159.28125 56.722656 " clip-rule="nonzero"/></clipPath><clipPath id="2990d984c5"><path d="M 99.339844 70 L 109.839844 70 L 109.839844 80 L 99.339844 80 Z M 99.339844 70 " clip-rule="nonzero"/></clipPath><clipPath id="cf42b4f034"><path d="M 108.140625 80.578125 L 118.640625 80.578125 L 118.640625 91 L 108.140625 91 Z M 108.140625 80.578125 " clip-rule="nonzero"/></clipPath><clipPath id="b72510db43"><path d="M 126.214844 66.078125 L 136.714844 66.078125 L 136.714844 76.578125 L 126.214844 76.578125 Z M 126.214844 66.078125 " clip-rule="nonzero"/></clipPath><clipPath id="d11b44ff95"><path d="M 169.449219 75 L 179.949219 75 L 179.949219 85 L 169.449219 85 Z M 169.449219 75 " clip-rule="nonzero"/></clipPath><clipPath id="c0fb32592d"><path d="M 197.402344 62 L 207.902344 62 L 207.902344 72 L 197.402344 72 Z M 197.402344 62 " clip-rule="nonzero"/></clipPath><clipPath id="4a0f07cd27"><path d="M 182 86.527344 L 192 86.527344 L 192 97 L 182 97 Z M 182 86.527344 " clip-rule="nonzero"/></clipPath><clipPath id="d708c1faf4"><path d="M 83.171875 62 L 93.671875 62 L 93.671875 72 L 83.171875 72 Z M 83.171875 62 " clip-rule="nonzero"/></clipPath><clipPath id="a164624ad5"><path d="M 205.582031 72 L 216 72 L 216 82 L 205.582031 82 Z M 205.582031 72 " clip-rule="nonzero"/></clipPath></defs><g clip-path="url(#9568c403e6)"><g clip-path="url(#db764e846b)"><path fill="#e7b67c" d="M 139.480469 46.472656 C 136.472656 46.632812 133.503906 46.863281 130.570312 47.164062 L 130.265625 44.179688 C 133.246094 43.875 136.261719 43.640625 139.320312 43.476562 Z M 129.070312 47.324219 C 126.101562 47.652344 123.195312 48.050781 120.347656 48.519531 L 119.859375 45.5625 C 122.757812 45.082031 125.71875 44.675781 128.742188 44.34375 Z M 118.835938 48.777344 C 115.808594 49.308594 112.878906 49.910156 110.050781 50.589844 L 109.351562 47.671875 C 112.242188 46.980469 115.230469 46.363281 118.320312 45.824219 Z M 108.65625 50.933594 C 105.628906 51.695312 102.753906 52.539062 100.027344 53.460938 L 99.066406 50.617188 C 101.867188 49.671875 104.820312 48.804688 107.921875 48.023438 Z M 98.660156 53.933594 C 95.691406 54.988281 92.957031 56.125 90.449219 57.34375 L 89.136719 54.644531 C 91.742188 53.378906 94.582031 52.199219 97.65625 51.105469 Z M 89.164062 57.988281 C 86.371094 59.425781 83.945312 60.945312 81.886719 62.546875 L 80.046875 60.175781 C 82.25 58.460938 84.832031 56.84375 87.792969 55.320312 Z M 80.773438 63.449219 C 78.332031 65.523438 76.570312 67.65625 75.484375 69.855469 L 72.792969 68.527344 C 74.0625 65.957031 76.074219 63.503906 78.828125 61.164062 Z M 74.941406 71.105469 C 74.460938 72.394531 74.222656 73.691406 74.222656 74.996094 C 74.222656 76.289062 74.457031 77.574219 74.929688 78.847656 L 72.113281 79.886719 C 71.519531 78.273438 71.222656 76.644531 71.222656 74.996094 C 71.222656 73.332031 71.523438 71.6875 72.128906 70.058594 Z M 75.464844 80.097656 C 76.546875 82.300781 78.304688 84.4375 80.742188 86.515625 L 78.796875 88.796875 C 76.042969 86.453125 74.035156 83.996094 72.773438 81.421875 Z M 81.855469 87.417969 C 83.910156 89.023438 86.335938 90.542969 89.128906 91.984375 L 87.753906 94.652344 C 84.796875 93.125 82.214844 91.503906 80.011719 89.785156 Z M 90.414062 92.628906 C 92.917969 93.851562 95.65625 94.988281 98.625 96.042969 L 97.617188 98.871094 C 94.542969 97.777344 91.703125 96.597656 89.097656 95.324219 Z M 99.988281 96.515625 C 102.714844 97.441406 105.589844 98.285156 108.617188 99.046875 L 107.882812 101.957031 C 104.777344 101.171875 101.828125 100.308594 99.027344 99.359375 Z M 110.011719 99.390625 C 112.839844 100.070312 115.765625 100.675781 118.792969 101.207031 L 118.277344 104.160156 C 115.1875 103.621094 112.199219 103.003906 109.308594 102.308594 Z M 120.308594 101.460938 C 123.152344 101.933594 126.0625 102.332031 129.03125 102.660156 L 128.699219 105.644531 C 125.675781 105.308594 122.71875 104.902344 119.820312 104.421875 Z M 130.527344 102.824219 C 133.460938 103.125 136.429688 103.355469 139.441406 103.515625 L 139.277344 106.511719 C 136.21875 106.347656 133.203125 106.113281 130.222656 105.808594 Z M 140.917969 103.589844 C 143.910156 103.730469 146.921875 103.800781 149.953125 103.800781 L 149.953125 106.800781 C 146.875 106.800781 143.816406 106.730469 140.777344 106.589844 Z M 151.476562 103.792969 C 154.496094 103.773438 157.492188 103.679688 160.46875 103.523438 L 160.628906 106.519531 C 157.609375 106.679688 154.566406 106.773438 151.5 106.792969 Z M 161.9375 103.4375 C 164.957031 103.253906 167.9375 102.996094 170.875 102.671875 L 171.207031 105.652344 C 168.21875 105.984375 165.191406 106.242188 162.121094 106.433594 Z M 172.363281 102.5 C 175.347656 102.144531 178.261719 101.71875 181.113281 101.21875 L 181.628906 104.175781 C 178.726562 104.683594 175.753906 105.117188 172.71875 105.480469 Z M 182.625 100.949219 C 185.617188 100.394531 188.507812 99.769531 191.296875 99.066406 L 192.027344 101.976562 C 189.175781 102.691406 186.222656 103.335938 183.167969 103.898438 Z M 192.671875 98.710938 C 195.703125 97.914062 198.578125 97.03125 201.289062 96.070312 L 202.292969 98.898438 C 199.503906 99.886719 196.550781 100.792969 193.433594 101.613281 Z M 202.628906 95.585938 C 205.597656 94.480469 208.316406 93.292969 210.789062 92.023438 L 212.160156 94.691406 C 209.582031 96.015625 206.753906 97.25 203.671875 98.398438 Z M 212.027344 91.367188 C 214.816406 89.847656 217.203125 88.246094 219.1875 86.566406 L 221.128906 88.855469 C 218.988281 90.667969 216.429688 92.382812 213.464844 94 Z M 220.226562 85.644531 C 222.570312 83.460938 224.171875 81.21875 225.035156 78.917969 L 227.84375 79.972656 C 226.816406 82.714844 224.957031 85.335938 222.273438 87.839844 Z M 225.429688 77.664062 C 225.65625 76.777344 225.765625 75.890625 225.765625 74.996094 C 225.765625 73.292969 225.359375 71.601562 224.542969 69.925781 L 227.238281 68.613281 C 228.257812 70.703125 228.765625 72.832031 228.765625 74.996094 C 228.765625 76.140625 228.625 77.273438 228.335938 78.402344 Z M 223.898438 68.746094 C 222.613281 66.625 220.703125 64.578125 218.167969 62.597656 L 220.015625 60.230469 C 222.839844 62.4375 224.988281 64.757812 226.464844 67.191406 Z M 216.984375 61.707031 C 214.863281 60.1875 212.40625 58.742188 209.613281 57.378906 L 210.929688 54.683594 C 213.875 56.121094 216.472656 57.648438 218.734375 59.273438 Z M 208.285156 56.75 C 205.753906 55.578125 203.003906 54.492188 200.039062 53.488281 L 201.003906 50.644531 C 204.066406 51.683594 206.914062 52.8125 209.542969 54.023438 Z M 198.644531 53.023438 C 195.910156 52.140625 193.035156 51.335938 190.019531 50.609375 L 190.71875 47.691406 C 193.8125 48.4375 196.761719 49.261719 199.566406 50.171875 Z M 188.605469 50.277344 C 185.738281 49.621094 182.777344 49.039062 179.722656 48.535156 L 180.210938 45.574219 C 183.328125 46.089844 186.347656 46.683594 189.273438 47.351562 Z M 178.304688 48.304688 C 175.429688 47.859375 172.496094 47.480469 169.503906 47.171875 L 169.8125 44.1875 C 172.855469 44.5 175.839844 44.886719 178.765625 45.34375 Z M 167.992188 47.023438 C 165.070312 46.746094 162.109375 46.539062 159.113281 46.402344 L 159.253906 43.402344 C 162.296875 43.546875 165.304688 43.757812 168.273438 44.035156 Z M 157.628906 46.335938 C 155.097656 46.238281 152.554688 46.191406 149.996094 46.191406 C 146.960938 46.191406 143.949219 46.257812 140.957031 46.398438 L 140.820312 43.398438 C 143.859375 43.261719 146.917969 43.191406 149.996094 43.191406 C 152.59375 43.191406 155.175781 43.242188 157.746094 43.339844 Z M 157.628906 46.335938 " fill-opacity="1" fill-rule="nonzero"/></g></g><g clip-path="url(#0d46aab2a9)"><path fill="#e7b67c" d="M 158.753906 72.183594 L 158.753906 68.015625 C 158.753906 63.175781 154.820312 59.242188 149.984375 59.242188 C 145.148438 59.242188 141.210938 63.175781 141.210938 68.015625 L 141.210938 72.183594 C 139.574219 72.667969 138.371094 74.183594 138.371094 75.980469 L 138.371094 86.769531 C 138.371094 88.953125 140.148438 90.730469 142.328125 90.730469 L 157.636719 90.730469 C 159.820312 90.730469 161.597656 88.953125 161.597656 86.769531 L 161.597656 75.980469 C 161.597656 74.183594 160.394531 72.667969 158.753906 72.183594 Z M 149.984375 61.222656 C 153.730469 61.222656 156.777344 64.269531 156.777344 68.015625 L 156.777344 72.023438 L 143.191406 72.023438 L 143.191406 68.015625 C 143.191406 64.269531 146.238281 61.222656 149.984375 61.222656 Z M 159.617188 86.769531 C 159.617188 87.863281 158.730469 88.75 157.636719 88.75 L 142.328125 88.75 C 141.238281 88.75 140.351562 87.863281 140.351562 86.769531 L 140.351562 75.980469 C 140.351562 75.078125 140.953125 74.320312 141.777344 74.082031 L 158.191406 74.082031 C 159.011719 74.320312 159.617188 75.078125 159.617188 75.980469 Z M 159.617188 86.769531 " fill-opacity="1" fill-rule="nonzero"/></g><path fill="#e7b67c" d="M 152.046875 80.363281 C 152.046875 79.222656 151.121094 78.300781 149.984375 78.300781 C 148.84375 78.300781 147.921875 79.222656 147.921875 80.363281 C 147.921875 81.144531 148.355469 81.820312 148.996094 82.171875 L 148.996094 84.097656 C 148.996094 84.644531 149.4375 85.085938 149.984375 85.085938 C 150.53125 85.085938 150.972656 84.644531 150.972656 84.097656 L 150.972656 82.171875 C 151.613281 81.820312 152.046875 81.144531 152.046875 80.363281 Z M 152.046875 80.363281 " fill-opacity="1" fill-rule="nonzero"/><g clip-path="url(#922f0468f6)"><path fill="#e7b67c" d="M 137.71875 53.730469 C 137.417969 53.425781 137.082031 53.09375 136.78125 52.792969 C 136.140625 52.152344 134.976562 52.226562 134.1875 53.015625 C 133.554688 53.648438 132.78125 54.421875 132.148438 55.054688 C 131.359375 55.84375 131.285156 57.007812 131.925781 57.648438 C 132.226562 57.949219 132.5625 58.285156 132.863281 58.585938 C 133.503906 59.226562 134.667969 59.152344 135.457031 58.359375 C 135.90625 57.914062 136.425781 57.390625 136.914062 56.902344 C 137.042969 56.777344 137.042969 56.570312 136.914062 56.441406 C 136.789062 56.316406 136.582031 56.316406 136.457031 56.441406 C 135.964844 56.933594 135.445312 57.453125 135 57.902344 C 134.484375 58.414062 133.738281 58.542969 133.320312 58.125 C 133.320312 58.125 132.382812 57.1875 132.382812 57.1875 C 131.96875 56.773438 132.097656 56.027344 132.609375 55.511719 C 133.242188 54.882812 134.015625 54.105469 134.648438 53.476562 C 135.160156 52.960938 135.90625 52.835938 136.324219 53.25 C 136.324219 53.25 137.261719 54.1875 137.261719 54.1875 C 137.386719 54.316406 137.59375 54.316406 137.71875 54.1875 C 137.847656 54.0625 137.847656 53.855469 137.71875 53.730469 Z M 135.003906 54.570312 C 135.304688 54.871094 135.640625 55.207031 135.941406 55.507812 C 136.582031 56.148438 137.746094 56.074219 138.535156 55.28125 C 139.167969 54.652344 139.941406 53.875 140.574219 53.246094 C 141.363281 52.453125 141.4375 51.289062 140.796875 50.652344 C 140.496094 50.347656 140.160156 50.015625 139.859375 49.714844 C 139.21875 49.074219 138.054688 49.148438 137.265625 49.9375 C 136.816406 50.386719 136.296875 50.90625 135.808594 51.398438 C 135.679688 51.523438 135.679688 51.730469 135.808594 51.855469 C 135.933594 51.984375 136.140625 51.984375 136.265625 51.855469 C 136.757812 51.367188 137.277344 50.84375 137.726562 50.398438 C 138.238281 49.882812 138.984375 49.757812 139.402344 50.171875 C 139.402344 50.171875 140.339844 51.109375 140.339844 51.109375 C 140.753906 51.527344 140.625 52.273438 140.113281 52.785156 C 139.480469 53.417969 138.707031 54.191406 138.074219 54.824219 C 137.5625 55.335938 136.816406 55.464844 136.398438 55.046875 C 136.398438 55.046875 135.460938 54.109375 135.460938 54.109375 C 135.335938 53.984375 135.128906 53.984375 135.003906 54.109375 C 134.878906 54.238281 134.878906 54.441406 135.003906 54.570312 Z M 135.003906 54.570312 " fill-opacity="1" fill-rule="evenodd"/></g><g clip-path="url(#6f6ca51d06)"><path fill="#e7b67c" d="M 183.238281 61.367188 C 182.9375 61.0625 182.605469 60.730469 182.300781 60.429688 C 181.664062 59.789062 180.5 59.863281 179.707031 60.652344 C 179.078125 61.285156 178.300781 62.058594 177.671875 62.691406 C 176.878906 63.480469 176.808594 64.644531 177.445312 65.285156 C 177.75 65.585938 178.082031 65.921875 178.382812 66.222656 C 179.023438 66.863281 180.1875 66.789062 180.976562 65.996094 C 181.425781 65.550781 181.945312 65.03125 182.4375 64.539062 C 182.5625 64.414062 182.5625 64.207031 182.4375 64.082031 C 182.308594 63.953125 182.105469 63.953125 181.976562 64.082031 C 181.488281 64.570312 180.96875 65.089844 180.519531 65.539062 C 180.003906 66.050781 179.257812 66.179688 178.84375 65.761719 C 178.84375 65.761719 177.90625 64.824219 177.90625 64.824219 C 177.488281 64.410156 177.617188 63.664062 178.128906 63.148438 C 178.761719 62.519531 179.535156 61.742188 180.167969 61.113281 C 180.679688 60.597656 181.429688 60.472656 181.84375 60.886719 C 181.84375 60.886719 182.78125 61.824219 182.78125 61.824219 C 182.90625 61.953125 183.113281 61.953125 183.238281 61.824219 C 183.367188 61.699219 183.367188 61.492188 183.238281 61.367188 Z M 180.523438 62.207031 C 180.828125 62.507812 181.160156 62.84375 181.460938 63.144531 C 182.101562 63.785156 183.265625 63.710938 184.054688 62.917969 C 184.6875 62.289062 185.460938 61.511719 186.09375 60.882812 C 186.882812 60.089844 186.957031 58.929688 186.316406 58.289062 C 186.015625 57.988281 185.683594 57.652344 185.378906 57.351562 C 184.742188 56.710938 183.578125 56.785156 182.785156 57.574219 C 182.339844 58.023438 181.816406 58.542969 181.328125 59.035156 C 181.203125 59.160156 181.203125 59.367188 181.328125 59.492188 C 181.453125 59.621094 181.660156 59.621094 181.789062 59.492188 C 182.277344 59.003906 182.796875 58.480469 183.246094 58.035156 C 183.757812 57.519531 184.507812 57.394531 184.921875 57.808594 C 184.921875 57.808594 185.859375 58.746094 185.859375 58.746094 C 186.273438 59.164062 186.148438 59.910156 185.632812 60.421875 C 185.003906 61.054688 184.226562 61.828125 183.597656 62.460938 C 183.082031 62.972656 182.335938 63.101562 181.921875 62.683594 C 181.921875 62.683594 180.984375 61.746094 180.984375 61.746094 C 180.855469 61.621094 180.652344 61.621094 180.523438 61.746094 C 180.398438 61.875 180.398438 62.082031 180.523438 62.207031 Z M 180.523438 62.207031 " fill-opacity="1" fill-rule="evenodd"/></g><g clip-path="url(#509fb42d50)"><path fill="#e7b67c" d="M 119.648438 60.550781 C 119.347656 60.25 119.011719 59.917969 118.710938 59.613281 C 118.070312 58.976562 116.90625 59.050781 116.117188 59.839844 C 115.484375 60.46875 114.710938 61.246094 114.078125 61.875 C 113.289062 62.667969 113.214844 63.832031 113.855469 64.472656 C 114.15625 64.773438 114.488281 65.105469 114.792969 65.40625 C 115.433594 66.046875 116.59375 65.972656 117.386719 65.183594 C 117.835938 64.734375 118.355469 64.214844 118.84375 63.726562 C 118.972656 63.597656 118.972656 63.394531 118.84375 63.265625 C 118.71875 63.140625 118.511719 63.140625 118.386719 63.265625 C 117.894531 63.757812 117.375 64.277344 116.925781 64.722656 C 116.414062 65.238281 115.667969 65.363281 115.25 64.949219 C 115.25 64.949219 114.3125 64.011719 114.3125 64.011719 C 113.898438 63.597656 114.023438 62.847656 114.539062 62.335938 C 115.167969 61.703125 115.945312 60.929688 116.574219 60.296875 C 117.089844 59.785156 117.835938 59.65625 118.25 60.074219 C 118.25 60.074219 119.1875 61.011719 119.1875 61.011719 C 119.316406 61.136719 119.523438 61.136719 119.648438 61.011719 C 119.773438 60.882812 119.773438 60.679688 119.648438 60.550781 Z M 116.933594 61.394531 C 117.234375 61.695312 117.566406 62.027344 117.871094 62.332031 C 118.511719 62.96875 119.675781 62.894531 120.464844 62.105469 C 121.09375 61.472656 121.871094 60.699219 122.5 60.066406 C 123.292969 59.277344 123.367188 58.113281 122.726562 57.472656 C 122.425781 57.171875 122.089844 56.839844 121.789062 56.535156 C 121.148438 55.898438 119.984375 55.972656 119.195312 56.761719 C 118.746094 57.210938 118.226562 57.730469 117.734375 58.21875 C 117.609375 58.347656 117.609375 58.550781 117.734375 58.679688 C 117.863281 58.804688 118.070312 58.804688 118.195312 58.679688 C 118.683594 58.1875 119.207031 57.667969 119.652344 57.21875 C 120.167969 56.707031 120.914062 56.582031 121.328125 56.996094 C 121.328125 56.996094 122.265625 57.933594 122.265625 57.933594 C 122.683594 58.347656 122.554688 59.097656 122.042969 59.609375 C 121.410156 60.238281 120.636719 61.015625 120.003906 61.644531 C 119.492188 62.160156 118.746094 62.285156 118.328125 61.871094 C 118.328125 61.871094 117.390625 60.933594 117.390625 60.933594 C 117.265625 60.808594 117.058594 60.808594 116.933594 60.933594 C 116.804688 61.058594 116.804688 61.265625 116.933594 61.394531 Z M 116.933594 61.394531 " fill-opacity="1" fill-rule="evenodd"/></g><g clip-path="url(#e78a7ce694)"><path fill="#e7b67c" d="M 165.703125 61.367188 C 165.398438 61.0625 165.066406 60.730469 164.765625 60.429688 C 164.125 59.789062 162.960938 59.863281 162.171875 60.652344 C 161.539062 61.285156 160.765625 62.058594 160.132812 62.691406 C 159.34375 63.480469 159.269531 64.644531 159.910156 65.285156 C 160.210938 65.585938 160.542969 65.921875 160.847656 66.222656 C 161.484375 66.863281 162.648438 66.789062 163.441406 65.996094 C 163.886719 65.550781 164.40625 65.03125 164.898438 64.539062 C 165.023438 64.414062 165.023438 64.207031 164.898438 64.082031 C 164.773438 63.953125 164.566406 63.953125 164.4375 64.082031 C 163.949219 64.570312 163.429688 65.089844 162.980469 65.539062 C 162.46875 66.050781 161.71875 66.179688 161.304688 65.761719 C 161.304688 65.761719 160.367188 64.824219 160.367188 64.824219 C 159.953125 64.410156 160.078125 63.664062 160.59375 63.148438 C 161.222656 62.519531 162 61.742188 162.628906 61.113281 C 163.144531 60.597656 163.890625 60.472656 164.304688 60.886719 C 164.304688 60.886719 165.242188 61.824219 165.242188 61.824219 C 165.371094 61.953125 165.574219 61.953125 165.703125 61.824219 C 165.828125 61.699219 165.828125 61.492188 165.703125 61.367188 Z M 162.984375 62.207031 C 163.289062 62.507812 163.621094 62.84375 163.921875 63.144531 C 164.5625 63.785156 165.726562 63.710938 166.519531 62.917969 C 167.148438 62.289062 167.925781 61.511719 168.554688 60.882812 C 169.34375 60.089844 169.417969 58.929688 168.78125 58.289062 C 168.476562 57.988281 168.144531 57.652344 167.84375 57.351562 C 167.203125 56.710938 166.039062 56.785156 165.25 57.574219 C 164.800781 58.023438 164.28125 58.542969 163.789062 59.035156 C 163.664062 59.160156 163.664062 59.367188 163.789062 59.492188 C 163.917969 59.621094 164.121094 59.621094 164.25 59.492188 C 164.738281 59.003906 165.257812 58.480469 165.707031 58.035156 C 166.21875 57.519531 166.96875 57.394531 167.382812 57.808594 C 167.382812 57.808594 168.320312 58.746094 168.320312 58.746094 C 168.738281 59.164062 168.609375 59.910156 168.097656 60.421875 C 167.464844 61.054688 166.691406 61.828125 166.058594 62.460938 C 165.546875 62.972656 164.796875 63.101562 164.382812 62.683594 C 164.382812 62.683594 163.445312 61.746094 163.445312 61.746094 C 163.320312 61.621094 163.113281 61.621094 162.984375 61.746094 C 162.859375 61.875 162.859375 62.082031 162.984375 62.207031 Z M 162.984375 62.207031 " fill-opacity="1" fill-rule="evenodd"/></g><g clip-path="url(#2990d984c5)"><path fill="#e7b67c" d="M 105.761719 74.558594 C 105.460938 74.257812 105.125 73.925781 104.824219 73.621094 C 104.183594 72.980469 103.019531 73.054688 102.230469 73.847656 C 101.597656 74.476562 100.824219 75.253906 100.191406 75.882812 C 99.402344 76.675781 99.328125 77.839844 99.96875 78.476562 C 100.269531 78.78125 100.601562 79.113281 100.90625 79.414062 C 101.542969 80.054688 102.707031 79.980469 103.5 79.191406 C 103.945312 78.742188 104.46875 78.222656 104.957031 77.734375 C 105.085938 77.605469 105.085938 77.398438 104.957031 77.273438 C 104.832031 77.148438 104.625 77.148438 104.5 77.273438 C 104.007812 77.761719 103.488281 78.285156 103.039062 78.730469 C 102.527344 79.246094 101.78125 79.371094 101.363281 78.957031 C 101.363281 78.957031 100.425781 78.019531 100.425781 78.019531 C 100.011719 77.605469 100.136719 76.855469 100.652344 76.34375 C 101.28125 75.710938 102.058594 74.9375 102.6875 74.304688 C 103.203125 73.792969 103.949219 73.664062 104.363281 74.082031 C 104.363281 74.082031 105.300781 75.019531 105.300781 75.019531 C 105.429688 75.144531 105.632812 75.144531 105.761719 75.019531 C 105.886719 74.890625 105.886719 74.6875 105.761719 74.558594 Z M 103.046875 75.398438 C 103.347656 75.703125 103.679688 76.035156 103.984375 76.335938 C 104.621094 76.976562 105.785156 76.902344 106.578125 76.113281 C 107.207031 75.480469 107.984375 74.707031 108.613281 74.074219 C 109.40625 73.285156 109.480469 72.121094 108.839844 71.480469 C 108.539062 71.179688 108.203125 70.847656 107.902344 70.542969 C 107.261719 69.90625 106.097656 69.976562 105.308594 70.769531 C 104.859375 71.214844 104.339844 71.738281 103.847656 72.226562 C 103.722656 72.355469 103.722656 72.558594 103.847656 72.6875 C 103.976562 72.8125 104.179688 72.8125 104.308594 72.6875 C 104.796875 72.195312 105.320312 71.675781 105.765625 71.226562 C 106.28125 70.714844 107.027344 70.585938 107.441406 71.003906 C 107.441406 71.003906 108.378906 71.941406 108.378906 71.941406 C 108.796875 72.355469 108.667969 73.101562 108.15625 73.617188 C 107.523438 74.246094 106.75 75.023438 106.117188 75.652344 C 105.605469 76.167969 104.859375 76.292969 104.441406 75.878906 C 104.441406 75.878906 103.503906 74.941406 103.503906 74.941406 C 103.378906 74.816406 103.171875 74.816406 103.046875 74.941406 C 102.917969 75.066406 102.917969 75.273438 103.046875 75.398438 Z M 103.046875 75.398438 " fill-opacity="1" fill-rule="evenodd"/></g><g clip-path="url(#cf42b4f034)"><path fill="#e7b67c" d="M 114.5625 85.222656 C 114.261719 84.921875 113.929688 84.585938 113.625 84.285156 C 112.988281 83.644531 111.824219 83.71875 111.03125 84.507812 C 110.402344 85.140625 109.625 85.914062 108.996094 86.546875 C 108.203125 87.335938 108.132812 88.5 108.769531 89.140625 C 109.074219 89.441406 109.40625 89.777344 109.707031 90.078125 C 110.347656 90.71875 111.511719 90.644531 112.300781 89.851562 C 112.75 89.40625 113.269531 88.886719 113.761719 88.394531 C 113.886719 88.269531 113.886719 88.0625 113.761719 87.9375 C 113.632812 87.808594 113.429688 87.808594 113.300781 87.9375 C 112.8125 88.425781 112.289062 88.945312 111.84375 89.394531 C 111.328125 89.90625 110.582031 90.035156 110.167969 89.617188 C 110.167969 89.617188 109.230469 88.679688 109.230469 88.679688 C 108.8125 88.265625 108.941406 87.519531 109.453125 87.003906 C 110.085938 86.375 110.859375 85.597656 111.492188 84.96875 C 112.003906 84.453125 112.753906 84.328125 113.167969 84.742188 C 113.167969 84.742188 114.105469 85.679688 114.105469 85.679688 C 114.230469 85.808594 114.4375 85.808594 114.5625 85.679688 C 114.691406 85.554688 114.691406 85.347656 114.5625 85.222656 Z M 111.847656 86.0625 C 112.152344 86.363281 112.484375 86.699219 112.785156 87 C 113.425781 87.640625 114.589844 87.566406 115.378906 86.777344 C 116.011719 86.144531 116.785156 85.371094 117.417969 84.738281 C 118.207031 83.949219 118.28125 82.785156 117.640625 82.144531 C 117.339844 81.84375 117.007812 81.507812 116.703125 81.207031 C 116.066406 80.566406 114.902344 80.640625 114.109375 81.429688 C 113.664062 81.878906 113.140625 82.398438 112.652344 82.890625 C 112.527344 83.015625 112.527344 83.222656 112.652344 83.347656 C 112.777344 83.476562 112.984375 83.476562 113.109375 83.347656 C 113.601562 82.859375 114.121094 82.339844 114.570312 81.890625 C 115.082031 81.378906 115.832031 81.25 116.246094 81.664062 C 116.246094 81.664062 117.183594 82.601562 117.183594 82.601562 C 117.597656 83.019531 117.472656 83.765625 116.957031 84.277344 C 116.328125 84.910156 115.550781 85.683594 114.921875 86.316406 C 114.40625 86.828125 113.660156 86.957031 113.246094 86.542969 C 113.246094 86.542969 112.308594 85.605469 112.308594 85.605469 C 112.179688 85.476562 111.976562 85.476562 111.847656 85.605469 C 111.722656 85.730469 111.722656 85.9375 111.847656 86.0625 Z M 111.847656 86.0625 " fill-opacity="1" fill-rule="evenodd"/></g><g clip-path="url(#b72510db43)"><path fill="#e7b67c" d="M 132.636719 70.71875 C 132.332031 70.417969 132 70.085938 131.699219 69.78125 C 131.058594 69.144531 129.894531 69.21875 129.105469 70.007812 C 128.472656 70.636719 127.699219 71.414062 127.066406 72.042969 C 126.277344 72.835938 126.203125 74 126.839844 74.640625 C 127.144531 74.941406 127.476562 75.273438 127.777344 75.574219 C 128.417969 76.214844 129.582031 76.140625 130.375 75.351562 C 130.820312 74.902344 131.339844 74.382812 131.832031 73.894531 C 131.957031 73.765625 131.957031 73.5625 131.832031 73.433594 C 131.703125 73.308594 131.5 73.308594 131.371094 73.433594 C 130.882812 73.925781 130.363281 74.445312 129.914062 74.890625 C 129.402344 75.40625 128.652344 75.53125 128.238281 75.117188 C 128.238281 75.117188 127.300781 74.179688 127.300781 74.179688 C 126.886719 73.765625 127.011719 73.015625 127.523438 72.503906 C 128.15625 71.871094 128.929688 71.097656 129.5625 70.464844 C 130.074219 69.953125 130.824219 69.824219 131.238281 70.242188 C 131.238281 70.242188 132.175781 71.179688 132.175781 71.179688 C 132.304688 71.304688 132.507812 71.304688 132.636719 71.179688 C 132.761719 71.050781 132.761719 70.847656 132.636719 70.71875 Z M 129.917969 71.5625 C 130.222656 71.863281 130.554688 72.195312 130.855469 72.5 C 131.496094 73.136719 132.660156 73.0625 133.449219 72.273438 C 134.082031 71.640625 134.855469 70.867188 135.488281 70.234375 C 136.277344 69.445312 136.351562 68.28125 135.714844 67.640625 C 135.410156 67.339844 135.078125 67.007812 134.777344 66.703125 C 134.136719 66.066406 132.972656 66.140625 132.183594 66.929688 C 131.734375 67.378906 131.214844 67.898438 130.722656 68.386719 C 130.597656 68.515625 130.597656 68.71875 130.722656 68.847656 C 130.851562 68.972656 131.054688 68.972656 131.183594 68.847656 C 131.671875 68.355469 132.191406 67.835938 132.640625 67.386719 C 133.152344 66.875 133.902344 66.75 134.316406 67.164062 C 134.316406 67.164062 135.253906 68.101562 135.253906 68.101562 C 135.667969 68.515625 135.542969 69.265625 135.03125 69.777344 C 134.398438 70.40625 133.625 71.183594 132.992188 71.8125 C 132.480469 72.328125 131.730469 72.453125 131.316406 72.039062 C 131.316406 72.039062 130.378906 71.101562 130.378906 71.101562 C 130.253906 70.976562 130.046875 70.976562 129.917969 71.101562 C 129.792969 71.226562 129.792969 71.433594 129.917969 71.5625 Z M 129.917969 71.5625 " fill-opacity="1" fill-rule="evenodd"/></g><g clip-path="url(#d11b44ff95)"><path fill="#e7b67c" d="M 175.871094 79.644531 C 175.566406 79.339844 175.234375 79.007812 174.933594 78.707031 C 174.292969 78.066406 173.128906 78.140625 172.339844 78.929688 C 171.707031 79.5625 170.933594 80.335938 170.300781 80.96875 C 169.511719 81.757812 169.4375 82.921875 170.078125 83.5625 C 170.378906 83.863281 170.710938 84.199219 171.015625 84.5 C 171.652344 85.140625 172.816406 85.066406 173.609375 84.273438 C 174.054688 83.828125 174.574219 83.308594 175.066406 82.816406 C 175.191406 82.691406 175.191406 82.484375 175.066406 82.359375 C 174.941406 82.230469 174.734375 82.230469 174.605469 82.359375 C 174.117188 82.847656 173.597656 83.367188 173.148438 83.816406 C 172.636719 84.328125 171.886719 84.457031 171.472656 84.039062 C 171.472656 84.039062 170.535156 83.101562 170.535156 83.101562 C 170.121094 82.6875 170.246094 81.941406 170.761719 81.425781 C 171.390625 80.796875 172.167969 80.019531 172.796875 79.390625 C 173.3125 78.875 174.058594 78.75 174.472656 79.164062 C 174.472656 79.164062 175.410156 80.101562 175.410156 80.101562 C 175.539062 80.230469 175.742188 80.230469 175.871094 80.101562 C 175.996094 79.976562 175.996094 79.769531 175.871094 79.644531 Z M 173.152344 80.484375 C 173.457031 80.785156 173.789062 81.121094 174.089844 81.421875 C 174.730469 82.0625 175.894531 81.988281 176.6875 81.195312 C 177.316406 80.566406 178.09375 79.789062 178.722656 79.160156 C 179.511719 78.367188 179.585938 77.207031 178.949219 76.566406 C 178.644531 76.265625 178.3125 75.929688 178.011719 75.628906 C 177.371094 74.988281 176.207031 75.0625 175.417969 75.851562 C 174.96875 76.300781 174.449219 76.820312 173.957031 77.3125 C 173.832031 77.4375 173.832031 77.644531 173.957031 77.769531 C 174.085938 77.898438 174.289062 77.898438 174.417969 77.769531 C 174.90625 77.28125 175.425781 76.757812 175.875 76.3125 C 176.386719 75.796875 177.136719 75.671875 177.550781 76.085938 C 177.550781 76.085938 178.488281 77.023438 178.488281 77.023438 C 178.90625 77.441406 178.777344 78.1875 178.265625 78.699219 C 177.632812 79.332031 176.859375 80.105469 176.226562 80.738281 C 175.714844 81.25 174.964844 81.378906 174.550781 80.960938 C 174.550781 80.960938 173.613281 80.023438 173.613281 80.023438 C 173.488281 79.898438 173.28125 79.898438 173.152344 80.023438 C 173.027344 80.152344 173.027344 80.359375 173.152344 80.484375 Z M 173.152344 80.484375 " fill-opacity="1" fill-rule="evenodd"/></g><g clip-path="url(#c0fb32592d)"><path fill="#e7b67c" d="M 203.824219 66.449219 C 203.519531 66.148438 203.1875 65.816406 202.886719 65.511719 C 202.246094 64.871094 201.082031 64.945312 200.292969 65.738281 C 199.660156 66.367188 198.886719 67.144531 198.253906 67.773438 C 197.464844 68.566406 197.390625 69.730469 198.027344 70.367188 C 198.332031 70.671875 198.664062 71.003906 198.964844 71.304688 C 199.605469 71.945312 200.769531 71.871094 201.5625 71.082031 C 202.007812 70.632812 202.527344 70.113281 203.019531 69.625 C 203.144531 69.496094 203.144531 69.289062 203.019531 69.164062 C 202.890625 69.039062 202.6875 69.039062 202.558594 69.164062 C 202.070312 69.652344 201.550781 70.175781 201.101562 70.621094 C 200.589844 71.136719 199.839844 71.261719 199.425781 70.847656 C 199.425781 70.847656 198.488281 69.910156 198.488281 69.910156 C 198.074219 69.496094 198.199219 68.746094 198.710938 68.234375 C 199.34375 67.601562 200.117188 66.828125 200.75 66.195312 C 201.261719 65.683594 202.011719 65.554688 202.425781 65.972656 C 202.425781 65.972656 203.363281 66.910156 203.363281 66.910156 C 203.492188 67.035156 203.695312 67.035156 203.824219 66.910156 C 203.949219 66.78125 203.949219 66.578125 203.824219 66.449219 Z M 201.105469 67.289062 C 201.410156 67.59375 201.742188 67.925781 202.042969 68.226562 C 202.683594 68.867188 203.847656 68.792969 204.636719 68.003906 C 205.269531 67.371094 206.042969 66.597656 206.675781 65.964844 C 207.464844 65.175781 207.539062 64.011719 206.902344 63.371094 C 206.597656 63.070312 206.265625 62.738281 205.964844 62.433594 C 205.324219 61.796875 204.160156 61.867188 203.371094 62.660156 C 202.921875 63.105469 202.402344 63.628906 201.910156 64.117188 C 201.785156 64.246094 201.785156 64.449219 201.910156 64.578125 C 202.039062 64.703125 202.242188 64.703125 202.371094 64.578125 C 202.859375 64.085938 203.378906 63.566406 203.828125 63.117188 C 204.339844 62.605469 205.089844 62.476562 205.503906 62.894531 C 205.503906 62.894531 206.441406 63.832031 206.441406 63.832031 C 206.855469 64.246094 206.730469 64.992188 206.21875 65.507812 C 205.585938 66.136719 204.8125 66.914062 204.179688 67.542969 C 203.667969 68.058594 202.917969 68.183594 202.503906 67.769531 C 202.503906 67.769531 201.566406 66.832031 201.566406 66.832031 C 201.441406 66.707031 201.234375 66.707031 201.105469 66.832031 C 200.980469 66.957031 200.980469 67.164062 201.105469 67.289062 Z M 201.105469 67.289062 " fill-opacity="1" fill-rule="evenodd"/></g><g clip-path="url(#4a0f07cd27)"><path fill="#e7b67c" d="M 188.324219 91.171875 C 188.023438 90.867188 187.6875 90.535156 187.386719 90.234375 C 186.746094 89.59375 185.582031 89.667969 184.792969 90.457031 C 184.160156 91.089844 183.386719 91.863281 182.753906 92.496094 C 181.964844 93.285156 181.890625 94.449219 182.53125 95.089844 C 182.832031 95.390625 183.167969 95.726562 183.46875 96.027344 C 184.109375 96.667969 185.269531 96.59375 186.0625 95.800781 C 186.511719 95.355469 187.03125 94.835938 187.519531 94.34375 C 187.648438 94.21875 187.648438 94.011719 187.519531 93.886719 C 187.394531 93.757812 187.1875 93.757812 187.0625 93.886719 C 186.570312 94.375 186.050781 94.894531 185.601562 95.34375 C 185.089844 95.855469 184.34375 95.984375 183.925781 95.566406 C 183.925781 95.566406 182.988281 94.628906 182.988281 94.628906 C 182.574219 94.214844 182.699219 93.46875 183.214844 92.953125 C 183.84375 92.324219 184.621094 91.546875 185.25 90.917969 C 185.765625 90.402344 186.511719 90.277344 186.925781 90.691406 C 186.925781 90.691406 187.863281 91.628906 187.863281 91.628906 C 187.992188 91.757812 188.199219 91.757812 188.324219 91.628906 C 188.449219 91.503906 188.449219 91.296875 188.324219 91.171875 Z M 185.609375 92.011719 C 185.910156 92.3125 186.242188 92.648438 186.546875 92.949219 C 187.1875 93.589844 188.351562 93.515625 189.140625 92.722656 C 189.769531 92.09375 190.546875 91.320312 191.175781 90.6875 C 191.96875 89.898438 192.042969 88.734375 191.402344 88.09375 C 191.101562 87.792969 190.765625 87.457031 190.464844 87.15625 C 189.824219 86.515625 188.660156 86.589844 187.871094 87.378906 C 187.421875 87.828125 186.902344 88.347656 186.414062 88.839844 C 186.285156 88.964844 186.285156 89.171875 186.414062 89.296875 C 186.539062 89.425781 186.746094 89.425781 186.871094 89.296875 C 187.359375 88.808594 187.882812 88.289062 188.328125 87.839844 C 188.84375 87.324219 189.589844 87.199219 190.003906 87.613281 C 190.003906 87.613281 190.941406 88.550781 190.941406 88.550781 C 191.359375 88.96875 191.230469 89.714844 190.71875 90.226562 C 190.085938 90.859375 189.3125 91.632812 188.679688 92.265625 C 188.167969 92.777344 187.421875 92.90625 187.003906 92.488281 C 187.003906 92.488281 186.066406 91.554688 186.066406 91.554688 C 185.941406 91.425781 185.734375 91.425781 185.609375 91.554688 C 185.480469 91.679688 185.480469 91.886719 185.609375 92.011719 Z M 185.609375 92.011719 " fill-opacity="1" fill-rule="evenodd"/></g><g clip-path="url(#d708c1faf4)"><path fill="#e7b67c" d="M 89.59375 66.449219 C 89.292969 66.148438 88.957031 65.816406 88.65625 65.511719 C 88.015625 64.871094 86.851562 64.945312 86.0625 65.738281 C 85.429688 66.367188 84.65625 67.144531 84.023438 67.773438 C 83.234375 68.566406 83.160156 69.730469 83.800781 70.367188 C 84.101562 70.671875 84.433594 71.003906 84.738281 71.304688 C 85.375 71.945312 86.539062 71.871094 87.332031 71.082031 C 87.777344 70.632812 88.300781 70.113281 88.789062 69.625 C 88.917969 69.496094 88.917969 69.289062 88.789062 69.164062 C 88.664062 69.039062 88.457031 69.039062 88.332031 69.164062 C 87.839844 69.652344 87.320312 70.175781 86.871094 70.621094 C 86.359375 71.136719 85.613281 71.261719 85.195312 70.847656 C 85.195312 70.847656 84.257812 69.910156 84.257812 69.910156 C 83.84375 69.496094 83.96875 68.746094 84.484375 68.234375 C 85.113281 67.601562 85.890625 66.828125 86.519531 66.195312 C 87.035156 65.683594 87.78125 65.554688 88.195312 65.972656 C 88.195312 65.972656 89.132812 66.910156 89.132812 66.910156 C 89.261719 67.035156 89.464844 67.035156 89.59375 66.910156 C 89.71875 66.78125 89.71875 66.578125 89.59375 66.449219 Z M 86.878906 67.289062 C 87.179688 67.59375 87.511719 67.925781 87.816406 68.226562 C 88.453125 68.867188 89.617188 68.792969 90.410156 68.003906 C 91.039062 67.371094 91.816406 66.597656 92.445312 65.964844 C 93.238281 65.175781 93.3125 64.011719 92.671875 63.371094 C 92.371094 63.070312 92.035156 62.738281 91.734375 62.433594 C 91.09375 61.796875 89.929688 61.867188 89.140625 62.660156 C 88.691406 63.105469 88.171875 63.628906 87.679688 64.117188 C 87.554688 64.246094 87.554688 64.449219 87.679688 64.578125 C 87.808594 64.703125 88.011719 64.703125 88.140625 64.578125 C 88.628906 64.085938 89.152344 63.566406 89.597656 63.117188 C 90.113281 62.605469 90.859375 62.476562 91.273438 62.894531 C 91.273438 62.894531 92.210938 63.832031 92.210938 63.832031 C 92.628906 64.246094 92.5 64.992188 91.988281 65.507812 C 91.355469 66.136719 90.582031 66.914062 89.949219 67.542969 C 89.4375 68.058594 88.691406 68.183594 88.273438 67.769531 C 88.273438 67.769531 87.335938 66.832031 87.335938 66.832031 C 87.210938 66.707031 87.003906 66.707031 86.878906 66.832031 C 86.75 66.957031 86.75 67.164062 86.878906 67.289062 Z M 86.878906 67.289062 " fill-opacity="1" fill-rule="evenodd"/></g><g clip-path="url(#a164624ad5)"><path fill="#e7b67c" d="M 212.003906 76.617188 C 211.703125 76.316406 211.367188 75.984375 211.066406 75.679688 C 210.425781 75.039062 209.261719 75.113281 208.472656 75.90625 C 207.839844 76.535156 207.066406 77.3125 206.433594 77.941406 C 205.644531 78.734375 205.570312 79.898438 206.210938 80.535156 C 206.511719 80.839844 206.847656 81.171875 207.148438 81.472656 C 207.789062 82.113281 208.953125 82.039062 209.742188 81.25 C 210.191406 80.800781 210.710938 80.28125 211.199219 79.792969 C 211.328125 79.664062 211.328125 79.457031 211.199219 79.332031 C 211.074219 79.207031 210.867188 79.207031 210.742188 79.332031 C 210.25 79.820312 209.730469 80.34375 209.28125 80.789062 C 208.769531 81.304688 208.023438 81.429688 207.605469 81.015625 C 207.605469 81.015625 206.667969 80.078125 206.667969 80.078125 C 206.253906 79.664062 206.382812 78.914062 206.894531 78.402344 C 207.527344 77.769531 208.300781 76.996094 208.933594 76.363281 C 209.445312 75.851562 210.191406 75.722656 210.609375 76.140625 C 210.609375 76.140625 211.546875 77.078125 211.546875 77.078125 C 211.671875 77.203125 211.878906 77.203125 212.003906 77.078125 C 212.128906 76.949219 212.128906 76.746094 212.003906 76.617188 Z M 209.289062 77.457031 C 209.589844 77.761719 209.925781 78.09375 210.226562 78.394531 C 210.867188 79.035156 212.03125 78.960938 212.820312 78.171875 C 213.453125 77.539062 214.226562 76.765625 214.855469 76.132812 C 215.648438 75.34375 215.722656 74.179688 215.082031 73.539062 C 214.78125 73.238281 214.445312 72.90625 214.144531 72.601562 C 213.503906 71.964844 212.339844 72.035156 211.550781 72.828125 C 211.101562 73.273438 210.582031 73.796875 210.09375 74.285156 C 209.964844 74.414062 209.964844 74.617188 210.09375 74.746094 C 210.21875 74.871094 210.425781 74.871094 210.550781 74.746094 C 211.042969 74.253906 211.5625 73.734375 212.007812 73.285156 C 212.523438 72.773438 213.269531 72.644531 213.6875 73.0625 C 213.6875 73.0625 214.625 74 214.625 74 C 215.039062 74.414062 214.910156 75.160156 214.398438 75.675781 C 213.765625 76.304688 212.992188 77.082031 212.359375 77.710938 C 211.847656 78.226562 211.101562 78.351562 210.683594 77.9375 C 210.683594 77.9375 209.746094 77 209.746094 77 C 209.621094 76.875 209.414062 76.875 209.289062 77 C 209.160156 77.125 209.160156 77.332031 209.289062 77.457031 Z M 209.289062 77.457031 " fill-opacity="1" fill-rule="evenodd"/></g><path fill="#e7b67c" d="M 190.339844 76.617188 C 190.035156 76.316406 189.703125 75.984375 189.402344 75.679688 C 188.761719 75.039062 187.597656 75.113281 186.808594 75.90625 C 186.175781 76.535156 185.402344 77.3125 184.769531 77.941406 C 183.980469 78.734375 183.90625 79.898438 184.542969 80.535156 C 184.847656 80.839844 185.179688 81.171875 185.480469 81.472656 C 186.121094 82.113281 187.285156 82.039062 188.074219 81.25 C 188.523438 80.800781 189.042969 80.28125 189.535156 79.792969 C 189.660156 79.664062 189.660156 79.457031 189.535156 79.332031 C 189.40625 79.207031 189.203125 79.207031 189.074219 79.332031 C 188.585938 79.820312 188.066406 80.34375 187.617188 80.789062 C 187.105469 81.304688 186.355469 81.429688 185.941406 81.015625 C 185.941406 81.015625 185.003906 80.078125 185.003906 80.078125 C 184.589844 79.664062 184.714844 78.914062 185.226562 78.402344 C 185.859375 77.769531 186.632812 76.996094 187.265625 76.363281 C 187.777344 75.851562 188.527344 75.722656 188.941406 76.140625 C 188.941406 76.140625 189.878906 77.078125 189.878906 77.078125 C 190.007812 77.203125 190.210938 77.203125 190.339844 77.078125 C 190.464844 76.949219 190.464844 76.746094 190.339844 76.617188 Z M 187.621094 77.457031 C 187.925781 77.761719 188.257812 78.09375 188.558594 78.394531 C 189.199219 79.035156 190.363281 78.960938 191.152344 78.171875 C 191.785156 77.539062 192.558594 76.765625 193.191406 76.132812 C 193.980469 75.34375 194.054688 74.179688 193.417969 73.539062 C 193.113281 73.238281 192.78125 72.90625 192.480469 72.601562 C 191.839844 71.964844 190.675781 72.035156 189.886719 72.828125 C 189.4375 73.273438 188.917969 73.796875 188.425781 74.285156 C 188.300781 74.414062 188.300781 74.617188 188.425781 74.746094 C 188.554688 74.871094 188.757812 74.871094 188.886719 74.746094 C 189.375 74.253906 189.894531 73.734375 190.34375 73.285156 C 190.855469 72.773438 191.605469 72.644531 192.019531 73.0625 C 192.019531 73.0625 192.957031 74 192.957031 74 C 193.371094 74.414062 193.246094 75.160156 192.734375 75.675781 C 192.101562 76.304688 191.328125 77.082031 190.695312 77.710938 C 190.183594 78.226562 189.433594 78.351562 189.019531 77.9375 C 189.019531 77.9375 188.082031 77 188.082031 77 C 187.953125 76.875 187.75 76.875 187.621094 77 C 187.496094 77.125 187.496094 77.332031 187.621094 77.457031 Z M 187.621094 77.457031 " fill-opacity="1" fill-rule="evenodd"/></svg>