<svg xmlns="http://www.w3.org/2000/svg" xmlns:xlink="http://www.w3.org/1999/xlink" width="400" zoomAndPan="magnify" viewBox="0 0 300 149.999998" height="200" preserveAspectRatio="xMidYMid meet" version="1.0"><defs><clipPath id="a2b2feda85"><path d="M 183 24 L 207.726562 24 L 207.726562 65 L 183 65 Z M 183 24 " clip-rule="nonzero"/></clipPath><clipPath id="3f2f7420a6"><path d="M 97 19.683594 L 173 19.683594 L 173 117 L 97 117 Z M 97 19.683594 " clip-rule="nonzero"/></clipPath><clipPath id="61ac734573"><path d="M 92.226562 113 L 178 113 L 178 130.683594 L 92.226562 130.683594 Z M 92.226562 113 " clip-rule="nonzero"/></clipPath></defs><g clip-path="url(#a2b2feda85)"><path fill="#e7b67c" d="M 205.957031 64.863281 L 194.859375 64.863281 C 193.863281 64.863281 193.054688 64.058594 193.054688 63.058594 L 193.054688 43.929688 L 184.296875 38.871094 C 183.738281 38.550781 183.394531 37.953125 183.394531 37.308594 L 183.394531 26.273438 C 183.394531 25.640625 183.722656 25.054688 184.265625 24.726562 C 184.804688 24.402344 185.480469 24.378906 186.039062 24.675781 L 206.796875 35.578125 C 207.390625 35.890625 207.761719 36.507812 207.761719 37.175781 L 207.761719 63.058594 C 207.761719 64.058594 206.953125 64.863281 205.957031 64.863281 Z M 196.664062 61.253906 L 204.152344 61.253906 L 204.152344 38.265625 L 187.003906 29.257812 L 187.003906 36.265625 L 195.761719 41.320312 C 196.320312 41.644531 196.664062 42.242188 196.664062 42.886719 Z M 196.664062 61.253906 " fill-opacity="1" fill-rule="evenodd"/></g><path fill="#e7b67c" d="M 196.203125 106.976562 L 189.898438 106.976562 C 186.585938 106.976562 183.886719 104.28125 183.886719 100.964844 L 183.886719 79.742188 C 183.886719 78.421875 182.8125 77.34375 181.488281 77.34375 L 170.980469 77.34375 C 169.980469 77.34375 169.171875 76.539062 169.171875 75.539062 C 169.171875 74.542969 169.980469 73.734375 170.980469 73.734375 L 181.488281 73.734375 C 184.800781 73.734375 187.5 76.429688 187.5 79.742188 L 187.5 100.96875 C 187.5 102.289062 188.574219 103.367188 189.898438 103.367188 L 196.203125 103.367188 C 197.527344 103.367188 198.605469 102.289062 198.605469 100.964844 L 198.605469 63.058594 C 198.605469 62.0625 199.410156 61.253906 200.410156 61.253906 C 201.40625 61.253906 202.214844 62.0625 202.214844 63.058594 L 202.214844 100.964844 C 202.214844 104.28125 199.519531 106.976562 196.203125 106.976562 Z M 196.203125 106.976562 " fill-opacity="1" fill-rule="evenodd"/><path fill="#e7b67c" d="M 194.859375 60.792969 C 194.617188 60.792969 194.375 60.746094 194.140625 60.640625 C 188.640625 58.25 185.175781 54.433594 184.636719 50.171875 C 184.292969 47.46875 184.96875 43.40625 190.128906 39.371094 C 190.914062 38.761719 192.050781 38.898438 192.664062 39.683594 C 193.277344 40.46875 193.136719 41.605469 192.351562 42.21875 C 189.324219 44.582031 187.894531 47.175781 188.21875 49.714844 C 188.589844 52.640625 191.339844 55.488281 195.578125 57.332031 C 196.496094 57.726562 196.914062 58.792969 196.515625 59.707031 C 196.21875 60.386719 195.554688 60.792969 194.859375 60.792969 Z M 194.859375 60.792969 " fill-opacity="1" fill-rule="evenodd"/><g clip-path="url(#3f2f7420a6)"><path fill="#e7b67c" d="M 170.980469 116.941406 L 99.164062 116.941406 C 98.164062 116.941406 97.355469 116.132812 97.355469 115.136719 L 97.355469 26.644531 C 97.355469 22.820312 100.46875 19.710938 104.292969 19.710938 L 165.851562 19.710938 C 169.675781 19.710938 172.785156 22.820312 172.785156 26.644531 L 172.785156 115.136719 C 172.785156 116.132812 171.976562 116.941406 170.980469 116.941406 Z M 100.96875 113.332031 L 169.175781 113.332031 L 169.175781 26.644531 C 169.175781 24.8125 167.683594 23.320312 165.847656 23.320312 L 104.292969 23.320312 C 102.457031 23.320312 100.96875 24.8125 100.96875 26.644531 Z M 100.96875 113.332031 " fill-opacity="1" fill-rule="evenodd"/></g><path fill="#e7b67c" d="M 160.574219 54.722656 L 109.566406 54.722656 C 107.519531 54.722656 105.855469 53.058594 105.855469 51.011719 L 105.855469 30.75 C 105.855469 28.703125 107.519531 27.039062 109.566406 27.039062 L 160.574219 27.039062 C 162.621094 27.039062 164.285156 28.703125 164.285156 30.75 L 164.285156 51.011719 C 164.285156 53.058594 162.621094 54.722656 160.574219 54.722656 Z M 109.566406 30.648438 C 109.515625 30.648438 109.464844 30.699219 109.464844 30.75 L 109.464844 51.011719 C 109.464844 51.0625 109.515625 51.113281 109.566406 51.113281 L 160.574219 51.113281 C 160.628906 51.113281 160.675781 51.0625 160.675781 51.011719 L 160.675781 30.75 C 160.675781 30.699219 160.625 30.648438 160.574219 30.648438 Z M 109.566406 30.648438 " fill-opacity="1" fill-rule="evenodd"/><g clip-path="url(#61ac734573)"><path fill="#e7b67c" d="M 174.058594 130.277344 L 96.082031 130.277344 C 93.957031 130.277344 92.226562 128.550781 92.226562 126.421875 L 92.226562 117.1875 C 92.226562 115.058594 93.957031 113.332031 96.082031 113.332031 L 174.058594 113.332031 C 176.183594 113.332031 177.914062 115.058594 177.914062 117.1875 L 177.914062 126.421875 C 177.914062 128.546875 176.183594 130.277344 174.058594 130.277344 Z M 96.082031 116.941406 C 95.953125 116.941406 95.835938 117.054688 95.835938 117.1875 L 95.835938 126.421875 C 95.835938 126.554688 95.953125 126.667969 96.082031 126.667969 L 174.058594 126.667969 C 174.1875 126.667969 174.304688 126.554688 174.304688 126.421875 L 174.304688 117.1875 C 174.304688 117.054688 174.1875 116.941406 174.058594 116.941406 Z M 96.082031 116.941406 " fill-opacity="1" fill-rule="evenodd"/></g><path fill="#e7b67c" d="M 135.050781 91.238281 C 134.742188 91.238281 134.433594 91.15625 134.15625 91 L 120.742188 83.351562 C 120.324219 83.113281 120.015625 82.71875 119.890625 82.257812 C 119.765625 81.792969 119.832031 81.296875 120.070312 80.882812 L 133.488281 57.644531 C 133.808594 57.085938 134.40625 56.742188 135.050781 56.742188 C 135.695312 56.742188 136.292969 57.085938 136.613281 57.644531 L 150.03125 80.882812 C 150.269531 81.296875 150.335938 81.792969 150.207031 82.257812 C 150.082031 82.71875 149.777344 83.113281 149.359375 83.351562 L 135.945312 91 C 135.667969 91.15625 135.359375 91.238281 135.050781 91.238281 Z M 124.105469 81.117188 L 135.050781 87.355469 L 145.996094 81.117188 L 135.050781 62.160156 Z M 124.105469 81.117188 " fill-opacity="1" fill-rule="evenodd"/><path fill="#e7b67c" d="M 121.636719 83.59375 C 120.9375 83.59375 120.269531 83.183594 119.976562 82.5 C 119.582031 81.582031 120.003906 80.519531 120.921875 80.128906 L 134.335938 74.359375 C 134.792969 74.160156 135.308594 74.160156 135.765625 74.359375 L 149.179688 80.128906 C 150.09375 80.523438 150.519531 81.582031 150.125 82.5 C 149.730469 83.414062 148.671875 83.839844 147.753906 83.445312 L 135.050781 77.980469 L 122.347656 83.445312 C 122.117188 83.542969 121.875 83.59375 121.636719 83.59375 Z M 121.636719 83.59375 " fill-opacity="1" fill-rule="evenodd"/><path fill="#e7b67c" d="M 135.050781 91.238281 C 134.054688 91.238281 133.246094 90.429688 133.246094 89.429688 L 133.246094 58.546875 C 133.246094 57.550781 134.054688 56.742188 135.050781 56.742188 C 136.046875 56.742188 136.855469 57.550781 136.855469 58.546875 L 136.855469 89.429688 C 136.855469 90.429688 136.046875 91.238281 135.050781 91.238281 Z M 135.050781 91.238281 " fill-opacity="1" fill-rule="evenodd"/><path fill="#e7b67c" d="M 135.050781 111.3125 C 134.457031 111.3125 133.898438 111.015625 133.5625 110.527344 L 120.085938 90.878906 C 119.609375 90.183594 119.675781 89.25 120.246094 88.632812 C 120.816406 88.011719 121.738281 87.871094 122.46875 88.289062 L 135.089844 95.503906 L 147.667969 88.289062 C 148.398438 87.871094 149.324219 88.011719 149.894531 88.632812 C 150.464844 89.253906 150.53125 90.183594 150.054688 90.878906 L 136.535156 110.53125 C 136.203125 111.019531 135.644531 111.3125 135.050781 111.3125 Z M 127.523438 95.335938 L 135.050781 106.320312 L 142.582031 95.371094 L 135.988281 99.152344 C 135.433594 99.46875 134.75 99.46875 134.195312 99.152344 Z M 127.523438 95.335938 " fill-opacity="1" fill-rule="evenodd"/><path fill="#e7b67c" d="M 135.050781 111.3125 C 134.054688 111.3125 133.246094 110.503906 133.246094 109.507812 L 133.246094 97.585938 C 133.246094 96.585938 134.054688 95.78125 135.050781 95.78125 C 136.046875 95.78125 136.855469 96.585938 136.855469 97.585938 L 136.855469 109.507812 C 136.855469 110.503906 136.046875 111.3125 135.050781 111.3125 Z M 135.050781 111.3125 " fill-opacity="1" fill-rule="evenodd"/></svg>