<svg xmlns="http://www.w3.org/2000/svg" xmlns:xlink="http://www.w3.org/1999/xlink" width="400" zoomAndPan="magnify" viewBox="0 0 300 149.999998" height="200" preserveAspectRatio="xMidYMid meet" version="1.0"><defs><clipPath id="3af87e0669"><path d="M 272 29 L 296.585938 29 L 296.585938 70 L 272 70 Z M 272 29 " clip-rule="nonzero"/></clipPath><clipPath id="53f417fac5"><path d="M 186 24.363281 L 262 24.363281 L 262 122 L 186 122 Z M 186 24.363281 " clip-rule="nonzero"/></clipPath><clipPath id="19ebdc1d15"><path d="M 181.085938 118 L 267 118 L 267 135 L 181.085938 135 Z M 181.085938 118 " clip-rule="nonzero"/></clipPath><clipPath id="bd6ac9486a"><path d="M 37.183594 109.800781 L 41.386719 109.800781 L 41.386719 135 L 37.183594 135 Z M 37.183594 109.800781 " clip-rule="nonzero"/></clipPath><clipPath id="40183ce08e"><path d="M 0.183594 0.800781 L 4.386719 0.800781 L 4.386719 26 L 0.183594 26 Z M 0.183594 0.800781 " clip-rule="nonzero"/></clipPath><clipPath id="f2f4a3c06b"><rect x="0" width="5" y="0" height="26"/></clipPath><clipPath id="0c47f7485d"><path d="M 54.121094 99.449219 L 58.328125 99.449219 L 58.328125 135 L 54.121094 135 Z M 54.121094 99.449219 " clip-rule="nonzero"/></clipPath><clipPath id="7dc4a85900"><path d="M 0.121094 0.449219 L 4.328125 0.449219 L 4.328125 36 L 0.121094 36 Z M 0.121094 0.449219 " clip-rule="nonzero"/></clipPath><clipPath id="113c86d356"><rect x="0" width="5" y="0" height="36"/></clipPath><clipPath id="f81f2c1ae2"><path d="M 70.945312 88.351562 L 75.148438 88.351562 L 75.148438 135 L 70.945312 135 Z M 70.945312 88.351562 " clip-rule="nonzero"/></clipPath><clipPath id="02f53f1711"><path d="M 0.945312 0.351562 L 5.148438 0.351562 L 5.148438 47 L 0.945312 47 Z M 0.945312 0.351562 " clip-rule="nonzero"/></clipPath><clipPath id="5e7955b7c8"><rect x="0" width="6" y="0" height="47"/></clipPath><clipPath id="684c229c09"><path d="M 87.765625 79.683594 L 91.972656 79.683594 L 91.972656 135 L 87.765625 135 Z M 87.765625 79.683594 " clip-rule="nonzero"/></clipPath><clipPath id="deac1902da"><path d="M 0.765625 0.683594 L 4.972656 0.683594 L 4.972656 56 L 0.765625 56 Z M 0.765625 0.683594 " clip-rule="nonzero"/></clipPath><clipPath id="81ea7db1f8"><rect x="0" width="5" y="0" height="56"/></clipPath><clipPath id="49f642991a"><path d="M 104.589844 65.398438 L 108.792969 65.398438 L 108.792969 135 L 104.589844 135 Z M 104.589844 65.398438 " clip-rule="nonzero"/></clipPath><clipPath id="5923f3b661"><path d="M 0.589844 0.398438 L 4.792969 0.398438 L 4.792969 70 L 0.589844 70 Z M 0.589844 0.398438 " clip-rule="nonzero"/></clipPath><clipPath id="83aaedd2e0"><rect x="0" width="5" y="0" height="70"/></clipPath><clipPath id="a822701ea7"><path d="M 121.410156 56.851562 L 125.617188 56.851562 L 125.617188 135 L 121.410156 135 Z M 121.410156 56.851562 " clip-rule="nonzero"/></clipPath><clipPath id="baa3636e34"><path d="M 0.410156 0.851562 L 4.617188 0.851562 L 4.617188 79 L 0.410156 79 Z M 0.410156 0.851562 " clip-rule="nonzero"/></clipPath><clipPath id="c164a3db25"><rect x="0" width="5" y="0" height="79"/></clipPath><clipPath id="4a892449ba"><path d="M 20.359375 125.101562 L 24.566406 125.101562 L 24.566406 135 L 20.359375 135 Z M 20.359375 125.101562 " clip-rule="nonzero"/></clipPath><clipPath id="409185f0b0"><path d="M 0.359375 0.101562 L 4.566406 0.101562 L 4.566406 10 L 0.359375 10 Z M 0.359375 0.101562 " clip-rule="nonzero"/></clipPath><clipPath id="ba43aadf3b"><rect x="0" width="5" y="0" height="10"/></clipPath></defs><g clip-path="url(#3af87e0669)"><path fill="#e7b67c" d="M 294.816406 69.546875 L 283.71875 69.546875 C 282.71875 69.546875 281.914062 68.738281 281.914062 67.742188 L 281.914062 48.609375 L 273.152344 43.554688 C 272.59375 43.230469 272.25 42.636719 272.25 41.992188 L 272.25 30.957031 C 272.25 30.324219 272.582031 29.738281 273.125 29.410156 C 273.664062 29.082031 274.339844 29.0625 274.898438 29.355469 L 295.65625 40.261719 C 296.25 40.574219 296.621094 41.1875 296.621094 41.859375 L 296.621094 67.742188 C 296.621094 68.738281 295.8125 69.546875 294.816406 69.546875 Z M 285.523438 65.9375 L 293.011719 65.9375 L 293.011719 42.949219 L 275.863281 33.941406 L 275.863281 40.949219 L 284.621094 46.003906 C 285.179688 46.328125 285.523438 46.921875 285.523438 47.566406 Z M 285.523438 65.9375 " fill-opacity="1" fill-rule="evenodd"/></g><path fill="#e7b67c" d="M 285.0625 111.660156 L 278.757812 111.660156 C 275.441406 111.660156 272.746094 108.964844 272.746094 105.648438 L 272.746094 84.425781 C 272.746094 83.105469 271.667969 82.027344 270.347656 82.027344 L 259.835938 82.027344 C 258.839844 82.027344 258.03125 81.21875 258.03125 80.222656 C 258.03125 79.226562 258.839844 78.417969 259.835938 78.417969 L 270.347656 78.417969 C 273.660156 78.417969 276.355469 81.113281 276.355469 84.425781 L 276.355469 105.648438 C 276.355469 106.972656 277.433594 108.046875 278.757812 108.046875 L 285.0625 108.046875 C 286.386719 108.046875 287.460938 106.972656 287.460938 105.648438 L 287.460938 67.742188 C 287.460938 66.746094 288.269531 65.9375 289.265625 65.9375 C 290.265625 65.9375 291.070312 66.746094 291.070312 67.742188 L 291.070312 105.648438 C 291.070312 108.960938 288.375 111.660156 285.0625 111.660156 Z M 285.0625 111.660156 " fill-opacity="1" fill-rule="evenodd"/><path fill="#e7b67c" d="M 283.714844 65.476562 C 283.476562 65.476562 283.230469 65.425781 282.996094 65.324219 C 277.5 62.933594 274.035156 59.113281 273.492188 54.851562 C 273.148438 52.152344 273.824219 48.089844 278.988281 44.054688 C 279.769531 43.441406 280.90625 43.582031 281.523438 44.367188 C 282.136719 45.152344 281.996094 46.285156 281.210938 46.902344 C 278.183594 49.265625 276.753906 51.859375 277.074219 54.398438 C 277.445312 57.324219 280.199219 60.167969 284.4375 62.011719 C 285.351562 62.410156 285.769531 63.472656 285.375 64.390625 C 285.078125 65.070312 284.414062 65.476562 283.714844 65.476562 Z M 283.714844 65.476562 " fill-opacity="1" fill-rule="evenodd"/><g clip-path="url(#53f417fac5)"><path fill="#e7b67c" d="M 259.835938 121.625 L 188.019531 121.625 C 187.023438 121.625 186.214844 120.816406 186.214844 119.816406 L 186.214844 31.328125 C 186.214844 27.503906 189.328125 24.394531 193.148438 24.394531 L 254.707031 24.394531 C 258.53125 24.394531 261.644531 27.503906 261.644531 31.328125 L 261.644531 119.820312 C 261.644531 120.816406 260.835938 121.625 259.835938 121.625 Z M 189.824219 118.011719 L 258.03125 118.011719 L 258.03125 31.328125 C 258.03125 29.496094 256.539062 28.003906 254.707031 28.003906 L 193.148438 28.003906 C 191.316406 28.003906 189.824219 29.496094 189.824219 31.328125 Z M 189.824219 118.011719 " fill-opacity="1" fill-rule="evenodd"/></g><path fill="#e7b67c" d="M 249.433594 59.40625 L 198.425781 59.40625 C 196.378906 59.40625 194.710938 57.742188 194.710938 55.695312 L 194.710938 35.433594 C 194.710938 33.386719 196.378906 31.722656 198.425781 31.722656 L 249.433594 31.722656 C 251.480469 31.722656 253.144531 33.386719 253.144531 35.433594 L 253.144531 55.695312 C 253.144531 57.742188 251.480469 59.40625 249.433594 59.40625 Z M 198.425781 35.332031 C 198.371094 35.332031 198.324219 35.382812 198.324219 35.433594 L 198.324219 55.695312 C 198.324219 55.746094 198.371094 55.796875 198.425781 55.796875 L 249.433594 55.796875 C 249.484375 55.796875 249.535156 55.746094 249.535156 55.695312 L 249.535156 35.433594 C 249.535156 35.382812 249.484375 35.332031 249.433594 35.332031 Z M 198.425781 35.332031 " fill-opacity="1" fill-rule="evenodd"/><g clip-path="url(#19ebdc1d15)"><path fill="#e7b67c" d="M 262.914062 134.960938 L 184.941406 134.960938 C 182.816406 134.960938 181.085938 133.230469 181.085938 131.105469 L 181.085938 121.871094 C 181.085938 119.742188 182.816406 118.011719 184.941406 118.011719 L 262.914062 118.011719 C 265.042969 118.011719 266.773438 119.742188 266.773438 121.871094 L 266.773438 131.105469 C 266.773438 133.230469 265.042969 134.960938 262.914062 134.960938 Z M 184.941406 121.625 C 184.808594 121.625 184.695312 121.738281 184.695312 121.871094 L 184.695312 131.105469 C 184.695312 131.234375 184.8125 131.351562 184.941406 131.351562 L 262.914062 131.351562 C 263.046875 131.351562 263.164062 131.234375 263.164062 131.105469 L 263.164062 121.871094 C 263.164062 121.738281 263.046875 121.625 262.914062 121.625 Z M 184.941406 121.625 " fill-opacity="1" fill-rule="evenodd"/></g><path fill="#e7b67c" d="M 223.910156 95.917969 C 223.601562 95.917969 223.292969 95.839844 223.015625 95.683594 L 209.597656 88.035156 C 209.179688 87.796875 208.875 87.402344 208.75 86.9375 C 208.625 86.476562 208.6875 85.980469 208.929688 85.5625 L 222.34375 62.328125 C 222.667969 61.769531 223.265625 61.425781 223.910156 61.425781 C 224.554688 61.425781 225.148438 61.769531 225.472656 62.328125 L 238.886719 85.5625 C 239.128906 85.980469 239.191406 86.476562 239.066406 86.9375 C 238.941406 87.402344 238.636719 87.796875 238.21875 88.035156 L 224.804688 95.683594 C 224.527344 95.839844 224.21875 95.917969 223.910156 95.917969 Z M 212.964844 85.796875 L 223.910156 92.035156 L 234.855469 85.796875 L 223.910156 66.839844 Z M 212.964844 85.796875 " fill-opacity="1" fill-rule="evenodd"/><path fill="#e7b67c" d="M 210.492188 88.273438 C 209.792969 88.273438 209.128906 87.863281 208.832031 87.183594 C 208.441406 86.265625 208.863281 85.203125 209.777344 84.8125 L 223.195312 79.039062 C 223.648438 78.84375 224.164062 78.84375 224.621094 79.039062 L 238.039062 84.8125 C 238.953125 85.203125 239.375 86.265625 238.984375 87.183594 C 238.589844 88.097656 237.527344 88.519531 236.609375 88.128906 L 223.910156 82.664062 L 211.207031 88.128906 C 210.972656 88.226562 210.730469 88.273438 210.492188 88.273438 Z M 210.492188 88.273438 " fill-opacity="1" fill-rule="evenodd"/><path fill="#e7b67c" d="M 223.910156 95.917969 C 222.910156 95.917969 222.105469 95.113281 222.105469 94.113281 L 222.105469 63.230469 C 222.105469 62.234375 222.910156 61.425781 223.910156 61.425781 C 224.90625 61.425781 225.714844 62.234375 225.714844 63.230469 L 225.714844 94.113281 C 225.714844 95.113281 224.90625 95.917969 223.910156 95.917969 Z M 223.910156 95.917969 " fill-opacity="1" fill-rule="evenodd"/><path fill="#e7b67c" d="M 223.910156 115.992188 C 223.910156 115.992188 223.90625 115.992188 223.90625 115.992188 C 223.3125 115.992188 222.757812 115.699219 222.421875 115.210938 L 208.945312 95.558594 C 208.46875 94.867188 208.535156 93.933594 209.105469 93.316406 C 209.675781 92.695312 210.597656 92.554688 211.328125 92.972656 L 223.945312 100.1875 L 236.527344 92.972656 C 237.257812 92.554688 238.179688 92.695312 238.75 93.316406 C 239.324219 93.9375 239.390625 94.867188 238.910156 95.5625 L 225.394531 115.210938 C 225.058594 115.703125 224.503906 115.992188 223.910156 115.992188 Z M 216.378906 100.019531 L 223.910156 111 L 231.441406 100.050781 L 224.847656 103.835938 C 224.292969 104.152344 223.609375 104.152344 223.054688 103.835938 Z M 216.378906 100.019531 " fill-opacity="1" fill-rule="evenodd"/><path fill="#e7b67c" d="M 223.910156 115.992188 C 222.910156 115.992188 222.105469 115.1875 222.105469 114.1875 L 222.105469 102.265625 C 222.105469 101.269531 222.910156 100.460938 223.910156 100.460938 C 224.90625 100.460938 225.714844 101.269531 225.714844 102.265625 L 225.714844 114.1875 C 225.714844 115.1875 224.90625 115.992188 223.910156 115.992188 Z M 223.910156 115.992188 " fill-opacity="1" fill-rule="evenodd"/><g clip-path="url(#bd6ac9486a)"><g transform="matrix(1, 0, 0, 1, 37, 109)"><g clip-path="url(#f2f4a3c06b)"><g clip-path="url(#40183ce08e)"><path fill="#e7b67c" d="M 0.183594 0.800781 L 4.386719 0.800781 L 4.386719 26 L 0.183594 26 Z M 0.183594 0.800781 " fill-opacity="1" fill-rule="nonzero"/></g></g></g></g><g clip-path="url(#0c47f7485d)"><g transform="matrix(1, 0, 0, 1, 54, 99)"><g clip-path="url(#113c86d356)"><g clip-path="url(#7dc4a85900)"><path fill="#e7b67c" d="M 0.121094 0.449219 L 4.328125 0.449219 L 4.328125 36 L 0.121094 36 Z M 0.121094 0.449219 " fill-opacity="1" fill-rule="nonzero"/></g></g></g></g><g clip-path="url(#f81f2c1ae2)"><g transform="matrix(1, 0, 0, 1, 70, 88)"><g clip-path="url(#5e7955b7c8)"><g clip-path="url(#02f53f1711)"><path fill="#e7b67c" d="M 0.945312 0.351562 L 5.148438 0.351562 L 5.148438 47.003906 L 0.945312 47.003906 Z M 0.945312 0.351562 " fill-opacity="1" fill-rule="nonzero"/></g></g></g></g><g clip-path="url(#684c229c09)"><g transform="matrix(1, 0, 0, 1, 87, 79)"><g clip-path="url(#81ea7db1f8)"><g clip-path="url(#deac1902da)"><path fill="#e7b67c" d="M 0.765625 0.683594 L 4.972656 0.683594 L 4.972656 55.996094 L 0.765625 55.996094 Z M 0.765625 0.683594 " fill-opacity="1" fill-rule="nonzero"/></g></g></g></g><g clip-path="url(#49f642991a)"><g transform="matrix(1, 0, 0, 1, 104, 65)"><g clip-path="url(#83aaedd2e0)"><g clip-path="url(#5923f3b661)"><path fill="#e7b67c" d="M 0.589844 0.398438 L 4.792969 0.398438 L 4.792969 70.003906 L 0.589844 70.003906 Z M 0.589844 0.398438 " fill-opacity="1" fill-rule="nonzero"/></g></g></g></g><g clip-path="url(#a822701ea7)"><g transform="matrix(1, 0, 0, 1, 121, 56)"><g clip-path="url(#c164a3db25)"><g clip-path="url(#baa3636e34)"><path fill="#e7b67c" d="M 0.410156 0.851562 L 4.617188 0.851562 L 4.617188 78.996094 L 0.410156 78.996094 Z M 0.410156 0.851562 " fill-opacity="1" fill-rule="nonzero"/></g></g></g></g><path stroke-linecap="butt" transform="matrix(0.594421, -0.457344, 0.457344, 0.594421, 14.541564, 119.55234)" fill="none" stroke-linejoin="miter" d="M 5.500208 1.002586 L 191.671584 1.002233 " stroke="#e7b67c" stroke-width="2" stroke-opacity="1" stroke-miterlimit="4"/><path stroke-linecap="round" transform="matrix(0.594421, -0.457344, 0.457344, 0.594421, 14.541564, 119.55234)" fill-opacity="1" fill="#e7b67c" fill-rule="nonzero" stroke-linejoin="round" d="M 4.997503 -1.999656 L 1.002003 0.998316 L 4.999748 4.001867 Z M 4.997503 -1.999656 " stroke="#e7b67c" stroke-width="2" stroke-opacity="1" stroke-miterlimit="4"/><g clip-path="url(#4a892449ba)"><g transform="matrix(1, 0, 0, 1, 20, 125)"><g clip-path="url(#ba43aadf3b)"><g clip-path="url(#409185f0b0)"><path fill="#e7b67c" d="M 0.359375 0.101562 L 4.566406 0.101562 L 4.566406 10.007812 L 0.359375 10.007812 Z M 0.359375 0.101562 " fill-opacity="1" fill-rule="nonzero"/></g></g></g></g></svg>