<svg xmlns="http://www.w3.org/2000/svg" xmlns:xlink="http://www.w3.org/1999/xlink" width="400" zoomAndPan="magnify" viewBox="0 0 300 149.999998" height="200" preserveAspectRatio="xMidYMid meet" version="1.0"><defs><clipPath id="0baea8201b"><path d="M 128 43 L 167 43 L 167 106.695312 L 128 106.695312 Z M 128 43 " clip-rule="nonzero"/></clipPath><clipPath id="4e6ca4a20c"><path d="M 166 60 L 172.050781 60 L 172.050781 63 L 166 63 Z M 166 60 " clip-rule="nonzero"/></clipPath></defs><path fill="#e7b67c" d="M 145.664062 88.605469 L 144.136719 95.472656 C 144.101562 95.632812 144.082031 95.796875 144.082031 95.964844 C 144.082031 96.132812 144.101562 96.296875 144.140625 96.457031 C 144.175781 96.621094 144.234375 96.777344 144.304688 96.925781 C 144.378906 97.074219 144.464844 97.214844 144.570312 97.34375 C 144.675781 97.476562 144.792969 97.59375 144.921875 97.695312 C 145.050781 97.800781 145.191406 97.886719 145.34375 97.960938 C 145.492188 98.03125 145.648438 98.085938 145.808594 98.125 C 145.972656 98.160156 146.136719 98.179688 146.304688 98.179688 L 150.625 98.179688 C 150.789062 98.179688 150.953125 98.160156 151.117188 98.121094 C 151.277344 98.085938 151.433594 98.03125 151.585938 97.960938 C 151.734375 97.886719 151.875 97.800781 152.003906 97.695312 C 152.132812 97.59375 152.25 97.476562 152.355469 97.347656 C 152.460938 97.21875 152.546875 97.078125 152.621094 96.929688 C 152.691406 96.777344 152.75 96.625 152.785156 96.460938 C 152.824219 96.300781 152.84375 96.136719 152.84375 95.96875 C 152.84375 95.804688 152.828125 95.636719 152.789062 95.476562 L 151.265625 88.609375 C 151.6875 88.292969 152.046875 87.917969 152.339844 87.480469 C 152.636719 87.042969 152.851562 86.570312 152.984375 86.058594 C 153.121094 85.550781 153.167969 85.03125 153.125 84.503906 C 153.085938 83.980469 152.960938 83.476562 152.75 82.992188 C 152.535156 82.507812 152.253906 82.074219 151.894531 81.6875 C 151.535156 81.300781 151.125 80.980469 150.65625 80.734375 C 150.191406 80.488281 149.699219 80.324219 149.175781 80.242188 C 148.65625 80.164062 148.136719 80.167969 147.617188 80.265625 C 147.167969 80.347656 146.742188 80.488281 146.335938 80.695312 C 145.929688 80.902344 145.5625 81.164062 145.230469 81.476562 C 144.902344 81.789062 144.625 82.144531 144.398438 82.539062 C 144.171875 82.933594 144.007812 83.351562 143.902344 83.796875 C 143.800781 84.238281 143.761719 84.6875 143.789062 85.144531 C 143.816406 85.597656 143.90625 86.039062 144.0625 86.464844 C 144.21875 86.894531 144.433594 87.289062 144.707031 87.65625 C 144.980469 88.019531 145.296875 88.335938 145.664062 88.609375 Z M 145.796875 84.398438 C 145.898438 83.84375 146.148438 83.371094 146.542969 82.96875 C 146.9375 82.570312 147.410156 82.316406 147.960938 82.207031 C 148.128906 82.175781 148.292969 82.164062 148.464844 82.164062 C 149.117188 82.160156 149.695312 82.371094 150.195312 82.792969 C 150.367188 82.9375 150.519531 83.097656 150.652344 83.277344 C 150.78125 83.457031 150.890625 83.652344 150.972656 83.859375 C 151.054688 84.066406 151.113281 84.277344 151.140625 84.5 C 151.171875 84.71875 151.175781 84.941406 151.148438 85.164062 C 151.125 85.386719 151.070312 85.601562 150.992188 85.808594 C 150.914062 86.015625 150.8125 86.214844 150.683594 86.394531 C 150.558594 86.578125 150.410156 86.742188 150.242188 86.890625 C 150.074219 87.035156 149.890625 87.160156 149.691406 87.261719 C 149.492188 87.363281 149.34375 87.515625 149.25 87.71875 C 149.152344 87.921875 149.128906 88.136719 149.179688 88.355469 L 150.859375 95.902344 C 150.878906 95.976562 150.863281 96.046875 150.8125 96.105469 C 150.765625 96.167969 150.703125 96.199219 150.625 96.195312 L 146.304688 96.195312 C 146.226562 96.199219 146.164062 96.167969 146.113281 96.105469 C 146.066406 96.046875 146.050781 95.976562 146.066406 95.902344 L 147.75 88.355469 C 147.796875 88.136719 147.773438 87.921875 147.679688 87.71875 C 147.582031 87.515625 147.4375 87.363281 147.238281 87.261719 C 146.976562 87.132812 146.746094 86.964844 146.542969 86.761719 C 146.335938 86.558594 146.167969 86.328125 146.039062 86.070312 C 145.910156 85.8125 145.824219 85.539062 145.78125 85.253906 C 145.738281 84.96875 145.742188 84.683594 145.792969 84.398438 Z M 145.796875 84.398438 " fill-opacity="1" fill-rule="nonzero"/><g clip-path="url(#0baea8201b)"><path fill="#e7b67c" d="M 140.566406 52.183594 C 140.976562 51.988281 141.402344 51.835938 141.84375 51.726562 C 142.285156 51.617188 142.730469 51.550781 143.183594 51.53125 C 143.636719 51.507812 144.089844 51.53125 144.539062 51.597656 C 144.988281 51.664062 145.425781 51.773438 145.851562 51.925781 C 146.28125 52.078125 146.6875 52.273438 147.078125 52.507812 C 147.46875 52.738281 147.832031 53.007812 148.167969 53.3125 C 148.503906 53.617188 148.808594 53.953125 149.078125 54.316406 C 149.351562 54.679688 149.582031 55.066406 149.777344 55.476562 L 154 64.414062 C 154.113281 64.660156 154.296875 64.828125 154.550781 64.921875 C 154.804688 65.015625 155.050781 65.007812 155.296875 64.894531 L 160.714844 62.472656 C 160.835938 62.421875 160.945312 62.34375 161.035156 62.246094 C 161.125 62.152344 161.195312 62.039062 161.242188 61.914062 C 161.289062 61.789062 161.308594 61.660156 161.304688 61.527344 C 161.296875 61.394531 161.265625 61.269531 161.210938 61.148438 L 156.929688 52.09375 C 156.511719 51.210938 156.015625 50.382812 155.433594 49.597656 C 154.855469 48.816406 154.203125 48.097656 153.480469 47.445312 C 152.761719 46.789062 151.980469 46.214844 151.148438 45.710938 C 150.3125 45.210938 149.4375 44.796875 148.519531 44.46875 C 147.601562 44.140625 146.660156 43.90625 145.699219 43.761719 C 144.734375 43.621094 143.765625 43.570312 142.792969 43.621094 C 141.820312 43.667969 140.863281 43.808594 139.917969 44.046875 C 138.972656 44.28125 138.0625 44.609375 137.179688 45.023438 C 136.300781 45.441406 135.46875 45.941406 134.6875 46.519531 C 133.90625 47.101562 133.1875 47.75 132.53125 48.472656 C 131.878906 49.195312 131.300781 49.972656 130.800781 50.808594 C 130.300781 51.640625 129.886719 52.519531 129.558594 53.433594 C 129.230469 54.351562 128.992188 55.292969 128.851562 56.253906 C 128.707031 57.21875 128.660156 58.1875 128.707031 59.160156 C 128.753906 60.132812 128.898438 61.089844 129.132812 62.035156 C 129.371094 62.980469 129.695312 63.890625 130.113281 64.773438 L 133.824219 72.621094 C 133.359375 72.800781 132.933594 73.046875 132.542969 73.355469 C 132.152344 73.664062 131.816406 74.023438 131.535156 74.433594 C 131.253906 74.84375 131.039062 75.285156 130.890625 75.761719 C 130.742188 76.234375 130.667969 76.722656 130.667969 77.21875 L 130.667969 101.933594 C 130.667969 102.261719 130.699219 102.582031 130.765625 102.898438 C 130.828125 103.21875 130.921875 103.527344 131.046875 103.824219 C 131.171875 104.125 131.324219 104.410156 131.503906 104.679688 C 131.683594 104.949219 131.886719 105.199219 132.117188 105.429688 C 132.347656 105.660156 132.597656 105.863281 132.867188 106.042969 C 133.136719 106.222656 133.421875 106.375 133.71875 106.5 C 134.019531 106.625 134.328125 106.71875 134.648438 106.78125 C 134.964844 106.847656 135.285156 106.878906 135.613281 106.878906 L 161.316406 106.878906 C 161.640625 106.878906 161.960938 106.847656 162.28125 106.78125 C 162.597656 106.71875 162.90625 106.625 163.207031 106.5 C 163.507812 106.375 163.792969 106.222656 164.0625 106.042969 C 164.332031 105.863281 164.582031 105.660156 164.808594 105.429688 C 165.039062 105.199219 165.246094 104.949219 165.425781 104.679688 C 165.605469 104.410156 165.757812 104.125 165.882812 103.824219 C 166.007812 103.527344 166.101562 103.21875 166.164062 102.898438 C 166.226562 102.582031 166.257812 102.261719 166.257812 101.933594 L 166.257812 77.21875 C 166.257812 76.894531 166.226562 76.574219 166.164062 76.253906 C 166.101562 75.9375 166.007812 75.628906 165.882812 75.328125 C 165.757812 75.027344 165.605469 74.742188 165.425781 74.472656 C 165.246094 74.203125 165.039062 73.953125 164.808594 73.726562 C 164.582031 73.496094 164.332031 73.289062 164.0625 73.109375 C 163.792969 72.929688 163.507812 72.777344 163.207031 72.652344 C 162.90625 72.527344 162.597656 72.433594 162.28125 72.371094 C 161.960938 72.308594 161.640625 72.277344 161.316406 72.277344 L 142.402344 72.277344 L 137.261719 61.402344 C 137.070312 60.988281 136.917969 60.5625 136.808594 60.121094 C 136.699219 59.679688 136.632812 59.234375 136.613281 58.78125 C 136.589844 58.328125 136.613281 57.875 136.679688 57.425781 C 136.746094 56.976562 136.859375 56.539062 137.011719 56.109375 C 137.164062 55.683594 137.359375 55.273438 137.59375 54.886719 C 137.824219 54.496094 138.09375 54.132812 138.398438 53.796875 C 138.707031 53.460938 139.039062 53.15625 139.40625 52.886719 C 139.769531 52.613281 140.15625 52.382812 140.570312 52.1875 Z M 164.28125 77.21875 L 164.28125 101.933594 C 164.28125 102.328125 164.207031 102.707031 164.054688 103.070312 C 163.90625 103.433594 163.691406 103.753906 163.414062 104.03125 C 163.136719 104.3125 162.816406 104.523438 162.453125 104.675781 C 162.089844 104.824219 161.710938 104.902344 161.316406 104.902344 L 135.613281 104.902344 C 135.21875 104.902344 134.839844 104.824219 134.476562 104.675781 C 134.113281 104.523438 133.792969 104.3125 133.515625 104.03125 C 133.234375 103.753906 133.023438 103.433594 132.871094 103.070312 C 132.71875 102.707031 132.644531 102.328125 132.644531 101.933594 L 132.644531 77.21875 C 132.644531 76.824219 132.71875 76.449219 132.871094 76.082031 C 133.023438 75.71875 133.234375 75.398438 133.515625 75.121094 C 133.792969 74.84375 134.113281 74.628906 134.476562 74.480469 C 134.839844 74.328125 135.21875 74.253906 135.613281 74.253906 L 161.316406 74.253906 C 161.710938 74.253906 162.089844 74.328125 162.453125 74.480469 C 162.816406 74.628906 163.136719 74.84375 163.414062 75.121094 C 163.691406 75.398438 163.90625 75.71875 164.054688 76.082031 C 164.207031 76.449219 164.28125 76.824219 164.28125 77.21875 Z M 135.148438 55.4375 C 134.746094 56.550781 134.574219 57.695312 134.628906 58.871094 C 134.683594 60.050781 134.964844 61.175781 135.472656 62.242188 L 140.214844 72.277344 L 135.847656 72.277344 L 131.902344 63.925781 C 131.558594 63.167969 131.292969 62.378906 131.101562 61.566406 C 130.910156 60.753906 130.800781 59.933594 130.769531 59.097656 C 130.742188 58.265625 130.792969 57.4375 130.921875 56.613281 C 131.054688 55.789062 131.265625 54.984375 131.550781 54.199219 C 131.839844 53.417969 132.199219 52.667969 132.632812 51.957031 C 133.066406 51.242188 133.566406 50.578125 134.128906 49.964844 C 134.691406 49.347656 135.308594 48.792969 135.980469 48.296875 C 136.652344 47.800781 137.363281 47.375 138.121094 47.019531 C 138.875 46.660156 139.65625 46.378906 140.464844 46.175781 C 141.273438 45.972656 142.09375 45.847656 142.929688 45.800781 C 143.761719 45.757812 144.589844 45.792969 145.417969 45.910156 C 146.242188 46.027344 147.050781 46.222656 147.839844 46.496094 C 148.625 46.773438 149.378906 47.121094 150.101562 47.539062 C 150.820312 47.960938 151.496094 48.449219 152.121094 49 C 152.746094 49.554688 153.3125 50.160156 153.820312 50.824219 C 154.328125 51.484375 154.765625 52.191406 155.136719 52.9375 L 158.984375 61.082031 L 155.371094 62.695312 L 151.5625 54.632812 C 151.1875 53.839844 150.703125 53.113281 150.113281 52.464844 C 149.523438 51.8125 148.851562 51.261719 148.09375 50.808594 C 147.339844 50.355469 146.535156 50.023438 145.683594 49.808594 C 144.832031 49.597656 143.964844 49.511719 143.085938 49.554688 C 142.207031 49.597656 141.355469 49.765625 140.527344 50.0625 C 139.699219 50.359375 138.929688 50.769531 138.222656 51.292969 C 137.519531 51.816406 136.902344 52.429688 136.378906 53.136719 C 135.855469 53.84375 135.445312 54.609375 135.148438 55.4375 Z M 135.148438 55.4375 " fill-opacity="1" fill-rule="nonzero"/></g><path fill="#e7b67c" d="M 163.292969 57.445312 L 163.292969 52.503906 C 163.292969 52.230469 163.195312 51.996094 163.003906 51.804688 C 162.8125 51.609375 162.578125 51.515625 162.304688 51.515625 C 162.03125 51.515625 161.800781 51.609375 161.605469 51.804688 C 161.414062 51.996094 161.316406 52.230469 161.316406 52.503906 L 161.316406 57.445312 C 161.316406 57.71875 161.414062 57.953125 161.605469 58.144531 C 161.800781 58.339844 162.03125 58.433594 162.304688 58.433594 C 162.578125 58.433594 162.8125 58.339844 163.003906 58.144531 C 163.195312 57.953125 163.292969 57.71875 163.292969 57.445312 Z M 163.292969 57.445312 " fill-opacity="1" fill-rule="nonzero"/><path fill="#e7b67c" d="M 168.527344 53.78125 L 164.570312 57.734375 C 164.476562 57.828125 164.402344 57.933594 164.351562 58.054688 C 164.296875 58.179688 164.269531 58.304688 164.269531 58.4375 C 164.269531 58.570312 164.292969 58.699219 164.34375 58.820312 C 164.394531 58.945312 164.464844 59.050781 164.558594 59.144531 C 164.652344 59.238281 164.761719 59.3125 164.882812 59.363281 C 165.007812 59.410156 165.136719 59.4375 165.265625 59.433594 C 165.398438 59.433594 165.527344 59.40625 165.648438 59.355469 C 165.769531 59.300781 165.878906 59.230469 165.96875 59.132812 L 169.925781 55.179688 C 170.113281 54.984375 170.203125 54.753906 170.203125 54.484375 C 170.199219 54.214844 170.101562 53.984375 169.914062 53.792969 C 169.722656 53.601562 169.492188 53.503906 169.222656 53.503906 C 168.953125 53.5 168.71875 53.59375 168.527344 53.78125 Z M 168.527344 53.78125 " fill-opacity="1" fill-rule="nonzero"/><g clip-path="url(#4e6ca4a20c)"><path fill="#e7b67c" d="M 166.257812 61.402344 C 166.257812 61.671875 166.355469 61.90625 166.550781 62.097656 C 166.742188 62.292969 166.976562 62.390625 167.25 62.390625 L 171.203125 62.390625 C 171.476562 62.390625 171.710938 62.292969 171.902344 62.097656 C 172.09375 61.90625 172.191406 61.671875 172.191406 61.402344 C 172.191406 61.128906 172.09375 60.894531 171.902344 60.703125 C 171.710938 60.507812 171.476562 60.410156 171.203125 60.410156 L 167.25 60.410156 C 166.976562 60.410156 166.742188 60.507812 166.550781 60.703125 C 166.355469 60.894531 166.257812 61.128906 166.257812 61.402344 Z M 166.257812 61.402344 " fill-opacity="1" fill-rule="nonzero"/></g><path stroke-linecap="butt" transform="matrix(0.75, 0, 0, 0.75, 165.610906, 57.490923)" fill="none" stroke-linejoin="miter" d="M -0.00204085 37.897521 L 8.59171 37.897521 C 10.87296 37.897521 13.055252 36.991271 14.669835 35.381896 C 16.27921 33.772521 17.18546 31.585021 17.18546 29.30377 L 17.18546 29.168354 C 17.18546 24.345437 21.09171 20.433978 25.914627 20.433978 L 42.091712 20.433978 C 47.461504 20.433978 51.810462 16.08502 51.810462 10.715228 L 51.810462 1.001685 " stroke="#e7b67c" stroke-width="2" stroke-opacity="1" stroke-miterlimit="4"/><path stroke-linecap="round" transform="matrix(0.75, 0, 0, 0.75, 165.610906, 57.490923)" fill="none" stroke-linejoin="round" d="M 48.810462 5.001686 L 51.810462 1.001685 L 54.810462 5.001686 " stroke="#e7b67c" stroke-width="2" stroke-opacity="1" stroke-miterlimit="4"/><path stroke-linecap="butt" transform="matrix(0.75, 0, 0, 0.75, 71.944599, 104.440998)" fill="none" stroke-linejoin="miter" d="M 1.000951 42.787006 L 48.886371 42.787006 C 52.131163 42.787006 55.250954 41.495339 57.54783 39.198464 C 59.844705 36.901589 61.136371 33.787005 61.136371 30.537005 L 61.136371 28.979713 C 61.136371 23.073463 65.92283 18.287004 71.82908 18.287004 L 73.381164 18.287004 C 78.433247 18.287004 82.521789 14.193254 82.521789 9.141171 L 82.521789 0.00054499 " stroke="#e7b67c" stroke-width="2" stroke-opacity="1" stroke-miterlimit="4"/><path stroke-linecap="round" transform="matrix(0.75, 0, 0, 0.75, 71.944599, 104.440998)" fill="none" stroke-linejoin="round" d="M 5.000951 39.787006 L 1.000951 42.787006 L 5.000951 45.787006 " stroke="#e7b67c" stroke-width="2" stroke-opacity="1" stroke-miterlimit="4"/><path stroke-linecap="butt" transform="matrix(0.75, 0, 0, 0.75, 165.235906, 85.164599)" fill="none" stroke-linejoin="miter" d="M -0.00204088 21.332619 L 34.732336 21.332619 C 40.34692 21.332619 44.899003 16.780535 44.899003 11.165951 C 44.899003 5.551368 49.451087 0.999284 55.065671 0.999284 L 92.711506 0.999284 C 98.893798 0.999284 103.909424 6.014909 103.909424 12.197201 L 103.909424 13.915952 C 103.909424 16.426368 104.909424 18.837827 106.685465 20.619077 C 108.461507 22.395119 110.872966 23.395119 113.388591 23.395119 C 115.904216 23.395119 118.315674 24.389911 120.091716 26.171161 C 121.867758 27.947202 122.867758 30.358661 122.867758 32.874286 L 122.867758 44.889912 " stroke="#e7b67c" stroke-width="2" stroke-opacity="1" stroke-miterlimit="4"/><path stroke-linecap="round" transform="matrix(0.75, 0, 0, 0.75, 165.235906, 85.164599)" fill="none" stroke-linejoin="round" d="M 125.867758 40.889911 L 122.867758 44.889912 L 119.867758 40.889911 " stroke="#e7b67c" stroke-width="2" stroke-opacity="1" stroke-miterlimit="4"/><path stroke-linecap="butt" transform="matrix(0.75, 0, 0, 0.75, 158.626896, 104.815997)" fill="none" stroke-linejoin="miter" d="M 0.997471 0.000545019 L 0.997471 8.891171 C 0.997471 13.802629 4.981847 17.787004 9.893305 17.787004 L 19.429764 17.787004 C 22.679764 17.787004 25.794348 19.073463 28.091223 21.375546 C 30.388098 23.672421 31.679765 26.787005 31.679765 30.037005 C 31.679765 33.287005 32.971432 36.401589 35.268307 38.698464 C 37.565182 40.995339 40.679765 42.287006 43.929766 42.287006 L 121.934979 42.287006 " stroke="#e7b67c" stroke-width="2" stroke-opacity="1" stroke-miterlimit="4"/><path stroke-linecap="round" transform="matrix(0.75, 0, 0, 0.75, 158.626896, 104.815997)" fill="none" stroke-linejoin="round" d="M 117.934978 39.287006 L 121.934979 42.287006 L 117.934978 45.287006 " stroke="#e7b67c" stroke-width="2" stroke-opacity="1" stroke-miterlimit="4"/><path stroke-linecap="butt" transform="matrix(0.75, 0, 0, 0.75, 45.240569, 56.740923)" fill="none" stroke-linejoin="miter" d="M 114.585498 38.897521 L 85.85633 38.897521 C 81.033413 38.897521 77.121955 34.991271 77.121955 30.168354 C 77.121955 25.345437 73.215704 21.433978 68.392787 21.433978 L 68.059454 21.433978 C 65.658412 21.433978 63.35112 20.480853 61.653204 18.777728 C 59.950079 17.079811 58.996954 14.77252 58.996954 12.371478 L 58.996954 11.215228 C 58.996954 5.574602 54.424037 1.001685 48.778203 1.001685 L 1.002159 1.001685 " stroke="#e7b67c" stroke-width="2" stroke-opacity="1" stroke-miterlimit="4"/><path stroke-linecap="round" transform="matrix(0.75, 0, 0, 0.75, 45.240569, 56.740923)" fill="none" stroke-linejoin="round" d="M 5.002159 4.001686 L 1.002159 1.001685 L 5.002159 -1.998315 " stroke="#e7b67c" stroke-width="2" stroke-opacity="1" stroke-miterlimit="4"/><path stroke-linecap="butt" transform="matrix(0.75, 0, 0, 0.75, 44.490569, 90.462251)" fill="none" stroke-linejoin="miter" d="M 115.585498 14.269083 L 66.632371 14.269083 C 62.965704 14.269083 59.996954 11.300332 59.996954 7.633666 C 59.996954 3.972207 57.022995 0.998249 53.361537 0.998249 L 23.455285 0.998249 C 17.496951 0.998249 11.788617 3.36804 7.575076 7.576374 C 3.366742 11.789916 1.002158 17.49825 1.002158 23.456583 L 1.002158 45.90971 " stroke="#e7b67c" stroke-width="2" stroke-opacity="1" stroke-miterlimit="4"/><path stroke-linecap="round" transform="matrix(0.75, 0, 0, 0.75, 44.490569, 90.462251)" fill="none" stroke-linejoin="round" d="M 4.002159 41.909709 L 1.002158 45.90971 L -1.997842 41.909709 " stroke="#e7b67c" stroke-width="2" stroke-opacity="1" stroke-miterlimit="4"/><path stroke-linecap="butt" transform="matrix(0.75, 0, 0, 0.75, 144.460907, 22.584233)" fill="none" stroke-linejoin="miter" d="M 0.0000408359 29.241858 L 12.890667 29.241858 C 16.312542 29.241858 19.588584 27.882483 22.010459 25.465816 C 24.427126 23.049149 25.786501 19.767899 25.786501 16.346024 L 25.786501 15.122066 C 25.786501 11.377274 27.270876 7.783523 29.921918 5.13769 C 32.567751 2.486648 36.161501 1.002273 39.906293 1.002273 L 95.229213 1.002273 C 98.974005 1.002273 102.567755 2.486648 105.213589 5.13769 C 107.86463 7.783523 109.349006 11.377274 109.349006 15.122066 C 109.349006 18.866857 110.838589 22.455399 113.484422 25.106441 C 116.135464 27.752275 119.724006 29.241858 123.468798 29.241858 L 157.770883 29.241858 C 159.93755 29.241858 162.010467 30.101233 163.536509 31.627275 C 165.067759 33.158525 165.921926 35.231442 165.921926 37.3929 L 165.921926 45.543942 " stroke="#e7b67c" stroke-width="2" stroke-opacity="1" stroke-miterlimit="4"/><path stroke-linecap="round" transform="matrix(0.75, 0, 0, 0.75, 144.460907, 22.584233)" fill="none" stroke-linejoin="round" d="M 168.921926 41.543942 L 165.921926 45.543942 L 162.921925 41.543942 " stroke="#e7b67c" stroke-width="2" stroke-opacity="1" stroke-miterlimit="4"/><path stroke-linecap="butt" transform="matrix(0.75, 0, 0, 0.75, 76.002384, 9.026761)" fill="none" stroke-linejoin="miter" d="M 77.111409 81.058074 L 66.4187 81.058074 C 60.512449 81.058074 55.725991 76.271615 55.725991 70.365365 L 55.725991 68.25599 C 55.725991 65.052865 54.455157 61.985156 52.189532 59.719531 C 49.929115 57.459114 46.856198 56.188281 43.658282 56.188281 C 40.455156 56.188281 37.387448 54.917448 35.121823 52.651822 C 32.861406 50.386197 31.585364 47.318489 31.585364 44.115364 L 31.585364 16.292445 C 31.585364 12.235153 29.975989 8.349736 27.106197 5.479945 C 24.241614 2.610153 20.350989 1.000778 16.293697 1.000778 L 1.002029 1.000778 " stroke="#e7b67c" stroke-width="2" stroke-opacity="1" stroke-miterlimit="4"/><path stroke-linecap="round" transform="matrix(0.75, 0, 0, 0.75, 76.002384, 9.026761)" fill="none" stroke-linejoin="round" d="M 5.002029 4.000778 L 1.002029 1.000778 L 5.002029 -1.999222 " stroke="#e7b67c" stroke-width="2" stroke-opacity="1" stroke-miterlimit="4"/></svg>