<svg xmlns="http://www.w3.org/2000/svg" xmlns:xlink="http://www.w3.org/1999/xlink" width="400" zoomAndPan="magnify" viewBox="0 0 300 149.999998" height="200" preserveAspectRatio="xMidYMid meet" version="1.0"><defs><clipPath id="ae148d075a"><path d="M 113 20 L 179 20 L 179 130.683594 L 113 130.683594 Z M 113 20 " clip-rule="nonzero"/></clipPath><clipPath id="3df033183b"><path d="M 178 49 L 188.191406 49 L 188.191406 54 L 178 54 Z M 178 49 " clip-rule="nonzero"/></clipPath></defs><path fill="#e7b67c" d="M 142.515625 98.480469 L 139.886719 110.332031 C 139.820312 110.613281 139.789062 110.898438 139.792969 111.183594 C 139.792969 111.472656 139.824219 111.753906 139.890625 112.035156 C 139.953125 112.316406 140.046875 112.582031 140.175781 112.84375 C 140.300781 113.101562 140.453125 113.34375 140.632812 113.566406 C 140.808594 113.792969 141.011719 113.992188 141.238281 114.171875 C 141.460938 114.351562 141.703125 114.5 141.964844 114.625 C 142.222656 114.75 142.492188 114.84375 142.773438 114.910156 C 143.050781 114.972656 143.335938 115.003906 143.621094 115.003906 L 151.078125 115.003906 C 151.367188 115.003906 151.648438 114.972656 151.929688 114.910156 C 152.207031 114.84375 152.476562 114.75 152.734375 114.625 C 152.996094 114.503906 153.234375 114.351562 153.460938 114.171875 C 153.683594 113.996094 153.886719 113.792969 154.066406 113.570312 C 154.246094 113.34375 154.398438 113.105469 154.523438 112.847656 C 154.648438 112.589844 154.746094 112.320312 154.808594 112.039062 C 154.875 111.761719 154.90625 111.476562 154.910156 111.191406 C 154.910156 110.90625 154.878906 110.621094 154.816406 110.339844 L 152.183594 98.492188 C 152.546875 98.222656 152.882812 97.921875 153.195312 97.59375 C 153.507812 97.265625 153.789062 96.917969 154.039062 96.542969 C 154.292969 96.167969 154.511719 95.773438 154.699219 95.363281 C 154.886719 94.949219 155.039062 94.527344 155.152344 94.089844 C 155.269531 93.652344 155.347656 93.210938 155.386719 92.757812 C 155.429688 92.308594 155.429688 91.859375 155.398438 91.410156 C 155.363281 90.957031 155.289062 90.511719 155.179688 90.074219 C 155.070312 89.636719 154.925781 89.210938 154.746094 88.796875 C 154.5625 88.382812 154.347656 87.984375 154.101562 87.609375 C 153.855469 87.230469 153.578125 86.875 153.269531 86.542969 C 152.960938 86.210938 152.628906 85.90625 152.273438 85.632812 C 151.914062 85.355469 151.535156 85.113281 151.136719 84.902344 C 150.738281 84.6875 150.324219 84.511719 149.894531 84.371094 C 149.464844 84.226562 149.027344 84.121094 148.582031 84.050781 C 148.132812 83.984375 147.683594 83.953125 147.234375 83.957031 C 146.78125 83.964844 146.332031 84.007812 145.890625 84.089844 C 145.117188 84.230469 144.378906 84.480469 143.679688 84.835938 C 142.976562 85.191406 142.34375 85.640625 141.773438 86.179688 C 141.203125 86.722656 140.726562 87.332031 140.335938 88.015625 C 139.945312 88.695312 139.660156 89.417969 139.480469 90.183594 C 139.300781 90.949219 139.234375 91.722656 139.28125 92.507812 C 139.328125 93.292969 139.488281 94.054688 139.757812 94.792969 C 140.027344 95.527344 140.398438 96.210938 140.867188 96.84375 C 141.335938 97.472656 141.886719 98.019531 142.515625 98.488281 Z M 142.75 91.222656 C 142.835938 90.757812 142.988281 90.3125 143.207031 89.894531 C 143.425781 89.472656 143.703125 89.09375 144.035156 88.757812 C 144.367188 88.421875 144.742188 88.140625 145.160156 87.917969 C 145.578125 87.691406 146.019531 87.535156 146.484375 87.441406 C 146.769531 87.390625 147.058594 87.367188 147.351562 87.363281 C 148.480469 87.359375 149.476562 87.722656 150.339844 88.453125 C 150.636719 88.699219 150.898438 88.976562 151.125 89.289062 C 151.351562 89.601562 151.535156 89.933594 151.679688 90.289062 C 151.824219 90.648438 151.921875 91.015625 151.972656 91.398438 C 152.023438 91.78125 152.027344 92.160156 151.984375 92.542969 C 151.941406 92.925781 151.851562 93.296875 151.714844 93.65625 C 151.582031 94.015625 151.402344 94.355469 151.183594 94.671875 C 150.964844 94.988281 150.707031 95.269531 150.417969 95.523438 C 150.128906 95.777344 149.8125 95.988281 149.46875 96.164062 C 149.125 96.339844 148.871094 96.605469 148.707031 96.957031 C 148.542969 97.308594 148.5 97.671875 148.585938 98.050781 L 151.488281 111.074219 C 151.519531 111.203125 151.492188 111.324219 151.40625 111.429688 C 151.320312 111.535156 151.214844 111.585938 151.078125 111.582031 L 143.621094 111.582031 C 143.488281 111.585938 143.378906 111.535156 143.296875 111.429688 C 143.210938 111.324219 143.183594 111.203125 143.214844 111.074219 L 146.117188 98.050781 C 146.199219 97.671875 146.160156 97.308594 145.996094 96.957031 C 145.832031 96.605469 145.578125 96.339844 145.234375 96.164062 C 144.789062 95.941406 144.386719 95.652344 144.035156 95.300781 C 143.679688 94.949219 143.390625 94.550781 143.167969 94.105469 C 142.941406 93.660156 142.792969 93.191406 142.722656 92.699219 C 142.648438 92.207031 142.65625 91.714844 142.746094 91.222656 Z M 142.75 91.222656 " fill-opacity="1" fill-rule="nonzero"/><g clip-path="url(#ae148d075a)"><path fill="#e7b67c" d="M 133.722656 35.628906 C 134.429688 35.296875 135.164062 35.035156 135.925781 34.84375 C 136.6875 34.652344 137.457031 34.539062 138.238281 34.503906 C 139.023438 34.464844 139.800781 34.503906 140.578125 34.617188 C 141.351562 34.734375 142.109375 34.921875 142.847656 35.1875 C 143.582031 35.449219 144.289062 35.785156 144.960938 36.1875 C 145.632812 36.589844 146.257812 37.054688 146.839844 37.578125 C 147.421875 38.105469 147.945312 38.683594 148.414062 39.3125 C 148.878906 39.941406 149.28125 40.609375 149.617188 41.316406 L 156.902344 56.738281 C 157 56.941406 157.128906 57.117188 157.292969 57.269531 C 157.457031 57.417969 157.644531 57.535156 157.855469 57.613281 C 158.0625 57.6875 158.28125 57.722656 158.503906 57.714844 C 158.726562 57.710938 158.941406 57.660156 159.144531 57.570312 L 168.492188 53.386719 C 168.703125 53.296875 168.886719 53.164062 169.046875 53 C 169.203125 52.832031 169.320312 52.640625 169.402344 52.425781 C 169.480469 52.207031 169.515625 51.988281 169.507812 51.757812 C 169.5 51.527344 169.445312 51.308594 169.347656 51.101562 L 161.957031 35.472656 C 161.601562 34.714844 161.207031 33.976562 160.773438 33.257812 C 160.34375 32.539062 159.878906 31.84375 159.378906 31.171875 C 158.878906 30.496094 158.347656 29.851562 157.785156 29.230469 C 157.222656 28.609375 156.632812 28.015625 156.011719 27.453125 C 155.390625 26.890625 154.742188 26.359375 154.070312 25.859375 C 153.394531 25.359375 152.699219 24.894531 151.980469 24.464844 C 151.261719 24.03125 150.523438 23.636719 149.765625 23.277344 C 149.007812 22.921875 148.234375 22.601562 147.445312 22.316406 C 146.65625 22.035156 145.855469 21.792969 145.042969 21.589844 C 144.230469 21.382812 143.40625 21.222656 142.578125 21.097656 C 141.75 20.976562 140.917969 20.894531 140.078125 20.851562 C 139.242188 20.808594 138.40625 20.808594 137.566406 20.851562 C 136.730469 20.890625 135.898438 20.972656 135.066406 21.097656 C 134.238281 21.21875 133.417969 21.382812 132.605469 21.585938 C 131.792969 21.789062 130.992188 22.035156 130.199219 22.316406 C 129.410156 22.597656 128.636719 22.917969 127.878906 23.277344 C 127.121094 23.636719 126.382812 24.03125 125.664062 24.460938 C 124.945312 24.890625 124.25 25.355469 123.578125 25.855469 C 122.902344 26.355469 122.257812 26.886719 121.636719 27.449219 C 121.015625 28.011719 120.421875 28.605469 119.859375 29.226562 C 119.296875 29.847656 118.765625 30.492188 118.265625 31.167969 C 117.765625 31.839844 117.300781 32.535156 116.871094 33.253906 C 116.4375 33.972656 116.042969 34.710938 115.683594 35.46875 C 115.328125 36.226562 115.007812 37 114.722656 37.789062 C 114.441406 38.578125 114.199219 39.378906 113.996094 40.195312 C 113.789062 41.007812 113.628906 41.828125 113.503906 42.65625 C 113.382812 43.484375 113.300781 44.320312 113.257812 45.15625 C 113.21875 45.992188 113.214844 46.832031 113.257812 47.667969 C 113.296875 48.503906 113.378906 49.339844 113.503906 50.167969 C 113.625 50.996094 113.789062 51.816406 113.992188 52.632812 C 114.195312 53.445312 114.441406 54.246094 114.722656 55.035156 C 115.003906 55.824219 115.324219 56.597656 115.683594 57.355469 L 122.085938 70.902344 C 121.285156 71.210938 120.550781 71.632812 119.875 72.167969 C 119.203125 72.699219 118.625 73.320312 118.136719 74.027344 C 117.652344 74.734375 117.28125 75.496094 117.027344 76.316406 C 116.769531 77.136719 116.644531 77.976562 116.640625 78.832031 L 116.640625 121.488281 C 116.640625 122.046875 116.695312 122.601562 116.804688 123.152344 C 116.914062 123.699219 117.078125 124.234375 117.292969 124.75 C 117.507812 125.265625 117.769531 125.757812 118.082031 126.222656 C 118.390625 126.691406 118.746094 127.121094 119.140625 127.515625 C 119.539062 127.914062 119.96875 128.265625 120.433594 128.578125 C 120.898438 128.886719 121.390625 129.152344 121.90625 129.367188 C 122.425781 129.582031 122.957031 129.742188 123.507812 129.851562 C 124.058594 129.960938 124.609375 130.015625 125.171875 130.019531 L 169.53125 130.019531 C 170.089844 130.015625 170.644531 129.960938 171.195312 129.851562 C 171.742188 129.742188 172.277344 129.582031 172.792969 129.367188 C 173.3125 129.152344 173.800781 128.886719 174.269531 128.578125 C 174.734375 128.265625 175.164062 127.914062 175.558594 127.515625 C 175.957031 127.121094 176.308594 126.691406 176.621094 126.222656 C 176.933594 125.757812 177.195312 125.265625 177.410156 124.75 C 177.625 124.234375 177.785156 123.699219 177.894531 123.152344 C 178.003906 122.601562 178.0625 122.046875 178.0625 121.488281 L 178.0625 78.832031 C 178.0625 78.273438 178.003906 77.71875 177.894531 77.171875 C 177.785156 76.621094 177.625 76.089844 177.410156 75.570312 C 177.195312 75.054688 176.933594 74.5625 176.621094 74.097656 C 176.308594 73.632812 175.957031 73.199219 175.558594 72.804688 C 175.164062 72.410156 174.734375 72.054688 174.269531 71.742188 C 173.800781 71.433594 173.3125 71.167969 172.792969 70.957031 C 172.277344 70.742188 171.742188 70.578125 171.195312 70.46875 C 170.644531 70.359375 170.089844 70.304688 169.53125 70.304688 L 136.890625 70.304688 L 128.019531 51.535156 C 127.6875 50.828125 127.425781 50.089844 127.238281 49.332031 C 127.046875 48.570312 126.933594 47.796875 126.898438 47.015625 C 126.859375 46.230469 126.898438 45.453125 127.015625 44.675781 C 127.132812 43.902344 127.320312 43.144531 127.585938 42.40625 C 127.851562 41.667969 128.1875 40.964844 128.589844 40.292969 C 128.992188 39.621094 129.457031 38.992188 129.984375 38.410156 C 130.511719 37.832031 131.089844 37.308594 131.71875 36.839844 C 132.347656 36.375 133.015625 35.972656 133.726562 35.636719 Z M 174.648438 78.832031 L 174.648438 121.488281 C 174.648438 121.824219 174.617188 122.15625 174.550781 122.484375 C 174.484375 122.816406 174.386719 123.136719 174.257812 123.445312 C 174.128906 123.757812 173.972656 124.050781 173.785156 124.332031 C 173.601562 124.609375 173.386719 124.867188 173.148438 125.105469 C 172.914062 125.34375 172.652344 125.554688 172.375 125.742188 C 172.09375 125.929688 171.800781 126.085938 171.488281 126.214844 C 171.179688 126.34375 170.859375 126.441406 170.527344 126.507812 C 170.199219 126.574219 169.867188 126.605469 169.53125 126.605469 L 125.171875 126.605469 C 124.835938 126.605469 124.503906 126.574219 124.171875 126.507812 C 123.84375 126.441406 123.523438 126.34375 123.210938 126.214844 C 122.902344 126.085938 122.605469 125.929688 122.328125 125.742188 C 122.046875 125.554688 121.789062 125.34375 121.550781 125.105469 C 121.3125 124.867188 121.101562 124.609375 120.914062 124.332031 C 120.730469 124.050781 120.570312 123.757812 120.441406 123.445312 C 120.3125 123.136719 120.214844 122.816406 120.152344 122.484375 C 120.085938 122.15625 120.050781 121.824219 120.050781 121.488281 L 120.050781 78.832031 C 120.050781 78.496094 120.085938 78.164062 120.152344 77.835938 C 120.214844 77.503906 120.3125 77.1875 120.441406 76.875 C 120.570312 76.566406 120.730469 76.269531 120.914062 75.988281 C 121.101562 75.710938 121.3125 75.453125 121.550781 75.214844 C 121.789062 74.976562 122.046875 74.765625 122.328125 74.578125 C 122.605469 74.390625 122.902344 74.234375 123.210938 74.105469 C 123.523438 73.976562 123.84375 73.878906 124.171875 73.8125 C 124.503906 73.75 124.835938 73.714844 125.171875 73.714844 L 169.53125 73.714844 C 169.867188 73.714844 170.199219 73.75 170.527344 73.8125 C 170.859375 73.878906 171.179688 73.976562 171.488281 74.105469 C 171.800781 74.234375 172.09375 74.390625 172.375 74.578125 C 172.652344 74.765625 172.914062 74.976562 173.148438 75.214844 C 173.386719 75.453125 173.601562 75.710938 173.785156 75.988281 C 173.972656 76.269531 174.128906 76.566406 174.257812 76.875 C 174.386719 77.1875 174.484375 77.503906 174.550781 77.835938 C 174.617188 78.164062 174.648438 78.496094 174.648438 78.832031 Z M 124.371094 41.246094 C 123.675781 43.164062 123.378906 45.136719 123.476562 47.171875 C 123.574219 49.207031 124.058594 51.148438 124.929688 52.988281 L 133.117188 70.304688 L 125.578125 70.304688 L 118.769531 55.898438 C 118.472656 55.242188 118.210938 54.574219 117.980469 53.894531 C 117.75 53.214844 117.550781 52.523438 117.386719 51.824219 C 117.222656 51.125 117.09375 50.421875 117 49.707031 C 116.902344 48.996094 116.84375 48.28125 116.816406 47.5625 C 116.792969 46.84375 116.800781 46.128906 116.84375 45.410156 C 116.886719 44.695312 116.964844 43.980469 117.078125 43.273438 C 117.191406 42.5625 117.339844 41.859375 117.523438 41.164062 C 117.703125 40.46875 117.917969 39.785156 118.164062 39.109375 C 118.414062 38.4375 118.691406 37.777344 119.003906 37.128906 C 119.316406 36.480469 119.660156 35.851562 120.035156 35.238281 C 120.40625 34.625 120.808594 34.03125 121.238281 33.457031 C 121.671875 32.882812 122.128906 32.328125 122.613281 31.796875 C 123.097656 31.269531 123.609375 30.761719 124.140625 30.28125 C 124.675781 29.800781 125.230469 29.347656 125.808594 28.921875 C 126.386719 28.496094 126.984375 28.097656 127.601562 27.730469 C 128.21875 27.359375 128.851562 27.023438 129.5 26.714844 C 130.148438 26.40625 130.8125 26.132812 131.488281 25.890625 C 132.164062 25.648438 132.851562 25.4375 133.546875 25.261719 C 134.242188 25.085938 134.945312 24.945312 135.65625 24.835938 C 136.367188 24.730469 137.078125 24.65625 137.796875 24.617188 C 138.515625 24.578125 139.230469 24.574219 139.949219 24.605469 C 140.667969 24.636719 141.382812 24.703125 142.09375 24.804688 C 142.804688 24.90625 143.507812 25.039062 144.207031 25.210938 C 144.90625 25.378906 145.59375 25.582031 146.273438 25.816406 C 146.949219 26.054688 147.617188 26.320312 148.269531 26.621094 C 148.921875 26.921875 149.554688 27.253906 150.175781 27.617188 C 150.796875 27.980469 151.398438 28.371094 151.980469 28.792969 C 152.5625 29.214844 153.121094 29.660156 153.660156 30.136719 C 154.199219 30.613281 154.714844 31.113281 155.203125 31.636719 C 155.691406 32.164062 156.15625 32.710938 156.59375 33.28125 C 157.03125 33.851562 157.4375 34.441406 157.816406 35.050781 C 158.195312 35.660156 158.546875 36.289062 158.863281 36.933594 L 165.507812 50.984375 L 159.273438 53.773438 L 152.703125 39.855469 C 152.378906 39.175781 152.007812 38.519531 151.585938 37.894531 C 151.167969 37.265625 150.703125 36.671875 150.199219 36.113281 C 149.691406 35.554688 149.144531 35.035156 148.5625 34.558594 C 147.976562 34.078125 147.363281 33.644531 146.714844 33.257812 C 146.066406 32.871094 145.394531 32.53125 144.699219 32.242188 C 144 31.953125 143.285156 31.71875 142.554688 31.535156 C 141.820312 31.351562 141.078125 31.222656 140.328125 31.148438 C 139.578125 31.074219 138.824219 31.054688 138.070312 31.09375 C 137.316406 31.128906 136.570312 31.222656 135.828125 31.367188 C 135.089844 31.515625 134.363281 31.714844 133.652344 31.972656 C 132.941406 32.226562 132.253906 32.53125 131.589844 32.886719 C 130.921875 33.242188 130.285156 33.644531 129.679688 34.09375 C 129.074219 34.542969 128.503906 35.035156 127.96875 35.566406 C 127.4375 36.101562 126.945312 36.671875 126.496094 37.277344 C 126.042969 37.882812 125.640625 38.519531 125.285156 39.183594 C 124.929688 39.847656 124.625 40.539062 124.371094 41.246094 Z M 124.371094 41.246094 " fill-opacity="1" fill-rule="nonzero"/></g><path fill="#e7b67c" d="M 172.941406 44.710938 L 172.941406 36.179688 C 172.941406 35.953125 172.898438 35.738281 172.8125 35.527344 C 172.726562 35.320312 172.601562 35.132812 172.441406 34.972656 C 172.28125 34.8125 172.097656 34.691406 171.890625 34.605469 C 171.679688 34.519531 171.464844 34.472656 171.238281 34.472656 C 171.011719 34.472656 170.792969 34.519531 170.582031 34.605469 C 170.375 34.691406 170.191406 34.8125 170.03125 34.972656 C 169.871094 35.132812 169.746094 35.320312 169.660156 35.527344 C 169.574219 35.738281 169.53125 35.953125 169.53125 36.179688 L 169.53125 44.710938 C 169.53125 44.9375 169.574219 45.15625 169.660156 45.363281 C 169.746094 45.574219 169.871094 45.757812 170.03125 45.917969 C 170.191406 46.078125 170.375 46.199219 170.582031 46.289062 C 170.792969 46.375 171.011719 46.417969 171.238281 46.417969 C 171.464844 46.417969 171.679688 46.375 171.890625 46.289062 C 172.097656 46.199219 172.28125 46.078125 172.441406 45.917969 C 172.601562 45.757812 172.726562 45.574219 172.8125 45.363281 C 172.898438 45.15625 172.941406 44.9375 172.941406 44.710938 Z M 172.941406 44.710938 " fill-opacity="1" fill-rule="nonzero"/><path fill="#e7b67c" d="M 181.972656 38.386719 L 175.148438 45.210938 C 174.984375 45.371094 174.855469 45.554688 174.765625 45.765625 C 174.675781 45.976562 174.628906 46.195312 174.628906 46.421875 C 174.625 46.652344 174.667969 46.871094 174.753906 47.085938 C 174.84375 47.296875 174.964844 47.484375 175.128906 47.644531 C 175.289062 47.804688 175.476562 47.929688 175.6875 48.015625 C 175.898438 48.105469 176.121094 48.144531 176.347656 48.144531 C 176.578125 48.140625 176.796875 48.097656 177.007812 48.003906 C 177.21875 47.914062 177.402344 47.789062 177.5625 47.625 L 184.386719 40.800781 C 184.542969 40.636719 184.660156 40.453125 184.742188 40.246094 C 184.828125 40.039062 184.867188 39.824219 184.863281 39.597656 C 184.863281 39.375 184.820312 39.160156 184.730469 38.953125 C 184.644531 38.746094 184.523438 38.566406 184.363281 38.40625 C 184.207031 38.25 184.023438 38.125 183.820312 38.039062 C 183.613281 37.953125 183.398438 37.910156 183.171875 37.90625 C 182.949219 37.90625 182.734375 37.945312 182.527344 38.027344 C 182.320312 38.113281 182.132812 38.230469 181.972656 38.386719 Z M 181.972656 38.386719 " fill-opacity="1" fill-rule="nonzero"/><g clip-path="url(#3df033183b)"><path fill="#e7b67c" d="M 178.0625 51.535156 C 178.0625 51.761719 178.105469 51.980469 178.191406 52.1875 C 178.277344 52.398438 178.402344 52.582031 178.5625 52.742188 C 178.722656 52.902344 178.90625 53.023438 179.113281 53.113281 C 179.324219 53.199219 179.542969 53.242188 179.765625 53.242188 L 186.59375 53.242188 C 186.816406 53.242188 187.035156 53.199219 187.246094 53.113281 C 187.453125 53.023438 187.636719 52.902344 187.796875 52.742188 C 187.957031 52.582031 188.082031 52.398438 188.167969 52.1875 C 188.253906 51.980469 188.296875 51.761719 188.296875 51.535156 C 188.296875 51.308594 188.253906 51.089844 188.167969 50.882812 C 188.082031 50.671875 187.957031 50.488281 187.796875 50.328125 C 187.636719 50.167969 187.453125 50.046875 187.246094 49.960938 C 187.035156 49.871094 186.816406 49.828125 186.59375 49.828125 L 179.765625 49.828125 C 179.542969 49.828125 179.324219 49.871094 179.113281 49.960938 C 178.90625 50.046875 178.722656 50.167969 178.5625 50.328125 C 178.402344 50.488281 178.277344 50.671875 178.191406 50.882812 C 178.105469 51.089844 178.0625 51.308594 178.0625 51.535156 Z M 178.0625 51.535156 " fill-opacity="1" fill-rule="nonzero"/></g></svg>