<svg xmlns="http://www.w3.org/2000/svg" xmlns:xlink="http://www.w3.org/1999/xlink" width="400" zoomAndPan="magnify" viewBox="0 0 300 149.999998" height="200" preserveAspectRatio="xMidYMid meet" version="1.0"><defs><clipPath id="c75ba5efeb"><path d="M 180 21.429688 L 299 21.429688 L 299 131.679688 L 180 131.679688 Z M 180 21.429688 " clip-rule="nonzero"/></clipPath></defs><g clip-path="url(#c75ba5efeb)"><path fill="#e7b67c" d="M 297.824219 35.773438 C 297.785156 35.355469 297.570312 34.992188 297.222656 34.757812 C 296.878906 34.519531 296.445312 34.464844 296.0625 34.59375 C 293.285156 35.484375 287.582031 36.953125 280.683594 36.773438 C 275.070312 36.644531 269.859375 35.445312 265.15625 33.230469 C 259.910156 30.742188 255.296875 26.949219 251.449219 21.957031 C 251.175781 21.609375 250.777344 21.429688 250.339844 21.429688 C 249.90625 21.429688 249.503906 21.644531 249.269531 22.007812 C 245.910156 26.839844 241.625 30.527344 236.523438 32.957031 C 231.929688 35.15625 226.664062 36.355469 220.871094 36.535156 C 213.679688 36.753906 207.542969 35.355469 204.546875 34.519531 C 204.164062 34.410156 203.746094 34.484375 203.402344 34.703125 C 203.074219 34.9375 202.859375 35.300781 202.820312 35.699219 C 202.257812 41.839844 202.023438 47.738281 202.132812 53.386719 C 189.820312 54.078125 180.015625 64.316406 180.015625 76.792969 C 180.015625 89.71875 190.527344 100.234375 203.457031 100.234375 C 206.691406 100.234375 209.777344 99.578125 212.574219 98.382812 C 212.863281 98.90625 213.152344 99.453125 213.445312 99.980469 C 221.617188 114.523438 233.871094 125.074219 249.851562 131.28125 C 250.015625 131.335938 250.175781 131.375 250.339844 131.375 C 250.484375 131.375 250.648438 131.355469 250.792969 131.300781 C 268.808594 124.910156 281.355469 114.214844 289.179688 98.597656 C 297.152344 82.691406 299.984375 62.15625 297.824219 35.773438 Z M 211.519531 96.3125 C 209.03125 97.347656 206.308594 97.910156 203.457031 97.910156 C 191.816406 97.910156 182.339844 88.429688 182.339844 76.792969 C 182.339844 65.570312 191.148438 56.363281 202.203125 55.710938 C 202.621094 55.691406 203.039062 55.675781 203.476562 55.675781 C 203.964844 55.675781 204.4375 55.691406 204.929688 55.730469 C 215.894531 56.472656 224.59375 65.644531 224.59375 76.792969 C 224.59375 84.597656 220.34375 91.425781 214.023438 95.078125 C 213.226562 95.546875 212.371094 95.964844 211.519531 96.3125 Z M 250.359375 128.578125 C 239.410156 124.21875 224.757812 115.285156 215.078125 97.144531 C 216.804688 96.164062 218.382812 94.96875 219.800781 93.585938 C 220.144531 93.261719 220.453125 92.914062 220.78125 92.570312 L 232.164062 92.570312 L 240.570312 107.988281 L 247.90625 107.988281 C 248.179688 109.058594 249.160156 109.875 250.324219 109.875 C 251.703125 109.875 252.808594 108.75 252.808594 107.386719 C 252.808594 106.007812 251.703125 104.898438 250.324219 104.898438 C 249.160156 104.898438 248.179688 105.699219 247.90625 106.789062 L 241.296875 106.789062 L 232.875 91.371094 L 221.816406 91.371094 C 222.179688 90.917969 222.542969 90.429688 222.867188 89.957031 C 223.085938 89.628906 223.304688 89.285156 223.503906 88.9375 L 236.832031 88.9375 L 240.515625 95.238281 C 240.046875 95.695312 239.738281 96.347656 239.738281 97.054688 C 239.738281 98.417969 240.863281 99.542969 242.222656 99.542969 C 243.605469 99.542969 244.710938 98.417969 244.710938 97.054688 C 244.710938 95.675781 243.585938 94.566406 242.222656 94.566406 C 242.007812 94.566406 241.789062 94.605469 241.570312 94.660156 L 237.519531 87.703125 L 224.195312 87.703125 C 224.449219 87.230469 224.683594 86.761719 224.882812 86.289062 C 225.027344 85.960938 225.175781 85.617188 225.300781 85.269531 L 254.570312 85.269531 L 258.695312 88.011719 L 273.492188 88.011719 C 273.765625 89.101562 274.746094 89.902344 275.90625 89.902344 C 277.285156 89.902344 278.394531 88.777344 278.394531 87.414062 C 278.394531 86.035156 277.269531 84.925781 275.90625 84.925781 C 274.746094 84.925781 273.765625 85.726562 273.492188 86.816406 L 259.054688 86.816406 L 254.933594 84.074219 L 225.738281 84.074219 C 225.882812 83.601562 226.027344 83.128906 226.15625 82.65625 C 226.246094 82.328125 226.316406 81.984375 226.390625 81.640625 L 259.636719 81.640625 C 259.910156 82.710938 260.890625 83.527344 262.050781 83.527344 C 263.433594 83.527344 264.539062 82.402344 264.539062 81.039062 C 264.539062 79.660156 263.414062 78.554688 262.050781 78.554688 C 260.890625 78.554688 259.910156 79.351562 259.636719 80.441406 L 226.625 80.441406 C 226.699219 79.96875 226.753906 79.496094 226.808594 79.023438 C 226.84375 78.699219 226.863281 78.351562 226.882812 78.007812 L 243.929688 78.007812 L 247.472656 72.851562 C 247.726562 72.941406 248.015625 72.996094 248.308594 72.996094 C 249.6875 72.996094 250.792969 71.871094 250.792969 70.507812 C 250.792969 69.128906 249.667969 68.019531 248.308594 68.019531 C 246.945312 68.019531 245.820312 69.148438 245.820312 70.507812 C 245.820312 71.144531 246.054688 71.726562 246.453125 72.179688 L 243.277344 76.792969 L 226.917969 76.792969 C 226.917969 76.320312 226.898438 75.828125 226.863281 75.375 C 226.84375 75.03125 226.808594 74.703125 226.773438 74.359375 L 238.683594 74.359375 L 244.058594 65.316406 L 284.351562 65.316406 C 284.621094 66.386719 285.601562 67.203125 286.765625 67.203125 C 288.144531 67.203125 289.253906 66.078125 289.253906 64.714844 C 289.253906 63.335938 288.144531 62.230469 286.765625 62.230469 C 285.601562 62.230469 284.621094 63.027344 284.351562 64.117188 L 243.367188 64.117188 L 237.992188 73.160156 L 226.609375 73.160156 C 226.535156 72.6875 226.445312 72.199219 226.335938 71.742188 C 226.261719 71.398438 226.171875 71.070312 226.082031 70.726562 L 235.542969 70.726562 L 241.734375 59.921875 L 258.949219 59.921875 C 259.21875 60.996094 260.199219 61.8125 261.363281 61.8125 C 262.742188 61.8125 263.851562 60.6875 263.851562 59.324219 C 263.851562 57.960938 262.722656 56.835938 261.363281 56.835938 C 260.199219 56.835938 259.21875 57.636719 258.949219 58.726562 L 241.027344 58.726562 L 234.851562 69.527344 L 225.738281 69.527344 C 225.574219 69.039062 225.410156 68.566406 225.210938 68.113281 C 225.082031 67.765625 224.9375 67.441406 224.773438 67.09375 L 234.433594 67.09375 L 241.425781 54.929688 L 270.675781 54.929688 C 270.949219 56 271.929688 56.816406 273.09375 56.816406 C 274.472656 56.816406 275.582031 55.691406 275.582031 54.332031 C 275.582031 52.949219 274.453125 51.84375 273.09375 51.84375 C 271.929688 51.84375 270.949219 52.640625 270.675781 53.730469 L 240.71875 53.730469 L 233.726562 65.898438 L 224.15625 65.898438 C 223.902344 65.40625 223.628906 64.933594 223.339844 64.480469 C 223.121094 64.136719 222.90625 63.808594 222.667969 63.464844 L 229.878906 63.464844 L 240.046875 44.5625 L 252.828125 44.5625 C 253.101562 45.632812 254.082031 46.449219 255.242188 46.449219 C 256.625 46.449219 257.730469 45.324219 257.730469 43.960938 C 257.730469 42.601562 256.625 41.476562 255.242188 41.476562 C 254.082031 41.476562 253.101562 42.273438 252.828125 43.363281 L 239.335938 43.363281 L 229.167969 62.285156 L 221.777344 62.285156 C 217.746094 57.253906 211.699219 53.914062 204.855469 53.511719 C 204.765625 48.539062 204.929688 43.273438 205.398438 37.660156 C 208.867188 38.53125 214.496094 39.566406 220.980469 39.367188 C 227.152344 39.1875 232.78125 37.878906 237.703125 35.519531 C 242.695312 33.121094 246.980469 29.636719 250.429688 25.113281 C 254.300781 29.761719 258.875 33.339844 263.996094 35.773438 C 269.042969 38.152344 274.636719 39.441406 280.609375 39.585938 C 286.746094 39.730469 291.976562 38.660156 295.246094 37.753906 C 298.949219 87.25 284.660156 116.175781 250.359375 128.578125 Z M 249.035156 107.371094 C 249.035156 106.660156 249.613281 106.097656 250.304688 106.097656 C 251.011719 106.097656 251.574219 106.660156 251.574219 107.371094 C 251.574219 108.078125 250.996094 108.640625 250.304688 108.640625 C 249.613281 108.660156 249.035156 108.078125 249.035156 107.371094 Z M 240.953125 97.039062 C 240.953125 96.328125 241.535156 95.765625 242.222656 95.765625 C 242.933594 95.765625 243.496094 96.347656 243.496094 97.039062 C 243.496094 97.746094 242.914062 98.308594 242.222656 98.308594 C 241.535156 98.308594 240.953125 97.726562 240.953125 97.039062 Z M 274.636719 87.394531 C 274.636719 86.6875 275.21875 86.125 275.90625 86.125 C 276.613281 86.125 277.179688 86.707031 277.179688 87.394531 C 277.179688 88.105469 276.613281 88.667969 275.90625 88.667969 C 275.199219 88.683594 274.636719 88.105469 274.636719 87.394531 Z M 260.78125 81.023438 C 260.78125 80.3125 261.34375 79.75 262.050781 79.75 C 262.761719 79.75 263.324219 80.332031 263.324219 81.023438 C 263.324219 81.730469 262.761719 82.292969 262.050781 82.292969 C 261.34375 82.292969 260.78125 81.710938 260.78125 81.023438 Z M 247.019531 70.492188 C 247.019531 69.78125 247.582031 69.21875 248.289062 69.21875 C 248.996094 69.21875 249.558594 69.78125 249.558594 70.492188 C 249.558594 71.199219 248.980469 71.761719 248.289062 71.761719 C 247.582031 71.761719 247.019531 71.179688 247.019531 70.492188 Z M 285.476562 64.664062 C 285.476562 63.953125 286.058594 63.390625 286.746094 63.390625 C 287.457031 63.390625 288.019531 63.972656 288.019531 64.664062 C 288.019531 65.371094 287.4375 65.933594 286.746094 65.933594 C 286.058594 65.933594 285.476562 65.371094 285.476562 64.664062 Z M 260.089844 59.269531 C 260.089844 58.5625 260.671875 58 261.363281 58 C 262.070312 58 262.632812 58.5625 262.632812 59.269531 C 262.632812 59.976562 262.070312 60.539062 261.363281 60.539062 C 260.65625 60.539062 260.089844 59.976562 260.089844 59.269531 Z M 271.820312 54.257812 C 271.820312 53.550781 272.382812 52.988281 273.09375 52.988281 C 273.800781 52.988281 274.363281 53.566406 274.363281 54.257812 C 274.363281 54.964844 273.78125 55.527344 273.09375 55.527344 C 272.382812 55.527344 271.820312 54.949219 271.820312 54.257812 Z M 253.972656 43.851562 C 253.972656 43.144531 254.554688 42.582031 255.242188 42.582031 C 255.953125 42.582031 256.515625 43.164062 256.515625 43.851562 C 256.515625 44.5625 255.933594 45.125 255.242188 45.125 C 254.535156 45.125 253.972656 44.5625 253.972656 43.851562 Z M 253.972656 43.851562 " fill-opacity="1" fill-rule="nonzero"/></g><path fill="#e7b67c" d="M 212.0625 71.035156 L 210.648438 71.035156 L 210.648438 67.820312 C 210.648438 64.480469 208.324219 61.667969 205.199219 60.941406 C 204.675781 60.8125 204.128906 60.738281 203.566406 60.738281 C 203.203125 60.738281 202.839844 60.757812 202.476562 60.832031 C 199.082031 61.359375 196.484375 64.300781 196.484375 67.820312 L 196.484375 71.035156 L 194.851562 71.035156 C 194.6875 71.035156 194.523438 71.054688 194.359375 71.089844 C 193.308594 71.308594 192.542969 72.253906 192.542969 73.339844 L 192.542969 82.53125 C 192.542969 84.363281 193.015625 85.941406 193.925781 87.195312 C 194.597656 88.121094 195.523438 88.867188 196.683594 89.429688 C 198.429688 90.28125 200.699219 90.71875 203.457031 90.71875 C 205.492188 90.71875 207.253906 90.484375 208.742188 90.011719 C 209.59375 89.738281 210.355469 89.394531 211.027344 88.976562 C 211.101562 88.921875 211.175781 88.882812 211.246094 88.832031 C 213.300781 87.449219 214.351562 85.324219 214.351562 82.53125 L 214.351562 73.339844 C 214.351562 72.070312 213.335938 71.035156 212.0625 71.035156 Z M 198.828125 67.820312 C 198.828125 65.515625 200.480469 63.589844 202.660156 63.171875 C 202.949219 63.117188 203.257812 63.082031 203.546875 63.082031 C 204.203125 63.082031 204.835938 63.210938 205.398438 63.464844 C 207.089844 64.191406 208.269531 65.859375 208.269531 67.804688 L 208.269531 71.015625 L 198.828125 71.015625 Z M 212.898438 82.53125 C 212.898438 84.671875 212.171875 86.304688 210.71875 87.414062 C 210.046875 87.941406 209.214844 88.359375 208.234375 88.648438 C 206.925781 89.046875 205.328125 89.246094 203.457031 89.246094 C 200.933594 89.246094 198.863281 88.867188 197.339844 88.121094 C 196.394531 87.667969 195.648438 87.070312 195.125 86.324219 C 194.398438 85.324219 194.035156 84.054688 194.035156 82.53125 L 194.035156 73.339844 C 194.035156 72.941406 194.304688 72.617188 194.6875 72.523438 C 194.742188 72.507812 194.8125 72.507812 194.867188 72.507812 L 212.082031 72.507812 C 212.535156 72.507812 212.917969 72.886719 212.917969 73.339844 L 212.917969 82.53125 Z M 212.898438 82.53125 " fill-opacity="1" fill-rule="nonzero"/><path fill="#e7b67c" d="M 204.3125 80.460938 C 204.347656 80.40625 204.367188 80.351562 204.382812 80.296875 L 205.019531 77.84375 L 205.144531 77.371094 C 205.164062 77.28125 205.164062 77.191406 205.128906 77.117188 C 205.128906 77.101562 205.109375 77.082031 205.089844 77.0625 C 205.089844 77.0625 205.074219 77.046875 205.074219 77.046875 C 205.074219 77.046875 205.054688 77.027344 205.054688 77.027344 C 205.039062 77.007812 205.019531 76.992188 205 76.992188 C 204.984375 76.972656 204.964844 76.972656 204.945312 76.953125 C 204.929688 76.953125 204.890625 76.9375 204.875 76.9375 C 204.855469 76.9375 204.820312 76.9375 204.800781 76.917969 C 204.78125 76.917969 204.78125 76.917969 204.765625 76.917969 L 202.386719 76.917969 C 202.113281 76.917969 201.933594 77.136719 202.003906 77.410156 L 202.765625 80.332031 C 202.785156 80.386719 202.804688 80.441406 202.839844 80.496094 C 202.332031 80.769531 201.988281 81.292969 201.988281 81.910156 C 201.988281 82.800781 202.695312 83.511719 203.585938 83.511719 C 204.472656 83.511719 205.183594 82.800781 205.183594 81.910156 C 205.164062 81.257812 204.820312 80.730469 204.3125 80.460938 Z M 204.3125 80.460938 " fill-opacity="1" fill-rule="nonzero"/><path stroke-linecap="butt" transform="matrix(0.74988, 0.0134147, -0.0134147, 0.74988, 123.482794, 35.474703)" fill="none" stroke-linejoin="miter" d="M -0.000884527 0.997446 L 85.778509 0.999635 " stroke="#e7b67c" stroke-width="2" stroke-opacity="1" stroke-miterlimit="4"/><path stroke-linecap="round" transform="matrix(0.74988, 0.0134147, -0.0134147, 0.74988, 123.482794, 35.474703)" fill-opacity="1" fill="#e7b67c" fill-rule="nonzero" stroke-linejoin="round" d="M 86.28224 -1.999438 L 90.27928 1.002467 L 86.280199 4.001559 Z M 86.28224 -1.999438 " stroke="#e7b67c" stroke-width="2" stroke-opacity="1" stroke-miterlimit="4"/><path stroke-linecap="butt" transform="matrix(0.75, 0, 0, 0.75, 55.059894, 26.031653)" fill="none" stroke-linejoin="miter" d="M -0.00173432 0.999463 L 143.998274 0.999463 " stroke="#e7b67c" stroke-width="2" stroke-opacity="1" stroke-miterlimit="4"/><path stroke-linecap="butt" transform="matrix(0.75, 0, 0, 0.75, 15.000002, 44.657011)" fill="none" stroke-linejoin="miter" d="M -0.00000216667 0.998986 L 91.281253 0.998986 " stroke="#e7b67c" stroke-width="2" stroke-opacity="1" stroke-miterlimit="4"/><path stroke-linecap="butt" transform="matrix(0.75, 0.000000000000000079, -0.000000000000000079, 0.75, 69.595669, 57.749999)" fill="none" stroke-linejoin="miter" d="M -0.00255845 1.000002 L 129.403699 1.000002 " stroke="#e7b67c" stroke-width="2" stroke-opacity="1" stroke-miterlimit="4"/><path stroke-linecap="round" transform="matrix(0.75, 0.000000000000000079, -0.000000000000000079, 0.75, 69.595669, 57.749999)" fill-opacity="1" fill="#e7b67c" fill-rule="nonzero" stroke-linejoin="round" d="M 129.903699 -1.999998 L 133.903699 1.000002 L 129.903699 4.000002 Z M 129.903699 -1.999998 " stroke="#e7b67c" stroke-width="2" stroke-opacity="1" stroke-miterlimit="4"/><path stroke-linecap="butt" transform="matrix(0.75, -0.000000000000000186, 0.000000000000000186, 0.75, 9.689899, 76.403568)" fill="none" stroke-linejoin="miter" d="M 0.00200906 0.998368 L 60.491596 0.998368 " stroke="#e7b67c" stroke-width="2" stroke-opacity="1" stroke-miterlimit="4"/><path stroke-linecap="butt" transform="matrix(0.75, -0.000000000000000279, 0.000000000000000279, 0.75, 30.463587, 108.219948)" fill="none" stroke-linejoin="miter" d="M 0.0016755 0.998402 L 75.210013 0.998402 " stroke="#e7b67c" stroke-width="2" stroke-opacity="1" stroke-miterlimit="4"/><path stroke-linecap="butt" transform="matrix(0.75, 0, 0, 0.75, 65.735756, 89.469942)" fill="none" stroke-linejoin="miter" d="M -0.00184169 0.99841 L 129.404416 0.99841 " stroke="#e7b67c" stroke-width="2" stroke-opacity="1" stroke-miterlimit="4"/><path stroke-linecap="round" transform="matrix(0.75, 0, 0, 0.75, 65.735756, 89.469942)" fill-opacity="1" fill="#e7b67c" fill-rule="nonzero" stroke-linejoin="round" d="M 129.904416 -2.00159 L 133.904416 0.99841 L 129.904416 3.99841 Z M 129.904416 -2.00159 " stroke="#e7b67c" stroke-width="2" stroke-opacity="1" stroke-miterlimit="4"/><path stroke-linecap="butt" transform="matrix(0.75, 0.000000000000000135, -0.000000000000000135, 0.75, 90.519739, 73.499998)" fill="none" stroke-linejoin="miter" d="M -0.00027676 1.000003 L 79.109103 1.000003 " stroke="#e7b67c" stroke-width="2" stroke-opacity="1" stroke-miterlimit="4"/><path stroke-linecap="butt" transform="matrix(0.75, -0.000000000000000279, 0.000000000000000279, 0.75, 110.50761, 126.219955)" fill="none" stroke-linejoin="miter" d="M 0.000270462 0.998394 L 75.208608 0.998394 " stroke="#e7b67c" stroke-width="2" stroke-opacity="1" stroke-miterlimit="4"/><path stroke-linecap="butt" transform="matrix(0.75, 0, 0, 0.75, 132.009662, 110.469948)" fill="none" stroke-linejoin="miter" d="M -0.002466 0.998402 L 97.87254 0.998402 " stroke="#e7b67c" stroke-width="2" stroke-opacity="1" stroke-miterlimit="4"/><path stroke-linecap="round" transform="matrix(0.75, 0, 0, 0.75, 132.009662, 110.469948)" fill-opacity="1" fill="#e7b67c" fill-rule="nonzero" stroke-linejoin="round" d="M 98.37254 -2.001598 L 102.37254 0.998402 L 98.37254 3.998402 Z M 98.37254 -2.001598 " stroke="#e7b67c" stroke-width="2" stroke-opacity="1" stroke-miterlimit="4"/></svg>