<svg xmlns="http://www.w3.org/2000/svg" xmlns:xlink="http://www.w3.org/1999/xlink" width="400" zoomAndPan="magnify" viewBox="0 0 300 149.999998" height="200" preserveAspectRatio="xMidYMid meet" version="1.0"><defs><clipPath id="f77c76c4b4"><path d="M 60 33.046875 L 187.269531 33.046875 L 187.269531 38 L 60 38 Z M 60 33.046875 " clip-rule="nonzero"/></clipPath><clipPath id="f7b5178feb"><path d="M 3.519531 77 L 131 77 L 131 82 L 3.519531 82 Z M 3.519531 77 " clip-rule="nonzero"/></clipPath><clipPath id="7680c1fedf"><path d="M 55 121 L 183 121 L 183 125.296875 L 55 125.296875 Z M 55 121 " clip-rule="nonzero"/></clipPath><clipPath id="fc5ec6b8f0"><path d="M 187.535156 33.046875 L 297 33.046875 L 297 117 L 187.535156 117 Z M 187.535156 33.046875 " clip-rule="nonzero"/></clipPath></defs><path fill="#e7b67c" d="M 171.425781 48.125 L 46.023438 46.125 L 171.425781 44.128906 L 173.425781 44.09375 L 173.425781 48.15625 Z M 171.425781 48.125 " fill-opacity="1" fill-rule="nonzero"/><path fill="#e7b67c" d="M 143.257812 59.175781 L 17.855469 57.175781 L 143.257812 55.175781 L 145.257812 55.144531 L 145.257812 59.207031 Z M 143.257812 59.175781 " fill-opacity="1" fill-rule="nonzero"/><g clip-path="url(#f77c76c4b4)"><path fill="#e7b67c" d="M 185.488281 37.074219 L 60.085938 35.078125 L 185.488281 33.078125 L 187.484375 33.046875 L 187.484375 37.105469 Z M 185.488281 37.074219 " fill-opacity="1" fill-rule="nonzero"/></g><path fill="#e7b67c" d="M 158.605469 70.222656 L 33.203125 68.226562 L 158.605469 66.226562 L 160.605469 66.195312 L 160.605469 70.257812 Z M 158.605469 70.222656 " fill-opacity="1" fill-rule="nonzero"/><g clip-path="url(#f7b5178feb)"><path fill="#e7b67c" d="M 128.960938 81.273438 L 3.558594 79.277344 L 128.960938 77.277344 L 130.960938 77.246094 L 130.960938 81.304688 Z M 128.960938 81.273438 " fill-opacity="1" fill-rule="nonzero"/></g><path fill="#e7b67c" d="M 151.601562 92.324219 L 26.199219 90.324219 L 151.601562 88.328125 L 153.601562 88.292969 L 153.601562 92.355469 Z M 151.601562 92.324219 " fill-opacity="1" fill-rule="nonzero"/><path fill="#e7b67c" d="M 139.6875 103.375 L 14.285156 101.375 L 139.6875 99.375 L 141.6875 99.34375 L 141.6875 103.40625 Z M 139.6875 103.375 " fill-opacity="1" fill-rule="nonzero"/><path fill="#e7b67c" d="M 157.484375 114.421875 L 32.082031 112.425781 L 157.484375 110.425781 L 159.484375 110.394531 L 159.484375 114.457031 Z M 157.484375 114.421875 " fill-opacity="1" fill-rule="nonzero"/><g clip-path="url(#7680c1fedf)"><path fill="#e7b67c" d="M 180.785156 125.472656 L 55.378906 123.476562 L 180.785156 121.476562 L 182.78125 121.445312 L 182.78125 125.503906 Z M 180.785156 125.472656 " fill-opacity="1" fill-rule="nonzero"/></g><g clip-path="url(#fc5ec6b8f0)"><path fill="#e7b67c" d="M 201.871094 81.742188 C 202.339844 78.542969 203.3125 75.417969 204.085938 72.125 L 192.410156 65.382812 C 191.082031 67.609375 189.039062 74.050781 188.433594 77.972656 C 188.117188 80.035156 187.855469 82.109375 187.570312 84.179688 L 187.570312 91.429688 L 201.253906 91.429688 C 201.441406 88.152344 201.40625 84.914062 201.871094 81.742188 Z M 270.644531 41.011719 C 262.234375 35.960938 253.25 33.308594 243.472656 33.054688 L 243.472656 46.828125 C 250.746094 47.128906 257.472656 49.117188 263.738281 52.96875 Z M 240.90625 33.046875 C 231.085938 33.328125 222.097656 35.984375 213.726562 41.019531 C 216.054688 45.046875 218.332031 48.988281 220.636719 52.976562 C 226.949219 49.09375 233.6875 47.128906 240.90625 46.816406 Z M 193.433594 63.175781 L 205.332031 70.046875 C 208.484375 63.621094 212.886719 58.421875 218.613281 54.316406 L 211.707031 42.363281 C 204.394531 47.085938 195.390625 57.347656 193.433594 63.175781 Z M 279.054688 70.042969 L 291.019531 63.136719 C 286.648438 54.640625 280.605469 47.738281 272.683594 42.332031 L 265.757812 54.320312 C 271.546875 58.449219 275.898438 63.695312 279.054688 70.042969 Z M 296.765625 90.453125 C 296.574219 86.738281 296.542969 83.003906 296.113281 79.3125 C 295.554688 74.503906 294.082031 69.910156 292.03125 65.34375 L 280 72.292969 C 282.515625 78.460938 283.324219 84.839844 282.855469 91.371094 C 283 91.421875 283.148438 91.460938 283.296875 91.484375 C 287.523438 91.492188 291.746094 91.484375 295.972656 91.507812 C 296.8125 91.515625 296.796875 90.996094 296.765625 90.453125 Z M 201.636719 94.039062 L 188.015625 94.039062 C 188.097656 99.882812 192.65625 112.6875 196.160156 116.898438 L 207.847656 110.152344 C 206.574219 107.492188 205.179688 104.96875 204.15625 102.304688 C 203.125 99.617188 202.460938 96.789062 201.636719 94.039062 Z M 276.367188 110.054688 L 288.300781 116.941406 C 292.710938 109.839844 295.46875 102.277344 296.40625 94.023438 L 282.496094 94.023438 C 281.597656 99.808594 279.460938 105.070312 276.367188 110.054688 Z M 242.203125 84.554688 C 241.667969 84.554688 241.136719 84.605469 240.609375 84.710938 C 240.082031 84.8125 239.570312 84.964844 239.078125 85.171875 C 238.582031 85.375 238.109375 85.625 237.664062 85.921875 C 237.214844 86.21875 236.804688 86.554688 236.421875 86.933594 C 236.042969 87.3125 235.703125 87.722656 235.402344 88.167969 C 235.105469 88.613281 234.851562 89.082031 234.644531 89.574219 C 234.4375 90.070312 234.28125 90.582031 234.175781 91.105469 C 234.070312 91.632812 234.015625 92.164062 234.011719 92.699219 C 234.011719 93.234375 234.0625 93.765625 234.164062 94.292969 C 234.265625 94.816406 234.421875 95.328125 234.625 95.824219 C 234.828125 96.320312 235.078125 96.792969 235.375 97.238281 C 235.667969 97.6875 236.007812 98.097656 236.382812 98.480469 C 236.761719 98.859375 237.171875 99.199219 237.617188 99.5 C 238.0625 99.800781 238.53125 100.054688 239.027344 100.261719 C 239.519531 100.46875 240.03125 100.625 240.554688 100.730469 C 241.082031 100.839844 241.609375 100.894531 242.148438 100.894531 C 242.683594 100.898438 243.214844 100.847656 243.742188 100.746094 C 244.265625 100.644531 244.777344 100.492188 245.273438 100.289062 C 245.769531 100.085938 246.242188 99.835938 246.6875 99.539062 C 247.136719 99.242188 247.550781 98.90625 247.929688 98.53125 C 248.3125 98.152344 248.652344 97.742188 248.953125 97.296875 C 249.253906 96.855469 249.507812 96.382812 249.714844 95.890625 C 249.921875 95.394531 250.078125 94.886719 250.1875 94.359375 C 250.292969 93.835938 250.347656 93.304688 250.351562 92.769531 C 250.359375 92.230469 250.3125 91.695312 250.210938 91.167969 C 250.113281 90.636719 249.960938 90.125 249.757812 89.625 C 249.558594 89.125 249.308594 88.652344 249.011719 88.203125 C 248.714844 87.753906 248.378906 87.335938 248 86.953125 C 247.617188 86.574219 247.207031 86.230469 246.757812 85.929688 C 246.3125 85.632812 245.839844 85.378906 245.339844 85.171875 C 244.84375 84.96875 244.332031 84.8125 243.800781 84.707031 C 243.273438 84.605469 242.742188 84.554688 242.203125 84.554688 Z M 246.164062 82.792969 C 250.894531 85.167969 253.058594 88.871094 252.765625 94.253906 L 276.320312 73.132812 C 276.28125 73.078125 276.246094 73.023438 276.207031 72.96875 Z M 246.164062 82.792969 " fill-opacity="1" fill-rule="nonzero"/></g></svg>