<svg xmlns="http://www.w3.org/2000/svg" xmlns:xlink="http://www.w3.org/1999/xlink" width="500" zoomAndPan="magnify" viewBox="0 0 375 374.999991" height="500" preserveAspectRatio="xMidYMid meet" version="1.0"><defs><clipPath id="a96c2fb587"><path d="M 81 0 L 293.839844 0 L 293.839844 375 L 81 375 Z M 81 0 " clip-rule="nonzero"/></clipPath></defs><g clip-path="url(#a96c2fb587)"><path fill="#f2f2f2" d="M 251.121094 217.527344 C 276.660156 202.703125 293.824219 175.019531 293.824219 143.3125 L 293.824219 106.941406 C 293.824219 48.09375 246.203125 0.378906 187.445312 0.378906 C 128.6875 0.378906 81.042969 48.09375 81.042969 106.941406 L 81.042969 145.917969 L 145.902344 145.917969 L 145.902344 148.453125 C 138.027344 150.417969 130.582031 153.472656 123.746094 157.472656 C 98.210938 172.296875 81.042969 199.980469 81.042969 231.6875 L 81.042969 268.058594 C 81.042969 326.902344 128.664062 374.621094 187.421875 374.621094 C 246.179688 374.621094 293.824219 326.902344 293.824219 268.058594 L 293.824219 229.082031 L 228.964844 229.082031 L 228.964844 226.546875 C 236.839844 224.582031 244.289062 221.527344 251.121094 217.527344 Z M 208.207031 281.058594 C 208.207031 292.542969 198.914062 301.851562 187.445312 301.851562 C 175.976562 301.851562 166.6875 292.542969 166.6875 281.058594 L 166.6875 93.941406 C 166.6875 82.457031 175.976562 73.148438 187.445312 73.148438 C 198.914062 73.148438 208.207031 82.457031 208.207031 93.941406 Z M 208.207031 281.058594 " fill-opacity="1" fill-rule="nonzero"/></g></svg>