<svg width="131" height="32" viewBox="0 0 131 32" fill="none" xmlns="http://www.w3.org/2000/svg">
<path d="M38.2393 18.7774H41.4138C41.5401 20.2987 42.8088 21.5731 45.3519 21.5731C47.3841 21.5731 48.7791 20.557 48.7791 19.162C48.7791 17.767 47.4588 17.4341 45.3519 17.0035L44.0832 16.7509C41.5459 16.2458 38.4976 15.6086 38.4976 12.1814C38.4976 8.75421 41.035 6.97461 45.0993 6.97461C48.9111 6.97461 51.5748 8.88051 51.7011 12.1814H48.5265C48.4002 10.6601 47.1315 9.64402 44.8468 9.64402C43.0672 9.64402 41.6722 10.4075 41.6722 11.8025C41.6722 13.1975 43.1705 13.5821 45.0993 13.961L46.368 14.2136C48.9054 14.7188 51.9537 15.356 51.9537 18.7831C51.9537 22.2103 49.4163 24.2425 45.0993 24.2425C41.035 24.2425 38.3713 22.2103 38.245 18.7831L38.2393 18.7774Z" fill="#FAFAFA"/>
<path d="M54.8011 20.6843V13.7037H52.6426V11.4189H52.8952C54.6748 11.4189 55.1799 10.7817 55.1799 9.51297V7.9917H57.8436V11.2926H60.6393V13.7037H57.8436V20.3054C57.8436 21.5741 58.4808 21.8267 59.4969 21.8267H60.6393V23.9852C59.9275 24.0598 59.0377 24.1115 58.4808 24.1115C56.196 24.1115 54.8011 23.2217 54.8011 20.6843Z" fill="#FAFAFA"/>
<path d="M61.8018 20.4309C61.8018 18.1461 63.4551 16.975 65.8661 16.6191L68.4035 16.2402C69.167 16.1139 69.9248 15.8613 69.9248 14.9715C69.9248 13.8291 68.7824 13.3182 67.7663 13.3182C66.245 13.3182 65.2289 14.0817 65.1026 15.603H62.0543C62.0543 12.8073 64.4654 11.0334 67.7663 11.0334C71.0672 11.0334 73.0994 12.8131 73.0994 15.8556V23.9844H70.1774V22.4631C69.2876 23.7318 67.8926 24.2427 66.3713 24.2427C63.8339 24.2427 61.8018 22.7214 61.8018 20.4309ZM70.0568 19.1622V18.0198L67.6457 18.3987C66.1245 18.6283 64.9763 19.0359 64.9763 20.3046C64.9763 21.447 65.9924 21.9579 67.0085 21.9579C68.5298 21.9579 70.0568 20.9418 70.0568 19.1622Z" fill="#FAFAFA"/>
<path d="M75.207 23.9844V11.286H78.129V13.0656C78.6342 12.0495 79.524 11.0334 81.3036 11.0334C81.6595 11.0334 82.1647 11.0851 82.5723 11.1597V13.8291C82.1417 13.7545 81.6308 13.7029 81.3036 13.7029C79.0188 13.7029 78.2553 15.2241 78.2553 17.5146V23.9901H75.207V23.9844Z" fill="#FAFAFA"/>
<path d="M83.2966 24.6215H86.3449C86.4712 25.6892 87.4873 26.4011 89.3416 26.4011C91.0408 26.4011 92.4415 25.385 92.4415 23.3528V21.8315C92.0626 22.595 90.8399 23.6111 88.8881 23.6111C85.3346 23.6111 83.0498 21.0737 83.0498 17.3882C83.0498 13.9611 85.3346 11.0391 88.8881 11.0391C90.8456 11.0391 92.1373 12.0552 92.5678 12.8187V11.2974H95.4898V23.3585C95.4898 26.912 93.0787 28.8179 89.089 28.8179C85.7135 28.8179 83.4287 27.2162 83.2966 24.6272V24.6215ZM92.4358 17.3825C92.4358 15.4766 91.546 13.5707 89.2612 13.5707C87.229 13.5707 86.0866 15.4766 86.0866 17.3825C86.0866 19.7936 87.229 21.1943 89.2612 21.1943C91.546 21.1943 92.4358 19.2884 92.4358 17.3825Z" fill="#FAFAFA"/>
<path d="M97.3555 20.4309C97.3555 18.1461 99.0088 16.975 101.42 16.6191L103.957 16.2402C104.721 16.1139 105.478 15.8613 105.478 14.9715C105.478 13.8291 104.336 13.3182 103.32 13.3182C101.799 13.3182 100.783 14.0817 100.656 15.603H97.6081C97.6081 12.8073 100.019 11.0334 103.32 11.0334C106.621 11.0334 108.653 12.8131 108.653 15.8556V23.9844H105.731V22.4631C104.841 23.7318 103.446 24.2427 101.925 24.2427C99.3877 24.2427 97.3555 22.7214 97.3555 20.4309ZM105.611 19.1622V18.0198L103.199 18.3987C101.678 18.6283 100.53 19.0359 100.53 20.3046C100.53 21.447 101.546 21.9579 102.562 21.9579C104.084 21.9579 105.611 20.9418 105.611 19.1622Z" fill="#FAFAFA"/>
<path d="M111.69 20.6843V13.7037H109.531V11.4189H109.784C111.563 11.4189 112.069 10.7817 112.069 9.51297V7.9917H114.732V11.2926H117.528V13.7037H114.732V20.3054C114.732 21.5741 115.37 21.8267 116.386 21.8267H117.528V23.9852C116.816 24.0598 115.926 24.1115 115.37 24.1115C113.085 24.1115 111.69 23.2217 111.69 20.6843Z" fill="#FAFAFA"/>
<path d="M130.314 18.6512H121.042C121.375 20.8097 122.77 21.8258 124.47 21.8258C125.991 21.8258 127.007 20.9647 127.518 19.9486L130.055 20.9417C129.039 22.9739 127.26 24.2426 124.47 24.2426C120.532 24.2426 117.994 21.7052 117.994 17.6408C117.994 13.829 120.532 11.0391 124.217 11.0391C128.155 11.0391 130.314 13.8348 130.314 18.1517V18.6569V18.6512ZM127.265 16.4927C127.265 14.5868 125.87 13.4444 124.217 13.4444C122.564 13.4444 121.375 14.4375 121.042 16.4927H127.265Z" fill="#FAFAFA"/>
<path d="M18.5821 1.73424L19.4087 3.66884C21.0276 7.46342 24.0472 10.483 27.8417 12.1019L29.7764 12.9285C30.2815 13.1467 30.6949 13.4509 31.0106 13.8241C30.0404 6.91806 24.5868 1.45869 17.6865 0.5C18.0539 0.815736 18.3639 1.22906 18.5821 1.73424Z" fill="#999999"/>
<path d="M1.24108 12.9285L3.17568 12.1019C6.97025 10.483 9.98984 7.46342 11.6144 3.66884L12.4411 1.73424C12.6592 1.22906 12.9692 0.815736 13.3366 0.5C6.42489 1.45869 0.971266 6.91806 0.00683594 13.8183C0.322572 13.4509 0.735899 13.1409 1.24108 12.9228V12.9285Z" fill="#999999"/>
<path d="M29.7724 19.0714L27.8378 19.8981C24.0433 21.517 21.0237 24.5423 19.4048 28.3369L18.5782 30.2657C18.36 30.7709 18.05 31.1842 17.6826 31.5C24.5829 30.5355 30.0365 25.0819 31.0009 18.1816C30.6852 18.549 30.2719 18.859 29.7667 19.0772L29.7724 19.0714Z" fill="#999999"/>
<path d="M12.4343 30.2646L11.6076 28.3358C9.98874 24.5412 6.96342 21.5216 3.16884 19.897L1.23424 19.0703C0.729064 18.8522 0.315736 18.5479 0 18.1748C0.96443 25.0751 6.41806 30.5344 13.3183 31.4931C12.9509 31.1774 12.6409 30.7641 12.4228 30.2589L12.4343 30.2646Z" fill="#999999"/>
<path d="M8.47641 14.4842L9.42936 14.0766C11.3008 13.2786 12.7876 11.7918 13.5856 9.92033L13.9932 8.96738C14.5615 7.63555 16.4559 7.63555 17.0243 8.96738L17.4318 9.92033C18.2298 11.7918 19.7166 13.2786 21.5881 14.0766L22.541 14.4842C23.8729 15.0525 23.8729 16.9412 22.541 17.5152L21.5881 17.9228C19.7166 18.7208 18.2298 20.2076 17.4318 22.079L17.0243 23.032C16.4559 24.3638 14.5615 24.3638 13.9932 23.032L13.5856 22.079C12.7876 20.2076 11.3008 18.7208 9.42936 17.9228L8.47641 17.5152C7.14458 16.9469 7.14458 15.0582 8.47641 14.4842Z" fill="#FAFAFA"/>
</svg>
