<svg xmlns="http://www.w3.org/2000/svg" xmlns:xlink="http://www.w3.org/1999/xlink" width="400" zoomAndPan="magnify" viewBox="0 0 300 299.999988" height="400" preserveAspectRatio="xMidYMid meet" version="1.0"><defs><clipPath id="6294699cd2"><path d="M 15 20.160156 L 287 20.160156 L 287 156 L 15 156 Z M 15 20.160156 " clip-rule="nonzero"/></clipPath><clipPath id="7dd8fe3c3e"><path d="M 92 264 L 210 264 L 210 279.660156 L 92 279.660156 Z M 92 264 " clip-rule="nonzero"/></clipPath></defs><g clip-path="url(#6294699cd2)"><path fill="#ecca94" d="M 150.871094 20.160156 C 75.839844 20.160156 15.035156 80.941406 15.035156 155.90625 L 286.707031 155.90625 C 286.707031 80.941406 225.882812 20.160156 150.871094 20.160156 Z M 150.871094 20.160156 " fill-opacity="1" fill-rule="nonzero"/></g><path fill="#b39971" d="M 23.933594 159.578125 L 299.863281 159.578125 L 299.863281 176.210938 L 23.933594 176.210938 Z M 23.933594 159.578125 " fill-opacity="1" fill-rule="nonzero"/><path fill="#b39971" d="M 0.136719 185.410156 L 278.949219 185.410156 L 278.949219 200.878906 L 0.136719 200.878906 Z M 0.136719 185.410156 " fill-opacity="1" fill-rule="nonzero"/><path fill="#b39971" d="M 30.691406 212.191406 L 293.058594 212.191406 L 293.058594 227.660156 L 30.691406 227.660156 Z M 30.691406 212.191406 " fill-opacity="1" fill-rule="nonzero"/><path fill="#b39971" d="M 37.804688 237.894531 L 243.78125 237.894531 L 243.78125 253.363281 L 37.804688 253.363281 Z M 37.804688 237.894531 " fill-opacity="1" fill-rule="nonzero"/><g clip-path="url(#7dd8fe3c3e)"><path fill="#b39971" d="M 92.144531 264.191406 L 210 264.191406 L 210 279.660156 L 92.144531 279.660156 Z M 92.144531 264.191406 " fill-opacity="1" fill-rule="nonzero"/></g></svg>